<svg xmlns="http://www.w3.org/2000/svg" viewBox="0 0 489.08 355.13"><title>chat-ballons</title><g opacity="0.61"><path d="M333.93,107H196.37c-25.75,0-46.63,20.33-46.63,45.4v61.29c0,25.07,20.88,45.4,46.63,45.4h78A17.35,17.35,0,0,1,292,276.19V309s36.16-22,50.33-50.71c21.75-3.84,38.26-22.34,38.26-44.63V152.39C380.56,127.31,359.68,107,333.93,107Z" transform="translate(-23.71 -28.49)" fill="#00a9a1" opacity="0.8"/><path d="M215,283.34H146.71c-12.78,0-23.14,10.09-23.14,22.53v30.42c0,12.44,10.36,22.53,23.14,22.53h38.72a8.61,8.61,0,0,1,8.72,8.49v16.3s17.95-10.93,25-25.17a22.7,22.7,0,0,0,19-22.15V305.87C238.12,293.43,227.76,283.34,215,283.34Z" transform="translate(-23.71 -28.49)" fill="#00a9a1" opacity="0.6"/><path d="M489.65,137.86H421.38c-12.78,0-23.14,10.09-23.14,22.53v30.42c0,12.44,10.36,22.53,23.14,22.53H460.1a8.61,8.61,0,0,1,8.72,8.49v16.3s17.95-10.93,25-25.17a22.7,22.7,0,0,0,19-22.15V160.39C512.79,147.94,502.43,137.86,489.65,137.86Z" transform="translate(-23.71 -28.49)" fill="#00a9a1" opacity="0.3"/><path d="M410.79,281.14h-38A12.7,12.7,0,0,0,360,293.67v16.92a12.7,12.7,0,0,0,12.87,12.53h21.53a4.79,4.79,0,0,1,4.85,4.72v9.06s10-6.08,13.89-14a12.62,12.62,0,0,0,10.56-12.32V293.67A12.7,12.7,0,0,0,410.79,281.14Z" transform="translate(-23.71 -28.49)" fill="#00a9a1" opacity="0.4"/><path d="M150.74,28.49h-38A12.7,12.7,0,0,0,99.91,41V57.93a12.7,12.7,0,0,0,12.87,12.53h21.53a4.79,4.79,0,0,1,4.85,4.72v9.06s10-6.08,13.89-14a12.62,12.62,0,0,0,10.56-12.32V41A12.7,12.7,0,0,0,150.74,28.49Z" transform="translate(-23.71 -28.49)" fill="#00a9a1" opacity="0.6"/><path d="M96.39,137.86H42.11a18.16,18.16,0,0,0-18.4,17.92V180a18.16,18.16,0,0,0,18.4,17.92H72.89a6.84,6.84,0,0,1,6.93,6.75v13s14.27-8.69,19.86-20A18,18,0,0,0,114.79,180V155.77A18.16,18.16,0,0,0,96.39,137.86Z" transform="translate(-23.71 -28.49)" fill="#00a9a1" opacity="0.3"/></g><path d="M201.37,166.95h2.87v18h21.93v-18H229V208h-2.87V187.44H204.23V208h-2.87V166.95Z" transform="translate(-23.71 -28.49)" fill="#fff"/><path d="M251.15,177.35c7.1,0,11.46,5,11.46,13.83a13.55,13.55,0,0,1-.12,2.24H240.93c0.12,7.54,4.55,13,11.28,13a13.25,13.25,0,0,0,8-2.68l1.12,2.12a16.67,16.67,0,0,1-9.41,2.93c-7.66,0-13.83-5.86-13.83-15.64S244.48,177.35,251.15,177.35Zm8.85,14c0-7.66-3.43-11.59-8.78-11.59-5.11,0-9.66,4.42-10.28,11.59H260Z" transform="translate(-23.71 -28.49)" fill="#fff"/><path d="M270.71,163.21h2.74v41.18c0,1.31.56,1.93,1.31,1.93a4.82,4.82,0,0,0,1.12-.12l0.5,2.24a5.8,5.8,0,0,1-2,.31c-2.43,0-3.68-1.5-3.68-4.73V163.21Z" transform="translate(-23.71 -28.49)" fill="#fff"/><path d="M285.48,163.21h2.74v41.18c0,1.31.56,1.93,1.31,1.93a4.82,4.82,0,0,0,1.12-.12l0.5,2.24a5.8,5.8,0,0,1-2,.31c-2.43,0-3.68-1.5-3.68-4.73V163.21Z" transform="translate(-23.71 -28.49)" fill="#fff"/><path d="M311.15,177.35c7.23,0,13.46,5.73,13.46,15.76s-6.23,15.64-13.46,15.64-13.4-5.73-13.4-15.64S304,177.35,311.15,177.35Zm0,29c6,0,10.59-5.36,10.59-13.21s-4.55-13.33-10.59-13.33-10.53,5.42-10.53,13.33S305.11,206.32,311.15,206.32Z" transform="translate(-23.71 -28.49)" fill="#fff"/><path d="M334.08,203.08a2.84,2.84,0,0,1,0,5.67A2.84,2.84,0,0,1,334.08,203.08Z" transform="translate(-23.71 -28.49)" fill="#fff"/></svg>