<?xml version="1.0" encoding="utf-8"?>
<!-- Generator: Adobe Illustrator 18.0.0, SVG Export Plug-In . SVG Version: 6.00 Build 0)  -->
<svg version="1.2" baseProfile="tiny" id="Layer_1" xmlns="http://www.w3.org/2000/svg" xmlns:xlink="http://www.w3.org/1999/xlink"
	 x="0px" y="0px" viewBox="0 0 72 72" xml:space="preserve">
<g>
	<circle fill="#00AAA4" cx="36" cy="36" r="10.6"/>
	<circle fill="#FFFFFF" cx="36" cy="35" r="8.3"/>
	<path fill="#00AAA4" d="M32,56.7L34.3,46c0-0.2-0.1-0.3-0.2-0.4l-1.7-0.7l-1.7-0.7c-0.2-0.1-0.3,0-0.4,0.1l-5.8,9.2
		c-0.1,0.2-0.3,0.2-0.5,0.1l-2.3-1.2c-0.3-0.2-0.6,0.2-0.5,0.5l4.6,7.5c0.1,0.1,0.2,0.2,0.4,0.2l8.5-2.1c0.3-0.1,0.3-0.6,0-0.7
		l-2.5-0.7C32.1,57,32,56.9,32,56.7z"/>
	<path fill="#00AAA4" d="M39.9,15.3L37.6,26c0,0.2,0.1,0.3,0.2,0.4l1.7,0.7l1.7,0.7c0.2,0.1,0.3,0,0.4-0.1l5.8-9.2
		c0.1-0.2,0.3-0.2,0.5-0.1l2.3,1.2c0.3,0.2,0.6-0.2,0.5-0.5l-4.6-7.5c-0.1-0.1-0.2-0.2-0.4-0.2l-8.5,2.1c-0.3,0.1-0.3,0.6,0,0.7
		l2.5,0.7C39.9,15,40,15.1,39.9,15.3z"/>
	<path fill="#00AAA4" d="M15.3,32L26,34.3c0.2,0,0.3-0.1,0.4-0.2l0.7-1.7l0.7-1.7c0.1-0.2,0-0.3-0.1-0.4l-9.2-5.8
		c-0.2-0.1-0.2-0.3-0.1-0.5l1.2-2.3c0.2-0.3-0.2-0.6-0.5-0.5l-7.5,4.6c-0.1,0.1-0.2,0.2-0.2,0.4l2.1,8.5c0.1,0.3,0.6,0.3,0.7,0
		l0.7-2.5C15,32.1,15.1,32,15.3,32z"/>
	<path fill="#00AAA4" d="M56.7,39.9L46,37.6c-0.2,0-0.3,0.1-0.4,0.2l-0.7,1.7l-0.7,1.7c-0.1,0.2,0,0.3,0.1,0.4l9.2,5.8
		c0.2,0.1,0.2,0.3,0.1,0.5l-1.2,2.3c-0.2,0.3,0.2,0.6,0.5,0.5l7.5-4.6c0.1-0.1,0.2-0.2,0.2-0.4l-2.1-8.5c-0.1-0.3-0.6-0.3-0.7,0
		l-0.7,2.5C57,39.8,56.9,39.9,56.7,39.9z"/>
</g>
</svg>
