<?xml version="1.0" encoding="utf-8"?>
<!-- Generator: Adobe Illustrator 18.0.0, SVG Export Plug-In . SVG Version: 6.00 Build 0)  -->
<svg version="1.2" baseProfile="tiny" id="Layer_1" xmlns="http://www.w3.org/2000/svg" xmlns:xlink="http://www.w3.org/1999/xlink"
	 x="0px" y="0px" viewBox="0 0 72 72" xml:space="preserve">
<g>
	<path fill="#00AAA4" d="M21.7,13.8c0,0-13.6-2.8-15,15.8S22.5,51.8,25.8,52c0,0-3.6-3.6-2.8-6.2c0,0,6.4,0.1,8.2-8
		C32.9,29.7,33.5,16.9,21.7,13.8z"/>
	<path fill="#FFFFFF" d="M20.4,15.4c0,0-10.9-2.2-12.2,13.5s11.7,20.6,14.3,20.7c0,0-1.3-3.3-0.7-5.5c0,0-4.1-0.1-7.6-4.3
		c3.6,2.4,6.3,4.1,9.9,3.2c2-0.5,5.1-1.8,5.6-5.3C31,30.7,31.8,16,20.4,15.4z"/>
	<path fill="#00AAA4" d="M26.7,31.9c0,0.8,0.2,2.1,0.2,2.1c-1.6,1.5-10.5-0.7-12.3-1.2c-0.2,0-0.4,0.1-0.4,0.3
		c0,5.6,4.9,6.8,6.1,6.5c1.5-0.3,2.3-1.9,1.8-2.2c-0.5-0.3-0.6,0.4-0.6,0.4c0.1,0.8-0.8,1.4-3.1,0.3c-2-0.9-2.9-2.5-3.1-3.9
		c0-0.3,0.3-0.5,0.5-0.4c4,1.7,10.2,1.2,11.5,1.1c0.1,0,0.2-0.1,0.2-0.3C27.6,34.7,26.7,30.9,26.7,31.9z"/>
	
		<ellipse transform="matrix(0.9962 8.689218e-02 -8.689218e-02 0.9962 2.375 -1.9174)" fill="#00AAA4" cx="23.2" cy="26.3" rx="0.7" ry="1.2"/>
	
		<ellipse transform="matrix(0.9962 8.689218e-02 -8.689218e-02 0.9962 2.3827 -2.1761)" fill="#00AAA4" cx="26.2" cy="26.3" rx="0.7" ry="0.9"/>
	<path fill="#00AAA4" d="M49,7.9c0,0,11.1-4.7,15.6,10.9s-9.6,21.7-12.4,22.4c0,0,2.4-3.7,1.3-5.8c0,0-5.4,1.2-8.4-5.4
		S39.4,12.7,49,7.9z"/>
	<path fill="#FFFFFF" d="M50.4,9.1c0,0,8.9-3.7,12.8,9.4s-6.4,19.6-8.7,20.1c0,0,0.6-3-0.4-4.9c0,0,3.5-0.8,5.7-5
		c-2.7,2.6-4.6,4.6-7.9,4.4c-1.8-0.1-4.6-0.7-5.7-3.6C44,24,40.8,11.5,50.4,9.1z"/>
	<path fill="#00AAA4" d="M47.9,24.2C48,24.9,48,26,48,26c1.6,1,8.8-2.4,10.3-3.1c0.1-0.1,0.3,0,0.3,0.2c1,4.8-3,6.6-4,6.6
		c-1.4,0-2.3-1.2-1.9-1.6c0.4-0.3,0.6,0.3,0.6,0.3c0,0.7,0.9,1,2.7-0.3c1.5-1.1,2.1-2.6,1.9-3.8c0-0.3-0.3-0.4-0.5-0.2
		c-3.1,2.2-8.5,2.8-9.6,2.9c-0.1,0-0.2-0.1-0.3-0.2C47.6,26.8,47.7,23.4,47.9,24.2z"/>
	
		<ellipse transform="matrix(-0.9589 0.2838 -0.2838 -0.9589 100.1859 24.0603)" fill="#00AAA4" cx="48.3" cy="19.3" rx="0.6" ry="1"/>
	
		<ellipse transform="matrix(-0.9589 0.2838 -0.2838 -0.9589 95.3321 25.7277)" fill="#00AAA4" cx="45.8" cy="19.8" rx="0.6" ry="0.8"/>
	<path fill="#00AAA4" d="M43.9,35.2c0,0,11.4,1.2,7.9,16.3S33.7,65.1,31.1,64.4c0,0,3.7-1.9,3.8-4.2c0,0-5.1-1.5-4.5-8.4
		S33.8,34.7,43.9,35.2z"/>
	<path fill="#FFFFFF" d="M44.5,36.9c0,0,9.1,1,6.3,13.8S36.4,63.9,34.3,63.4c0,0,1.9-2.3,1.9-4.2c0,0,3.3,0.9,7.1-1.5
		c-3.5,1-6,1.7-8.6,0c-1.5-0.9-3.5-2.7-3.1-5.6C32.4,46.3,35.4,34.4,44.5,36.9z"/>
	<path fill="#00AAA4" d="M35.4,48.3c-0.2,0.7-0.7,1.6-0.7,1.6c0.9,1.6,8.5,2.1,10,2.2c0.1,0,0.3,0.2,0.2,0.3
		c-1.4,4.4-5.6,4.1-6.4,3.7c-1.1-0.6-1.3-2.1-0.9-2.2c0.4-0.1,0.4,0.5,0.4,0.5c-0.3,0.6,0.3,1.3,2.3,1c1.8-0.2,2.9-1.2,3.4-2.3
		c0.1-0.2-0.1-0.5-0.3-0.4c-3.6,0.4-8.4-1.6-9.3-2c-0.1,0-0.2-0.2-0.1-0.3C34,50.3,35.7,47.5,35.4,48.3z"/>
	
		<ellipse transform="matrix(-0.9757 -0.2189 0.2189 -0.9757 68.4252 97.0875)" fill="#00AAA4" cx="39.6" cy="44.8" rx="0.6" ry="1"/>
	<ellipse transform="matrix(-0.9757 -0.2189 0.2189 -0.9757 63.97 95.0345)" fill="#00AAA4" cx="37.2" cy="44" rx="0.6" ry="0.7"/>
</g>
</svg>
