<svg xmlns="http://www.w3.org/2000/svg" viewBox="0 0 58.86 44.76"><title>icon_one2one</title><path d="M21.7,13.8S8.1,11,6.7,29.6,22.5,51.8,25.8,52c0,0-3.6-3.6-2.8-6.2,0,0,6.4.1,8.2-8S33.5,16.9,21.7,13.8Z" transform="translate(-6.62 -7.24)" fill="#00aaa4"/><path d="M20.4,15.4S9.5,13.2,8.2,28.9,19.9,49.5,22.5,49.6c0,0-1.3-3.3-.7-5.5a11.15,11.15,0,0,1-7.6-4.3c3.6,2.4,6.3,4.1,9.9,3.2,2-.5,5.1-1.8,5.6-5.3C31,30.7,31.8,16,20.4,15.4Z" transform="translate(-6.62 -7.24)" fill="#fff"/><path d="M26.7,31.9a18,18,0,0,0,.2,2.1c-1.6,1.5-10.5-.7-12.3-1.2a0.35,0.35,0,0,0-.4.3c0,5.6,4.9,6.8,6.1,6.5,1.5-.3,2.3-1.9,1.8-2.2s-0.6.4-.6,0.4c0.1,0.8-.8,1.4-3.1.3a5.08,5.08,0,0,1-3.1-3.9,0.39,0.39,0,0,1,.5-0.4c4,1.7,10.2,1.2,11.5,1.1a0.25,0.25,0,0,0,.2-0.3C27.6,34.7,26.7,30.9,26.7,31.9Z" transform="translate(-6.62 -7.24)" fill="#00aaa4"/><ellipse cx="23.2" cy="26.3" rx="1.2" ry="0.7" transform="translate(-11.63 39.89) rotate(-85.02)" fill="#00aaa4"/><ellipse cx="26.2" cy="26.3" rx="0.9" ry="0.7" transform="translate(-8.9 42.88) rotate(-85.02)" fill="#00aaa4"/><path d="M49,7.9S60.1,3.2,64.6,18.8,55,40.5,52.2,41.2c0,0,2.4-3.7,1.3-5.8,0,0-5.4,1.2-8.4-5.4S39.4,12.7,49,7.9Z" transform="translate(-6.62 -7.24)" fill="#00aaa4"/><path d="M50.4,9.1s8.9-3.7,12.8,9.4-6.4,19.6-8.7,20.1c0,0,.6-3-0.4-4.9a9.54,9.54,0,0,0,5.7-5c-2.7,2.6-4.6,4.6-7.9,4.4-1.8-.1-4.6-0.7-5.7-3.6C44,24,40.8,11.5,50.4,9.1Z" transform="translate(-6.62 -7.24)" fill="#fff"/><path d="M47.9,24.2A16.24,16.24,0,0,1,48,26c1.6,1,8.8-2.4,10.3-3.1a0.2,0.2,0,0,1,.3.2c1,4.8-3,6.6-4,6.6-1.4,0-2.3-1.2-1.9-1.6s0.6,0.3.6,0.3c0,0.7.9,1,2.7-.3a4.09,4.09,0,0,0,1.9-3.8,0.28,0.28,0,0,0-.5-0.2c-3.1,2.2-8.5,2.8-9.6,2.9a0.53,0.53,0,0,1-.3-0.2C47.6,26.8,47.7,23.4,47.9,24.2Z" transform="translate(-6.62 -7.24)" fill="#00aaa4"/><ellipse cx="48.39" cy="19.26" rx="0.6" ry="1" transform="translate(-10.1 7.29) rotate(-16.49)" fill="#00aaa4"/><ellipse cx="45.8" cy="19.74" rx="0.6" ry="0.8" transform="translate(-10.34 6.57) rotate(-16.49)" fill="#00aaa4"/></svg>