<?xml version="1.0" encoding="utf-8"?>
<!-- Generator: Adobe Illustrator 18.0.0, SVG Export Plug-In . SVG Version: 6.00 Build 0)  -->
<svg version="1.2" baseProfile="tiny" id="Layer_1" xmlns="http://www.w3.org/2000/svg" xmlns:xlink="http://www.w3.org/1999/xlink"
	 x="0px" y="0px" viewBox="0 0 72 72" xml:space="preserve">
<g>
	<path fill="#00AAA4" d="M36.6,13.1c0,0,6-0.2,6.9,4.8s4.2,14.7-3.5,18.5s-18.4,4.3-21.2,2.9c0,0,0.6,4.5,2.2,6.5
		c1.6,2-9.1-3.2-11.3-9.4c-2-5.8-3.1-10.2,1.2-14.7S26.8,14.2,36.6,13.1z"/>
	<path fill="#FFFFFF" d="M35.9,15.1c0,0,5.1-0.2,5.8,4s3.5,12.5-3,15.6c-6.6,3.1-18.6,3.7-21,2.5c0,0-0.3,2,0.6,5
		c0.7,2-5.9-2.8-7.6-7.7c-2-5.8-1.6-8.3,2-12C16.4,18.8,24.7,16.6,35.9,15.1z"/>
	<path fill="#00AAA4" d="M33.2,28.3c0,0-6,0.6-6.1,5.7s-2.2,15.2,6,17.8s18.8,1.8,21.4,0.1c0,0,0.4,4.8-1.3,6.7
		c-1.6,1.9,8.1-5,9.9-10.8c1.9-5.8,1.7-10.5-3.1-14.4S43,28.1,33.2,28.3z"/>
	<path fill="#FFFFFF" d="M35.2,29.6c0,0-5.1,0.5-5.2,4.8c-0.2,4.3-1.8,12.9,5.1,15.1s17.8,1.5,20,0c0,0,1.2,1.9,0.6,5
		c-0.4,2.1,4.8-3.9,5.8-9c1.2-6,0.6-9.2-4-11.5C53,31.7,46.5,30.2,35.2,29.6z"/>
</g>
</svg>
