<?xml version="1.0" encoding="utf-8"?>
<!-- Generator: Adobe Illustrator 18.0.0, SVG Export Plug-In . SVG Version: 6.00 Build 0)  -->
<svg version="1.2" baseProfile="tiny" id="Layer_1" xmlns="http://www.w3.org/2000/svg" xmlns:xlink="http://www.w3.org/1999/xlink"
	 x="0px" y="0px" viewBox="0 0 72 72" xml:space="preserve">
<circle fill="#14AAE2" cx="234.2" cy="145.7" r="10.6"/>
<circle fill="#FFFFFF" cx="234.2" cy="144.7" r="8.3"/>
<path fill="#14AAE2" d="M230.2,166.4l2.3-10.7c0-0.2-0.1-0.3-0.2-0.4l-1.7-0.7l-1.7-0.7c-0.2-0.1-0.3,0-0.4,0.1l-5.8,9.2
	c-0.1,0.2-0.3,0.2-0.5,0.1l-2.3-1.2c-0.3-0.2-0.6,0.2-0.5,0.5l4.6,7.5c0.1,0.1,0.2,0.2,0.4,0.2l8.5-2.1c0.3-0.1,0.3-0.6,0-0.7
	l-2.5-0.7C230.3,166.8,230.2,166.6,230.2,166.4z"/>
<path fill="#14AAE2" d="M238.1,125.1l-2.3,10.7c0,0.2,0.1,0.3,0.2,0.4l1.7,0.7l1.7,0.7c0.2,0.1,0.3,0,0.4-0.1l5.8-9.2
	c0.1-0.2,0.3-0.2,0.5-0.1l2.3,1.2c0.3,0.2,0.6-0.2,0.5-0.5l-4.6-7.5c-0.1-0.1-0.2-0.2-0.4-0.2l-8.5,2.1c-0.3,0.1-0.3,0.6,0,0.7
	l2.5,0.7C238,124.7,238.1,124.9,238.1,125.1z"/>
<path fill="#14AAE2" d="M213.5,141.8l10.7,2.3c0.2,0,0.3-0.1,0.4-0.2l0.7-1.7l0.7-1.7c0.1-0.2,0-0.3-0.1-0.4l-9.2-5.8
	c-0.2-0.1-0.2-0.3-0.1-0.5l1.2-2.3c0.2-0.3-0.2-0.6-0.5-0.5l-7.5,4.6c-0.1,0.1-0.2,0.2-0.2,0.4l2.1,8.5c0.1,0.3,0.6,0.3,0.7,0
	l0.7-2.5C213.1,141.8,213.3,141.7,213.5,141.8z"/>
<path fill="#14AAE2" d="M254.8,149.7l-10.7-2.3c-0.2,0-0.3,0.1-0.4,0.2l-0.7,1.7l-0.7,1.7c-0.1,0.2,0,0.3,0.1,0.4l9.2,5.8
	c0.2,0.1,0.2,0.3,0.1,0.5l-1.2,2.3c-0.2,0.3,0.2,0.6,0.5,0.5l7.5-4.6c0.1-0.1,0.2-0.2,0.2-0.4l-2.1-8.5c-0.1-0.3-0.6-0.3-0.7,0
	l-0.7,2.5C255.2,149.6,255,149.7,254.8,149.7z"/>
<g>
	<path fill="#14AAE2" d="M284.6,121.7c0,0-13.6-2.8-15,15.8c-1.4,18.6,15.8,22.2,19.1,22.4c0,0-3.6-3.6-2.8-6.2c0,0,6.4,0.1,8.2-8
		C295.8,137.6,296.4,124.9,284.6,121.7z"/>
	<path fill="#FFFFFF" d="M283.3,123.4c0,0-10.9-2.2-12.2,13.5s11.7,20.6,14.3,20.7c0,0-1.3-3.3-0.7-5.5c0,0-4.1-0.1-7.6-4.3
		c3.6,2.4,6.3,4.1,9.9,3.2c2-0.5,5.1-1.8,5.6-5.3C293.8,138.7,294.7,123.9,283.3,123.4z"/>
	<path fill="#14AAE2" d="M289.6,139.8c0,0.8,0.2,2.1,0.2,2.1c-1.6,1.5-10.5-0.7-12.3-1.2c-0.2,0-0.4,0.1-0.4,0.3
		c0,5.6,4.9,6.8,6.1,6.5c1.5-0.3,2.3-1.9,1.8-2.2s-0.6,0.4-0.6,0.4c0.1,0.8-0.8,1.4-3.1,0.3c-2-0.9-2.9-2.5-3.1-3.9
		c0-0.3,0.3-0.5,0.5-0.4c4,1.7,10.2,1.2,11.5,1.1c0.1,0,0.2-0.1,0.2-0.3C290.5,142.7,289.6,138.9,289.6,139.8z"/>
	
		<ellipse transform="matrix(0.9962 8.689218e-02 -8.689218e-02 0.9962 12.7513 -24.3525)" fill="#14AAE2" cx="286.1" cy="134.3" rx="0.7" ry="1.2"/>
	
		<ellipse transform="matrix(0.9962 8.689218e-02 -8.689218e-02 0.9962 12.759 -24.6113)" fill="#14AAE2" cx="289.1" cy="134.3" rx="0.7" ry="0.9"/>
	<path fill="#14AAE2" d="M311.8,115.9c0,0,11.1-4.7,15.6,10.9c4.4,15.6-9.6,21.7-12.4,22.4c0,0,2.4-3.7,1.3-5.8c0,0-5.4,1.2-8.4-5.4
		C305.1,131.4,302.3,120.6,311.8,115.9z"/>
	<path fill="#FFFFFF" d="M313.3,117.1c0,0,8.9-3.7,12.8,9.4c3.9,13.2-6.4,19.6-8.7,20.1c0,0,0.6-3-0.4-4.9c0,0,3.5-0.8,5.7-5
		c-2.7,2.6-4.6,4.6-7.9,4.4c-1.8-0.1-4.6-0.7-5.7-3.6C306.9,132,303.7,119.5,313.3,117.1z"/>
	<path fill="#14AAE2" d="M310.7,132.2c0.2,0.7,0.2,1.8,0.2,1.8c1.6,1,8.8-2.4,10.3-3.1c0.1-0.1,0.3,0,0.3,0.2c1,4.8-3,6.6-4,6.6
		c-1.4,0-2.3-1.2-1.9-1.6s0.6,0.3,0.6,0.3c0,0.7,0.9,1,2.7-0.3c1.5-1.1,2.1-2.6,1.9-3.8c0-0.3-0.3-0.4-0.5-0.2
		c-3.1,2.2-8.5,2.8-9.6,2.9c-0.1,0-0.2-0.1-0.3-0.2C310.4,134.8,310.6,131.4,310.7,132.2z"/>
	
		<ellipse transform="matrix(-0.9589 0.2838 -0.2838 -0.9589 645.8098 160.9481)" fill="#14AAE2" cx="311.2" cy="127.3" rx="0.6" ry="1"/>
	
		<ellipse transform="matrix(-0.9589 0.2838 -0.2838 -0.9589 640.9559 162.6155)" fill="#14AAE2" cx="308.7" cy="127.7" rx="0.6" ry="0.8"/>
	<path fill="#14AAE2" d="M306.8,143.2c0,0,11.4,1.2,7.9,16.3c-3.6,15.1-18.1,13.6-20.7,12.9c0,0,3.7-1.9,3.8-4.2
		c0,0-5.1-1.5-4.5-8.4C294,152.9,296.7,142.7,306.8,143.2z"/>
	<path fill="#FFFFFF" d="M307.4,144.8c0,0,9.1,1,6.3,13.8c-2.9,12.8-14.4,13.3-16.5,12.7c0,0,1.9-2.3,1.9-4.2c0,0,3.3,0.9,7.1-1.5
		c-3.5,1-6,1.7-8.6,0c-1.5-0.9-3.5-2.7-3.1-5.6C295.3,154.3,298.3,142.4,307.4,144.8z"/>
	<path fill="#14AAE2" d="M298.3,156.2c-0.2,0.7-0.7,1.6-0.7,1.6c0.9,1.6,8.5,2.1,10,2.2c0.1,0,0.3,0.2,0.2,0.3
		c-1.4,4.4-5.6,4.1-6.4,3.7c-1.1-0.6-1.3-2.1-0.9-2.2c0.4-0.1,0.4,0.5,0.4,0.5c-0.3,0.6,0.3,1.3,2.3,1c1.8-0.2,2.9-1.2,3.4-2.3
		c0.1-0.2-0.1-0.5-0.3-0.4c-3.6,0.4-8.4-1.6-9.3-2c-0.1,0-0.2-0.2-0.1-0.3C296.9,158.3,298.6,155.5,298.3,156.2z"/>
	
		<ellipse transform="matrix(-0.9757 -0.2189 0.2189 -0.9757 564.2032 367.9622)" fill="#14AAE2" cx="302.5" cy="152.7" rx="0.6" ry="1"/>
	
		<ellipse transform="matrix(-0.9757 -0.2189 0.2189 -0.9757 559.748 365.9091)" fill="#14AAE2" cx="300.1" cy="151.9" rx="0.6" ry="0.7"/>
</g>
<path fill="#14AAE2" d="M165.8,117.8c0,0,6-0.2,6.9,4.8c0.9,5,4.2,14.7-3.5,18.5c-7.7,3.7-18.4,4.3-21.2,2.9c0,0,0.6,4.5,2.2,6.5
	c1.6,2-9.1-3.2-11.3-9.4c-2-5.8-3.1-10.2,1.2-14.7S156.1,118.9,165.8,117.8z"/>
<path fill="#FFFFFF" d="M165.1,119.8c0,0,5.1-0.2,5.8,4s3.5,12.5-3,15.6c-6.6,3.1-18.6,3.7-21,2.5c0,0-0.3,2,0.6,5
	c0.7,2-5.9-2.8-7.6-7.7c-2-5.8-1.6-8.3,2-12C145.6,123.4,154,121.2,165.1,119.8z"/>
<path fill="#14AAE2" d="M162.4,133c0,0-6,0.6-6.1,5.7c-0.2,5.1-2.2,15.2,6,17.8c8.2,2.6,18.8,1.8,21.4,0.1c0,0,0.4,4.8-1.3,6.7
	c-1.6,1.9,8.1-5,9.9-10.8s1.7-10.5-3.1-14.4C184.3,134.1,172.2,132.8,162.4,133z"/>
<path fill="#FFFFFF" d="M164.5,134.3c0,0-5.1,0.5-5.2,4.8c-0.2,4.3-1.8,12.9,5.1,15.1c6.9,2.2,17.8,1.5,20,0c0,0,1.2,1.9,0.6,5
	c-0.4,2.1,4.8-3.9,5.8-9c1.2-6,0.6-9.2-4-11.5C182.2,136.4,175.8,134.9,164.5,134.3z"/>
<g>
	<path fill="#14AAE2" d="M109.7,155.1c-6.4,1.2-31.7,6.7-38.1,7.9c-0.6,0.1-1.2-0.3-1.4-0.9c-2.2-10.7-4.7-21.3-7.6-31.9
		c-0.2-0.6,0.2-1.3,0.8-1.4c6.3-1.8,31.4-7.9,37.7-9.7c0.6-0.2,1.3,0.2,1.5,0.9c3.1,11.2,5.8,22.4,8.1,33.8
		C110.8,154.4,110.4,155,109.7,155.1z"/>
	<path fill="#FFFFFF" d="M104.7,148.2c-5.7,1.2-27.4,6-33.1,7.2c-0.5,0.1-0.6-0.9-0.7-1.4c-1.7-7.9-3.9-15-6.1-22.8
		c-0.1-0.5,0.1-0.9,0.6-1.1c5.5-1.6,27.2-6.7,32.8-8.3c0.5-0.1,0.9,0.1,1.1,0.6c2.3,8.1,4.3,16.3,6.1,24.6
		C105.5,147.6,105.2,148.1,104.7,148.2z"/>
	<path fill="#FFFFFF" d="M103.3,124c0,0.1-0.1,0.3-0.4,0.4l0,0c-0.3,0.1-0.5,0-0.5-0.1l-0.8-2.9c0-0.1,0.1-0.3,0.4-0.4l0,0
		c0.3-0.1,0.5,0,0.5,0.1L103.3,124z"/>
	<path fill="#FFFFFF" d="M90.6,123.5c-0.2,0-0.4-0.1-0.4-0.3c0-0.2,0.1-0.4,0.3-0.4"/>
</g>
<g>
	<path fill="#14AAE2" d="M113.4,165.6c-5.1-1.2-10.3-2.5-15.4-3.7c-0.5-0.1-0.8-0.6-0.7-1.1c2-8.7,3.6-17.4,5-26.2
		c0.1-0.5,0.6-0.9,1.1-0.8c5.2,0.7,10.5,1.5,15.7,2.2c0.5,0.1,0.9,0.6,0.8,1.1c-1.4,9.3-3.2,18.5-5.3,27.7
		C114.4,165.4,113.9,165.7,113.4,165.6z"/>
	<path fill="#FFFFFF" d="M112.1,158.8c-4.6-1-6.9-1.5-11.5-2.5c-0.4-0.1-0.2-0.9-0.1-1.2c1.4-6.4,2.1-12.5,3.1-18.9
		c0.1-0.4,0.4-0.6,0.8-0.6c4.7,0.7,7,1,11.6,1.6c0.4,0.1,0.6,0.4,0.6,0.8c-1,6.8-2.3,13.6-3.7,20.3
		C112.8,158.6,112.4,158.8,112.1,158.8z"/>
	<path fill="#FFFFFF" d="M107.1,160.4c-0.2,1.1-1.3,1.8-2.4,1.5c-1-0.2-1.7-1.3-1.5-2.4c0.2-1.1,1.3-1.8,2.3-1.5
		C106.7,158.2,107.4,159.3,107.1,160.4z"/>
	<path fill="#FFFFFF" d="M119,140.4c0,0.1-0.2,0.2-0.4,0.1l0,0c-0.2,0-0.4-0.2-0.3-0.3l0.4-2.4c0-0.1,0.2-0.2,0.4-0.1l0,0
		c0.2,0,0.4,0.2,0.3,0.3L119,140.4z"/>
	
		<ellipse transform="matrix(0.975 0.2223 -0.2223 0.975 32.8554 -21.032)" fill="#FFFFFF" cx="109.9" cy="135.5" rx="0.3" ry="0.3"/>
</g>
<path fill="#14AAE2" d="M83.8,144l6.4-1.5c0,0,0.3-4.8-3-4C84,139.2,83.3,142,83.8,144z"/>
<path fill="#14AAE2" d="M85.2,136.4c0.1,0.4-1.3,0.7-1.3,0.3c-0.1-0.4,0.1-0.7,0.5-0.8C84.7,135.8,85.1,136,85.2,136.4z"/>
<polyline fill="#14AAE2" points="85.1,140.6 84.8,136.9 84.2,136.8 84.5,140.2 "/>
<path fill="#14AAE2" d="M89.7,135.9c-0.1,0.4-1.4,0-1.3-0.3c0.1-0.4,0.5-0.6,0.8-0.5C89.5,135.1,89.8,135.5,89.7,135.9z"/>
<polyline fill="#14AAE2" points="87.7,139.6 89.1,136.1 88.6,135.7 87.3,139 "/>
<g>
	<circle fill="#14AAE2" cx="108.2" cy="148.6" r="2.2"/>
	<path fill="#14AAE2" d="M109,146.6c0,0,1.7,0.1,1.7-1s-0.2-1.1,0.2-1.5C110.9,144.1,108.3,144.2,109,146.6z"/>
</g>
<ellipse fill="#14AAE2" cx="374.1" cy="157.9" rx="13.4" ry="15.9"/>
<ellipse fill="#FFFFFF" cx="372.7" cy="157.9" rx="11.3" ry="14"/>
<ellipse fill="#14AAE2" cx="372.8" cy="157.8" rx="2.1" ry="2.6"/>
<ellipse fill="#FFFFFF" cx="372.8" cy="157.8" rx="1.3" ry="1.6"/>
<path fill="#14AAE2" d="M372.8,155.7c0,0,1.7,1.5,1.7,2.5l5-9L372.8,155.7z"/>
<path fill="#14AAE2" d="M372.8,160.2c0,0-1.8-1.4-1.8-2.5l-4.7,9.1L372.8,160.2z"/>
<path fill="#14AAE2" d="M371.9,120.9c-1.9-2.4-6.5-1.7-11.6,1.4c-0.2,0.1-0.4,0.2-0.7,0.2c-0.6,0-1.2,0-1.7,0.1
	c-4.4,0.6-7.8,4.3-8.8,9c3.1-4.5,7.4-6.6,5.4-4.7c-0.6,0.5-1.2,1.2-1.9,1.9c-1.5,1.6-2.7,3.2-3.8,4.9c0,0,0,0,0,0c0,0,0,0,0,0
	c-2.9,4.6-3.9,9-2.2,11.3c1.2,1.5,3.6,1.8,6.4,1c0.4-0.1,0.7,0,1,0.2c2.1,1.6,4.6,2.4,7.2,2c4.5-0.6,8-4.5,8.9-9.5
	c0.1-0.7-0.5-1.4-1.3-1.3l-0.8,0.1c-0.4,0.1-0.8,0.4-0.9,0.8c-0.8,2.4-2.7,4.3-5,4.6c-2.9,0.4-5.6-1.6-6.8-4.5
	c-0.3-0.7,0.2-1.4,0.9-1.5l3.4-0.4l7.9-1l2.7-0.4c0-0.3,0-0.6-0.1-1c-0.1-0.5-0.2-1-0.3-1.5c-0.1-0.3,0-0.6,0.1-0.8
	C372.8,127.1,373.6,123,371.9,120.9z M349,142.9c-0.9-1.1-0.8-3,0.1-5.3c0.5,2.4,1.5,4.6,2.8,6.3C350.6,143.9,349.6,143.6,349,142.9
	z M356.4,133.3c-0.8,0.1-1.5-0.7-1.2-1.5c0.8-2.3,2.7-4.1,5-4.4s4.5,0.9,5.9,3c0.5,0.7,0,1.6-0.8,1.8L356.4,133.3z M364.3,124
	c-0.8-0.5-0.7-1.6,0.1-2c2.8-1.2,5.2-1.2,6.2,0.1c1,1.2,0.8,3.4-0.4,6c-0.4,0.8-1.5,0.9-2,0.1C367.3,126.5,365.9,125,364.3,124z"/>
<g>
	<g>
		<circle fill="#081C23" cx="246.8" cy="215.7" r="10.6"/>
		<circle fill="#FFFFFF" cx="246.8" cy="214.7" r="8.3"/>
		<path fill="#081C23" d="M242.8,236.5l2.3-10.7c0-0.2-0.1-0.3-0.2-0.4l-1.7-0.7l-1.7-0.7c-0.2-0.1-0.3,0-0.4,0.1l-5.8,9.2
			c-0.1,0.2-0.3,0.2-0.5,0.1l-2.3-1.2c-0.3-0.2-0.6,0.2-0.5,0.5l4.6,7.5c0.1,0.1,0.2,0.2,0.4,0.2l8.5-2.1c0.3-0.1,0.3-0.6,0-0.7
			l-2.5-0.7C242.9,236.8,242.8,236.6,242.8,236.5z"/>
		<path fill="#081C23" d="M250.7,195.1l-2.3,10.7c0,0.2,0.1,0.3,0.2,0.4l1.7,0.7l1.7,0.7c0.2,0.1,0.3,0,0.4-0.1l5.8-9.2
			c0.1-0.2,0.3-0.2,0.5-0.1l2.3,1.2c0.3,0.2,0.6-0.2,0.5-0.5l-4.6-7.5c-0.1-0.1-0.2-0.2-0.4-0.2l-8.5,2.1c-0.3,0.1-0.3,0.6,0,0.7
			l2.5,0.7C250.6,194.8,250.7,194.9,250.7,195.1z"/>
		<path fill="#081C23" d="M226.1,211.8l10.7,2.3c0.2,0,0.3-0.1,0.4-0.2l0.7-1.7l0.7-1.7c0.1-0.2,0-0.3-0.1-0.4l-9.2-5.8
			c-0.2-0.1-0.2-0.3-0.1-0.5l1.2-2.3c0.2-0.3-0.2-0.6-0.5-0.5l-7.5,4.6c-0.1,0.1-0.2,0.2-0.2,0.4l2.1,8.5c0.1,0.3,0.6,0.3,0.7,0
			l0.7-2.5C225.8,211.9,225.9,211.8,226.1,211.8z"/>
		<path fill="#081C23" d="M267.5,219.7l-10.7-2.3c-0.2,0-0.3,0.1-0.4,0.2l-0.7,1.7l-0.7,1.7c-0.1,0.2,0,0.3,0.1,0.4l9.2,5.8
			c0.2,0.1,0.2,0.3,0.1,0.5l-1.2,2.3c-0.2,0.3,0.2,0.6,0.5,0.5l7.5-4.6c0.1-0.1,0.2-0.2,0.2-0.4l-2.1-8.5c-0.1-0.3-0.6-0.3-0.7,0
			l-0.7,2.5C267.8,219.6,267.6,219.7,267.5,219.7z"/>
	</g>
	<g>
		<path fill="#081C23" d="M297.2,191.8c0,0-13.6-2.8-15,15.8c-1.4,18.6,15.8,22.2,19.1,22.4c0,0-3.6-3.6-2.8-6.2c0,0,6.4,0.1,8.2-8
			S309.1,194.9,297.2,191.8z"/>
		<path fill="#FFFFFF" d="M295.9,193.4c0,0-10.9-2.2-12.2,13.5c-1.4,15.7,11.7,20.6,14.3,20.7c0,0-1.3-3.3-0.7-5.5
			c0,0-4.1-0.1-7.6-4.3c3.6,2.4,6.3,4.1,9.9,3.2c2-0.5,5.1-1.8,5.6-5.3C306.5,208.7,307.3,194,295.9,193.4z"/>
		<path fill="#081C23" d="M302.2,209.9c0,0.8,0.2,2.1,0.2,2.1c-1.6,1.5-10.5-0.7-12.3-1.2c-0.2,0-0.4,0.1-0.4,0.3
			c0,5.6,4.9,6.8,6.1,6.5c1.5-0.3,2.3-1.9,1.8-2.2s-0.6,0.4-0.6,0.4c0.1,0.8-0.8,1.4-3.1,0.3c-2-0.9-2.9-2.5-3.1-3.9
			c0-0.3,0.3-0.5,0.5-0.4c4,1.7,10.2,1.2,11.5,1.1c0.1,0,0.2-0.1,0.2-0.3C303.1,212.7,302.2,208.9,302.2,209.9z"/>
		
			<ellipse transform="matrix(0.9962 8.689218e-02 -8.689218e-02 0.9962 18.8834 -25.1837)" fill="#081C23" cx="298.7" cy="204.3" rx="0.7" ry="1.2"/>
		
			<ellipse transform="matrix(0.9962 8.689218e-02 -8.689218e-02 0.9962 18.8911 -25.4424)" fill="#081C23" cx="301.7" cy="204.3" rx="0.7" ry="0.9"/>
		<path fill="#081C23" d="M324.5,185.9c0,0,11.1-4.7,15.6,10.9c4.4,15.6-9.6,21.7-12.4,22.4c0,0,2.4-3.7,1.3-5.8
			c0,0-5.4,1.2-8.4-5.4C317.7,201.4,314.9,190.7,324.5,185.9z"/>
		<path fill="#FFFFFF" d="M325.9,187.1c0,0,8.9-3.7,12.8,9.4c3.9,13.2-6.4,19.6-8.7,20.1c0,0,0.6-3-0.4-4.9c0,0,3.5-0.8,5.7-5
			c-2.7,2.6-4.6,4.6-7.9,4.4c-1.8-0.1-4.6-0.7-5.7-3.6C319.5,202,316.3,189.5,325.9,187.1z"/>
		<path fill="#081C23" d="M323.4,202.2c0.2,0.7,0.2,1.8,0.2,1.8c1.6,1,8.8-2.4,10.3-3.1c0.1-0.1,0.3,0,0.3,0.2c1,4.8-3,6.6-4,6.6
			c-1.4,0-2.3-1.2-1.9-1.6c0.4-0.3,0.6,0.3,0.6,0.3c0,0.7,0.9,1,2.7-0.3c1.5-1.1,2.1-2.6,1.9-3.8c0-0.3-0.3-0.4-0.5-0.2
			c-3.1,2.2-8.5,2.8-9.6,2.9c-0.1,0-0.2-0.1-0.3-0.2C323.1,204.8,323.2,201.4,323.4,202.2z"/>
		
			<ellipse transform="matrix(-0.9589 0.2838 -0.2838 -0.9589 690.3918 294.5331)" fill="#081C23" cx="323.9" cy="197.3" rx="0.6" ry="1"/>
		
			<ellipse transform="matrix(-0.9589 0.2838 -0.2838 -0.9589 685.5381 296.2005)" fill="#081C23" cx="321.3" cy="197.8" rx="0.6" ry="0.8"/>
		<path fill="#081C23" d="M319.4,213.2c0,0,11.4,1.2,7.9,16.3c-3.6,15.1-18.1,13.6-20.7,12.9c0,0,3.7-1.9,3.8-4.2
			c0,0-5.1-1.5-4.5-8.4S309.3,212.7,319.4,213.2z"/>
		<path fill="#FFFFFF" d="M320,214.9c0,0,9.1,1,6.3,13.8c-2.9,12.8-14.4,13.3-16.5,12.7c0,0,1.9-2.3,1.9-4.2c0,0,3.3,0.9,7.1-1.5
			c-3.5,1-6,1.7-8.6,0c-1.5-0.9-3.5-2.7-3.1-5.6C307.9,224.3,310.9,212.4,320,214.9z"/>
		<path fill="#081C23" d="M311,226.3c-0.2,0.7-0.7,1.6-0.7,1.6c0.9,1.6,8.5,2.1,10,2.2c0.1,0,0.3,0.2,0.2,0.3
			c-1.4,4.4-5.6,4.1-6.4,3.7c-1.1-0.6-1.3-2.1-0.9-2.2c0.4-0.1,0.4,0.5,0.4,0.5c-0.3,0.6,0.3,1.3,2.3,1c1.8-0.2,2.9-1.2,3.4-2.3
			c0.1-0.2-0.1-0.5-0.3-0.4c-3.6,0.4-8.4-1.6-9.3-2c-0.1,0-0.2-0.2-0.1-0.3C309.5,228.3,311.2,225.5,311,226.3z"/>
		
			<ellipse transform="matrix(-0.9757 -0.2189 0.2189 -0.9757 573.7958 509.0696)" fill="#081C23" cx="315.1" cy="222.7" rx="0.6" ry="1"/>
		
			<ellipse transform="matrix(-0.9757 -0.2189 0.2189 -0.9757 569.3406 507.0165)" fill="#081C23" cx="312.8" cy="222" rx="0.6" ry="0.7"/>
	</g>
	<g>
		<path fill="#081C23" d="M178.5,187.8c0,0,6-0.2,6.9,4.8c0.9,5,4.2,14.7-3.5,18.5s-18.4,4.3-21.2,2.9c0,0,0.6,4.5,2.2,6.5
			c1.6,2-9.1-3.2-11.3-9.4c-2-5.8-3.1-10.2,1.2-14.7S168.7,188.9,178.5,187.8z"/>
		<path fill="#FFFFFF" d="M177.7,189.8c0,0,5.1-0.2,5.8,4s3.5,12.5-3,15.6c-6.6,3.1-18.6,3.7-21,2.5c0,0-0.3,2,0.6,5
			c0.7,2-5.9-2.8-7.6-7.7c-2-5.8-1.6-8.3,2-12C158.2,193.5,166.6,191.2,177.7,189.8z"/>
		<path fill="#081C23" d="M175,203c0,0-6,0.6-6.1,5.7c-0.2,5.1-2.2,15.2,6,17.8c8.2,2.6,18.8,1.8,21.4,0.1c0,0,0.4,4.8-1.3,6.7
			s8.1-5,9.9-10.8s1.7-10.5-3.1-14.4C196.9,204.1,184.8,202.8,175,203z"/>
		<path fill="#FFFFFF" d="M177.1,204.3c0,0-5.1,0.5-5.2,4.8c-0.2,4.3-1.8,12.9,5.1,15.1c6.9,2.2,17.8,1.5,20,0c0,0,1.2,1.9,0.6,5
			c-0.4,2.1,4.8-3.9,5.8-9c1.2-6,0.6-9.2-4-11.5C194.8,206.4,188.4,204.9,177.1,204.3z"/>
	</g>
	<g>
		<g>
			<path fill="#081C23" d="M122.3,225.2c-6.4,1.2-31.7,6.7-38.1,7.9c-0.6,0.1-1.2-0.3-1.4-0.9c-2.2-10.7-4.7-21.3-7.6-31.9
				c-0.2-0.6,0.2-1.3,0.8-1.4c6.3-1.8,31.4-7.9,37.7-9.7c0.6-0.2,1.3,0.2,1.5,0.9c3.1,11.2,5.8,22.4,8.1,33.8
				C123.4,224.4,123,225,122.3,225.2z"/>
			<path fill="#FFFFFF" d="M117.4,218.2c-5.7,1.2-27.4,6-33.1,7.2c-0.5,0.1-0.6-0.9-0.7-1.4c-1.7-7.9-3.9-15-6.1-22.8
				c-0.1-0.5,0.1-0.9,0.6-1.1c5.5-1.6,27.2-6.7,32.8-8.3c0.5-0.1,0.9,0.1,1.1,0.6c2.3,8.1,4.3,16.3,6.1,24.6
				C118.1,217.6,117.8,218.1,117.4,218.2z"/>
			<path fill="#FFFFFF" d="M115.9,194c0,0.1-0.1,0.3-0.4,0.4l0,0c-0.3,0.1-0.5,0-0.5-0.1l-0.8-2.9c0-0.1,0.1-0.3,0.4-0.4l0,0
				c0.3-0.1,0.5,0,0.5,0.1L115.9,194z"/>
			<path fill="#FFFFFF" d="M103.3,193.5c-0.2,0-0.4-0.1-0.4-0.3c0-0.2,0.1-0.4,0.3-0.4"/>
		</g>
		<g>
			<path fill="#081C23" d="M126,235.6c-5.1-1.2-10.3-2.5-15.4-3.7c-0.5-0.1-0.8-0.6-0.7-1.1c2-8.7,3.6-17.4,5-26.2
				c0.1-0.5,0.6-0.9,1.1-0.8c5.2,0.7,10.5,1.5,15.7,2.2c0.5,0.1,0.9,0.6,0.8,1.1c-1.4,9.3-3.2,18.5-5.3,27.7
				C127.1,235.4,126.5,235.7,126,235.6z"/>
			<path fill="#FFFFFF" d="M124.7,228.8c-4.6-1-6.9-1.5-11.5-2.5c-0.4-0.1-0.2-0.9-0.1-1.2c1.4-6.4,2.1-12.5,3.1-18.9
				c0.1-0.4,0.4-0.6,0.8-0.6c4.7,0.7,7,1,11.6,1.6c0.4,0.1,0.6,0.4,0.6,0.8c-1,6.8-2.3,13.6-3.7,20.3
				C125.4,228.6,125,228.9,124.7,228.8z"/>
			<path fill="#FFFFFF" d="M119.7,230.4c-0.2,1.1-1.3,1.8-2.4,1.5c-1-0.2-1.7-1.3-1.5-2.4c0.2-1.1,1.3-1.8,2.3-1.5
				C119.3,228.3,120,229.3,119.7,230.4z"/>
			<path fill="#FFFFFF" d="M131.6,210.4c0,0.1-0.2,0.2-0.4,0.1l0,0c-0.2,0-0.4-0.2-0.3-0.3l0.4-2.4c0-0.1,0.2-0.2,0.4-0.1l0,0
				c0.2,0,0.4,0.2,0.3,0.3L131.6,210.4z"/>
			
				<ellipse transform="matrix(0.975 0.2223 -0.2223 0.975 48.7344 -22.084)" fill="#FFFFFF" cx="122.5" cy="205.5" rx="0.3" ry="0.3"/>
		</g>
		<path fill="#081C23" d="M96.4,214l6.4-1.5c0,0,0.3-4.8-3-4C96.6,209.3,95.9,212,96.4,214z"/>
		<path fill="#081C23" d="M97.8,206.4c0.1,0.4-1.3,0.7-1.3,0.3c-0.1-0.4,0.1-0.7,0.5-0.8S97.7,206.1,97.8,206.4z"/>
		<polyline fill="#081C23" points="97.7,210.6 97.4,206.9 96.8,206.8 97.1,210.3 		"/>
		<path fill="#081C23" d="M102.3,205.9c-0.1,0.4-1.4,0-1.3-0.3c0.1-0.4,0.5-0.6,0.8-0.5C102.1,205.2,102.4,205.5,102.3,205.9z"/>
		<polyline fill="#081C23" points="100.3,209.6 101.7,206.1 101.2,205.8 99.9,209 		"/>
		<g>
			<circle fill="#081C23" cx="120.8" cy="218.6" r="2.2"/>
			<path fill="#081C23" d="M121.6,216.6c0,0,1.7,0.1,1.7-1s-0.2-1.1,0.2-1.5C123.5,214.1,121,214.3,121.6,216.6z"/>
		</g>
	</g>
	<g>
		<ellipse fill="#081C23" cx="386.7" cy="227.9" rx="13.4" ry="15.9"/>
		<ellipse fill="#FFFFFF" cx="385.4" cy="227.9" rx="11.3" ry="14"/>
		<ellipse fill="#081C23" cx="385.4" cy="227.9" rx="2.1" ry="2.6"/>
		<ellipse fill="#FFFFFF" cx="385.4" cy="227.9" rx="1.3" ry="1.6"/>
		<path fill="#081C23" d="M385.4,225.7c0,0,1.7,1.5,1.7,2.5l5-9L385.4,225.7z"/>
		<path fill="#081C23" d="M385.4,230.2c0,0-1.8-1.4-1.8-2.5l-4.7,9.1L385.4,230.2z"/>
		<path fill="#081C23" d="M384.5,190.9c-1.9-2.4-6.5-1.7-11.6,1.4c-0.2,0.1-0.4,0.2-0.7,0.2c-0.6,0-1.2,0-1.7,0.1
			c-4.4,0.6-7.8,4.3-8.8,9c3.1-4.5,7.4-6.6,5.4-4.7c-0.6,0.5-1.2,1.2-1.9,1.9c-1.5,1.6-2.7,3.2-3.8,4.9c0,0,0,0,0,0c0,0,0,0,0,0
			c-2.9,4.6-3.9,9-2.2,11.3c1.2,1.5,3.6,1.8,6.4,1c0.4-0.1,0.7,0,1,0.2c2.1,1.6,4.6,2.4,7.2,2c4.5-0.6,8-4.5,8.9-9.5
			c0.1-0.7-0.5-1.4-1.3-1.3l-0.8,0.1c-0.4,0.1-0.8,0.4-0.9,0.8c-0.8,2.4-2.7,4.3-5,4.6c-2.9,0.4-5.6-1.6-6.8-4.5
			c-0.3-0.7,0.2-1.4,0.9-1.5l3.4-0.4l7.9-1l2.7-0.4c0-0.3,0-0.6-0.1-1c-0.1-0.5-0.2-1-0.3-1.5c-0.1-0.3,0-0.6,0.1-0.8
			C385.4,197.1,386.2,193,384.5,190.9z M361.6,212.9c-0.9-1.1-0.8-3.1,0.1-5.3c0.5,2.4,1.5,4.6,2.8,6.3
			C363.2,214,362.2,213.7,361.6,212.9z M369,203.3c-0.8,0.1-1.5-0.7-1.2-1.5c0.8-2.3,2.7-4.1,5-4.4c2.3-0.3,4.5,0.9,5.9,3
			c0.5,0.7,0,1.6-0.8,1.8L369,203.3z M377,194c-0.8-0.5-0.7-1.6,0.1-2c2.8-1.2,5.2-1.2,6.2,0.1c1,1.2,0.8,3.4-0.4,6
			c-0.4,0.8-1.5,0.9-2,0.1C379.9,196.5,378.5,195,377,194z"/>
	</g>
</g>
<g>
	<circle fill="#00AAA4" cx="193.6" cy="36" r="10.6"/>
	<circle fill="#FFFFFF" cx="193.6" cy="35" r="8.3"/>
	<path fill="#00AAA4" d="M189.7,56.7L192,46c0-0.2-0.1-0.3-0.2-0.4l-1.7-0.7l-1.7-0.7c-0.2-0.1-0.3,0-0.4,0.1l-5.8,9.2
		c-0.1,0.2-0.3,0.2-0.5,0.1l-2.3-1.2c-0.3-0.2-0.6,0.2-0.5,0.5l4.6,7.5c0.1,0.1,0.2,0.2,0.4,0.2l8.5-2.1c0.3-0.1,0.3-0.6,0-0.7
		l-2.5-0.7C189.7,57,189.6,56.9,189.7,56.7z"/>
	<path fill="#00AAA4" d="M197.6,15.3L195.3,26c0,0.2,0.1,0.3,0.2,0.4l1.7,0.7l1.7,0.7c0.2,0.1,0.3,0,0.4-0.1l5.8-9.2
		c0.1-0.2,0.3-0.2,0.5-0.1l2.3,1.2c0.3,0.2,0.6-0.2,0.5-0.5l-4.6-7.5c-0.1-0.1-0.2-0.2-0.4-0.2l-8.5,2.1c-0.3,0.1-0.3,0.6,0,0.7
		l2.5,0.7C197.5,15,197.6,15.1,197.6,15.3z"/>
	<path fill="#00AAA4" d="M173,32l10.7,2.3c0.2,0,0.3-0.1,0.4-0.2l0.7-1.7l0.7-1.7c0.1-0.2,0-0.3-0.1-0.4l-9.2-5.8
		c-0.2-0.1-0.2-0.3-0.1-0.5l1.2-2.3c0.2-0.3-0.2-0.6-0.5-0.5l-7.5,4.6c-0.1,0.1-0.2,0.2-0.2,0.4l2.1,8.5c0.1,0.3,0.6,0.3,0.7,0
		l0.7-2.5C172.6,32.1,172.8,32,173,32z"/>
	<path fill="#00AAA4" d="M214.3,39.9l-10.7-2.3c-0.2,0-0.3,0.1-0.4,0.2l-0.7,1.7l-0.7,1.7c-0.1,0.2,0,0.3,0.1,0.4l9.2,5.8
		c0.2,0.1,0.2,0.3,0.1,0.5l-1.2,2.3c-0.2,0.3,0.2,0.6,0.5,0.5l7.5-4.6c0.1-0.1,0.2-0.2,0.2-0.4l-2.1-8.5c-0.1-0.3-0.6-0.3-0.7,0
		l-0.7,2.5C214.7,39.8,214.5,39.9,214.3,39.9z"/>
</g>
<g>
	<path fill="#00AAA4" d="M259.2,12.6c0,0-13.6-2.8-15,15.8s15.8,22.2,19.1,22.4c0,0-3.6-3.6-2.8-6.2c0,0,6.4,0.1,8.2-8
		S271,15.7,259.2,12.6z"/>
	<path fill="#FFFFFF" d="M257.9,14.2c0,0-10.9-2.2-12.2,13.5c-1.4,15.7,11.7,20.6,14.3,20.7c0,0-1.3-3.3-0.7-5.5
		c0,0-4.1-0.1-7.6-4.3c3.6,2.4,6.3,4.1,9.9,3.2c2-0.5,5.1-1.8,5.6-5.3C268.4,29.5,269.2,14.8,257.9,14.2z"/>
	<path fill="#00AAA4" d="M264.2,30.7c0,0.8,0.2,2.1,0.2,2.1c-1.6,1.5-10.5-0.7-12.3-1.2c-0.2,0-0.4,0.1-0.4,0.3
		c0,5.6,4.9,6.8,6.1,6.5c1.5-0.3,2.3-1.9,1.8-2.2s-0.6,0.4-0.6,0.4c0.1,0.8-0.8,1.4-3.1,0.3c-2-0.9-2.9-2.5-3.1-3.9
		c0-0.3,0.3-0.5,0.5-0.4c4,1.7,10.2,1.2,11.5,1.1c0.1,0,0.2-0.1,0.2-0.3C265.1,33.5,264.2,29.7,264.2,30.7z"/>
	
		<ellipse transform="matrix(0.9962 8.689218e-02 -8.689218e-02 0.9962 3.1695 -22.5557)" fill="#00AAA4" cx="260.7" cy="25.1" rx="0.7" ry="1.2"/>
	
		<ellipse transform="matrix(0.9962 8.689218e-02 -8.689218e-02 0.9962 3.1772 -22.8144)" fill="#00AAA4" cx="263.7" cy="25.1" rx="0.7" ry="0.9"/>
	<path fill="#00AAA4" d="M286.4,6.7c0,0,11.1-4.7,15.6,10.9c4.4,15.6-9.6,21.7-12.4,22.4c0,0,2.4-3.7,1.3-5.8c0,0-5.4,1.2-8.4-5.4
		C279.7,22.2,276.9,11.5,286.4,6.7z"/>
	<path fill="#FFFFFF" d="M287.8,7.9c0,0,8.9-3.7,12.8,9.4s-6.4,19.6-8.7,20.1c0,0,0.6-3-0.4-4.9c0,0,3.5-0.8,5.7-5
		c-2.7,2.6-4.6,4.6-7.9,4.4c-1.8-0.1-4.6-0.7-5.7-3.6C281.5,22.8,278.2,10.3,287.8,7.9z"/>
	<path fill="#00AAA4" d="M285.3,23c0.2,0.7,0.2,1.8,0.2,1.8c1.6,1,8.8-2.4,10.3-3.1c0.1-0.1,0.3,0,0.3,0.2c1,4.8-3,6.6-4,6.6
		c-1.4,0-2.3-1.2-1.9-1.6c0.4-0.3,0.6,0.3,0.6,0.3c0,0.7,0.9,1,2.7-0.3c1.5-1.1,2.1-2.6,1.9-3.8c0-0.3-0.3-0.4-0.5-0.2
		c-3.1,2.2-8.5,2.8-9.6,2.9c-0.1,0-0.2-0.1-0.3-0.2C285,25.6,285.1,22.2,285.3,23z"/>
	
		<ellipse transform="matrix(-0.9589 0.2838 -0.2838 -0.9589 565.0097 -45.6751)" fill="#00AAA4" cx="285.8" cy="18.1" rx="0.6" ry="1"/>
	
		<ellipse transform="matrix(-0.9589 0.2838 -0.2838 -0.9589 560.1559 -44.0077)" fill="#00AAA4" cx="283.3" cy="18.6" rx="0.6" ry="0.8"/>
	<path fill="#00AAA4" d="M281.4,34c0,0,11.4,1.2,7.9,16.3s-18.1,13.6-20.7,12.9c0,0,3.7-1.9,3.8-4.2c0,0-5.1-1.5-4.5-8.4
		S271.2,33.5,281.4,34z"/>
	<path fill="#FFFFFF" d="M282,35.7c0,0,9.1,1,6.3,13.8c-2.9,12.8-14.4,13.3-16.5,12.7c0,0,1.9-2.3,1.9-4.2c0,0,3.3,0.9,7.1-1.5
		c-3.5,1-6,1.7-8.6,0c-1.5-0.9-3.5-2.7-3.1-5.6C269.8,45.1,272.9,33.2,282,35.7z"/>
	<path fill="#00AAA4" d="M272.9,47.1c-0.2,0.7-0.7,1.6-0.7,1.6c0.9,1.6,8.5,2.1,10,2.2c0.1,0,0.3,0.2,0.2,0.3
		c-1.4,4.4-5.6,4.1-6.4,3.7c-1.1-0.6-1.3-2.1-0.9-2.2c0.4-0.1,0.4,0.5,0.4,0.5c-0.3,0.6,0.3,1.3,2.3,1c1.8-0.2,2.9-1.2,3.4-2.3
		c0.1-0.2-0.1-0.5-0.3-0.4c-3.6,0.4-8.4-1.6-9.3-2c-0.1,0-0.2-0.2-0.1-0.3C271.5,49.1,273.1,46.3,272.9,47.1z"/>
	
		<ellipse transform="matrix(-0.9757 -0.2189 0.2189 -0.9757 537.8549 146.7124)" fill="#00AAA4" cx="277.1" cy="43.6" rx="0.6" ry="1"/>
	
		<ellipse transform="matrix(-0.9757 -0.2189 0.2189 -0.9757 533.3997 144.6594)" fill="#00AAA4" cx="274.7" cy="42.8" rx="0.6" ry="0.7"/>
</g>
<g>
	<path fill="#00AAA4" d="M115.8,11.9c0,0,6-0.2,6.9,4.8s4.2,14.7-3.5,18.5s-18.4,4.3-21.2,2.9c0,0,0.6,4.5,2.2,6.5
		c1.6,2-9.1-3.2-11.3-9.4c-2-5.8-3.1-10.2,1.2-14.7C94.2,16,106,13,115.8,11.9z"/>
	<path fill="#FFFFFF" d="M115.1,13.9c0,0,5.1-0.2,5.8,4s3.5,12.5-3,15.6c-6.6,3.1-18.6,3.7-21,2.5c0,0-0.3,2,0.6,5
		c0.7,2-5.9-2.8-7.6-7.7c-2-5.8-1.6-8.3,2-12C95.6,17.6,103.9,15.4,115.1,13.9z"/>
	<path fill="#00AAA4" d="M112.4,27.1c0,0-6,0.6-6.1,5.7c-0.2,5.1-2.2,15.2,6,17.8s18.8,1.8,21.4,0.1c0,0,0.4,4.8-1.3,6.7
		c-1.6,1.9,8.1-5,9.9-10.8s1.7-10.5-3.1-14.4C134.3,28.2,122.2,26.9,112.4,27.1z"/>
	<path fill="#FFFFFF" d="M114.4,28.5c0,0-5.1,0.5-5.2,4.8c-0.2,4.3-1.8,12.9,5.1,15.1c6.9,2.2,17.8,1.5,20,0c0,0,1.2,1.9,0.6,5
		c-0.4,2.1,4.8-3.9,5.8-9c1.2-6,0.6-9.2-4-11.5C132.2,30.5,125.7,29,114.4,28.5z"/>
</g>
<g>
	<path fill="#00AAA4" d="M54.5,48.8c-6.4,1.2-31.7,6.7-38.1,7.9c-0.6,0.1-1.2-0.3-1.4-0.9C12.9,45,10.3,34.5,7.4,23.9
		c-0.2-0.6,0.2-1.3,0.8-1.4c6.3-1.8,31.4-7.9,37.7-9.7c0.6-0.2,1.3,0.2,1.5,0.9c3.1,11.2,5.8,22.4,8.1,33.8
		C55.6,48,55.1,48.7,54.5,48.8z"/>
	<path fill="#FFFFFF" d="M49.5,41.8c-5.7,1.2-27.4,6-33.1,7.2c-0.5,0.1-0.6-0.9-0.7-1.4c-1.7-7.9-3.9-15-6.1-22.8
		c-0.1-0.5,0.1-0.9,0.6-1.1c5.5-1.6,27.2-6.7,32.8-8.3c0.5-0.1,0.9,0.1,1.1,0.6c2.3,8.1,4.3,16.3,6.1,24.6
		C50.3,41.2,50,41.7,49.5,41.8z"/>
	<path fill="#FFFFFF" d="M48.1,17.7c0,0.1-0.1,0.3-0.4,0.4l0,0c-0.3,0.1-0.5,0-0.5-0.1L46.4,15c0-0.1,0.1-0.3,0.4-0.4l0,0
		c0.3-0.1,0.5,0,0.5,0.1L48.1,17.7z"/>
	<path fill="#FFFFFF" d="M35.4,17.1c-0.2,0-0.4-0.1-0.4-0.3s0.1-0.4,0.3-0.4"/>
	<path fill="#00AAA4" d="M58.2,59.3c-5.1-1.2-10.3-2.5-15.4-3.7c-0.5-0.1-0.8-0.6-0.7-1.1c2-8.7,3.6-17.4,5-26.2
		c0.1-0.5,0.6-0.9,1.1-0.8c5.2,0.7,10.5,1.5,15.7,2.2c0.5,0.1,0.9,0.6,0.8,1.1c-1.4,9.3-3.2,18.5-5.3,27.7
		C59.2,59,58.7,59.4,58.2,59.3z"/>
	<path fill="#FFFFFF" d="M56.8,52.4c-4.6-1-6.9-1.5-11.5-2.5c-0.4-0.1-0.2-0.9-0.1-1.2c1.4-6.4,2.1-12.5,3.1-18.9
		c0.1-0.4,0.4-0.6,0.8-0.6c4.7,0.7,7,1,11.6,1.6c0.4,0.1,0.6,0.4,0.6,0.8c-1,6.8-2.3,13.6-3.7,20.3C57.6,52.2,57.2,52.5,56.8,52.4z"
		/>
	<path fill="#FFFFFF" d="M51.9,54.1c-0.2,1.1-1.3,1.8-2.4,1.5c-1-0.2-1.7-1.3-1.5-2.4c0.2-1.1,1.3-1.8,2.3-1.5
		C51.5,51.9,52.2,53,51.9,54.1z"/>
	<path fill="#FFFFFF" d="M54.8,29.5c0,0.1-0.2,0.2-0.4,0.1l0,0c-0.2,0-0.4-0.2-0.3-0.3l0.4-2.4c0-0.1,0.2-0.2,0.4-0.1l0,0
		c0.2,0,0.4,0.2,0.3,0.3L54.8,29.5z"/>
	<ellipse transform="matrix(0.975 0.2223 -0.2223 0.975 7.8371 -11.4212)" fill="#FFFFFF" cx="54.7" cy="29.1" rx="0.3" ry="0.3"/>
	<path fill="#00AAA4" d="M28.6,37.6l6.4-1.5c0,0,0.3-4.8-3-4S28.1,35.6,28.6,37.6z"/>
	<path fill="#00AAA4" d="M30,30.1c0.1,0.4-1.3,0.7-1.3,0.3c-0.1-0.4,0.1-0.7,0.5-0.8S29.9,29.7,30,30.1z"/>
	<polyline fill="#00AAA4" points="29.9,34.2 29.6,30.5 29,30.4 29.3,33.9 	"/>
	<path fill="#00AAA4" d="M34.5,29.5c-0.1,0.4-1.4,0-1.3-0.3c0.1-0.4,0.5-0.6,0.8-0.5C34.3,28.8,34.5,29.2,34.5,29.5z"/>
	<polyline fill="#00AAA4" points="32.4,33.2 33.9,29.8 33.4,29.4 32.1,32.7 	"/>
	<circle fill="#00AAA4" cx="53" cy="42.3" r="2.2"/>
	<path fill="#00AAA4" d="M53.8,40.2c0,0,1.7,0.1,1.7-1s-0.2-1.1,0.2-1.5C55.7,37.7,53.1,37.9,53.8,40.2z"/>
</g>
<g>
	<ellipse fill="#00AAA4" cx="359.5" cy="46.1" rx="13.4" ry="15.9"/>
	<ellipse fill="#FFFFFF" cx="358.2" cy="46.1" rx="11.3" ry="14"/>
	<ellipse fill="#00AAA4" cx="358.2" cy="46.1" rx="2.1" ry="2.6"/>
	<ellipse fill="#FFFFFF" cx="358.2" cy="46.1" rx="1.3" ry="1.6"/>
	<path fill="#00AAA4" d="M358.2,43.9c0,0,1.7,1.5,1.7,2.5l5-9L358.2,43.9z"/>
	<path fill="#00AAA4" d="M358.2,48.4c0,0-1.8-1.4-1.8-2.5l-4.7,9.1L358.2,48.4z"/>
	<path fill="#00AAA4" d="M357.3,9.1c-1.9-2.4-6.5-1.7-11.6,1.4c-0.2,0.1-0.4,0.2-0.7,0.2c-0.6,0-1.2,0-1.7,0.1
		c-4.4,0.6-7.8,4.3-8.8,9c3.1-4.5,7.4-6.6,5.4-4.7c-0.6,0.5-1.2,1.2-1.9,1.9c-1.5,1.6-2.7,3.2-3.8,4.9c0,0,0,0,0,0c0,0,0,0,0,0
		c-2.9,4.6-3.9,9-2.2,11.3c1.2,1.5,3.6,1.8,6.4,1c0.4-0.1,0.7,0,1,0.2c2.1,1.6,4.6,2.4,7.2,2c4.5-0.6,8-4.5,8.9-9.5
		c0.1-0.7-0.5-1.4-1.3-1.3l-0.8,0.1c-0.4,0.1-0.8,0.4-0.9,0.8c-0.8,2.4-2.7,4.3-5,4.6c-2.9,0.4-5.6-1.6-6.8-4.5
		c-0.3-0.7,0.2-1.4,0.9-1.5l3.4-0.4l7.9-1l2.7-0.4c0-0.3,0-0.6-0.1-1c-0.1-0.5-0.2-1-0.3-1.5c-0.1-0.3,0-0.6,0.1-0.8
		C358.2,15.3,359,11.2,357.3,9.1z M334.4,31.1c-0.9-1.1-0.8-3,0.1-5.3c0.5,2.4,1.5,4.6,2.8,6.3C336,32.2,335,31.9,334.4,31.1z
		 M341.8,21.5c-0.8,0.1-1.5-0.7-1.2-1.5c0.8-2.3,2.7-4.1,5-4.4c2.3-0.3,4.5,0.9,5.9,3c0.5,0.7,0,1.6-0.8,1.8L341.8,21.5z
		 M349.8,12.2c-0.8-0.5-0.7-1.6,0.1-2c2.8-1.2,5.2-1.2,6.2,0.1c1,1.2,0.8,3.4-0.4,6c-0.4,0.8-1.5,0.9-2,0.1
		C352.7,14.7,351.4,13.2,349.8,12.2z"/>
</g>
</svg>
