<?xml version="1.0" encoding="utf-8"?>
<!-- Generator: Adobe Illustrator 18.0.0, SVG Export Plug-In . SVG Version: 6.00 Build 0)  -->
<svg version="1.2" baseProfile="tiny" id="Layer_1" xmlns="http://www.w3.org/2000/svg" xmlns:xlink="http://www.w3.org/1999/xlink"
	 x="0px" y="0px" viewBox="0 0 72 72" xml:space="preserve">
<g>
	<path fill="#00AAA4" d="M54.5,48.8c-6.4,1.2-31.7,6.7-38.1,7.9c-0.6,0.1-1.2-0.3-1.4-0.9C12.9,45,10.3,34.5,7.4,23.9
		c-0.2-0.6,0.2-1.3,0.8-1.4c6.3-1.8,31.4-7.9,37.7-9.7c0.6-0.2,1.3,0.2,1.5,0.9c3.1,11.2,5.8,22.4,8.1,33.8
		C55.6,48,55.1,48.7,54.5,48.8z"/>
	<path fill="#FFFFFF" d="M49.5,41.8c-5.7,1.2-27.4,6-33.1,7.2c-0.5,0.1-0.6-0.9-0.7-1.4c-1.7-7.9-3.9-15-6.1-22.8
		c-0.1-0.5,0.1-0.9,0.6-1.1c5.5-1.6,27.2-6.7,32.8-8.3c0.5-0.1,0.9,0.1,1.1,0.6c2.3,8.1,4.3,16.3,6.1,24.6
		C50.3,41.2,50,41.7,49.5,41.8z"/>
	<path fill="#FFFFFF" d="M48.1,17.7c0,0.1-0.1,0.3-0.4,0.4l0,0c-0.3,0.1-0.5,0-0.5-0.1L46.4,15c0-0.1,0.1-0.3,0.4-0.4l0,0
		c0.3-0.1,0.5,0,0.5,0.1L48.1,17.7z"/>
	<path fill="#FFFFFF" d="M35.4,17.1c-0.2,0-0.4-0.1-0.4-0.3s0.1-0.4,0.3-0.4"/>
	<path fill="#00AAA4" d="M58.2,59.3c-5.1-1.2-10.3-2.5-15.4-3.7c-0.5-0.1-0.8-0.6-0.7-1.1c2-8.7,3.6-17.4,5-26.2
		c0.1-0.5,0.6-0.9,1.1-0.8c5.2,0.7,10.5,1.5,15.7,2.2c0.5,0.1,0.9,0.6,0.8,1.1c-1.4,9.3-3.2,18.5-5.3,27.7
		C59.2,59,58.7,59.4,58.2,59.3z"/>
	<path fill="#FFFFFF" d="M56.8,52.4c-4.6-1-6.9-1.5-11.5-2.5c-0.4-0.1-0.2-0.9-0.1-1.2c1.4-6.4,2.1-12.5,3.1-18.9
		c0.1-0.4,0.4-0.6,0.8-0.6c4.7,0.7,7,1,11.6,1.6c0.4,0.1,0.6,0.4,0.6,0.8c-1,6.8-2.3,13.6-3.7,20.3C57.6,52.2,57.2,52.5,56.8,52.4z"
		/>
	<path fill="#FFFFFF" d="M51.9,54.1c-0.2,1.1-1.3,1.8-2.4,1.5c-1-0.2-1.7-1.3-1.5-2.4c0.2-1.1,1.3-1.8,2.3-1.5
		C51.5,51.9,52.2,53,51.9,54.1z"/>
	<path fill="#FFFFFF" d="M54.8,29.5c0,0.1-0.2,0.2-0.4,0.1l0,0c-0.2,0-0.4-0.2-0.3-0.3l0.4-2.4c0-0.1,0.2-0.2,0.4-0.1l0,0
		c0.2,0,0.4,0.2,0.3,0.3L54.8,29.5z"/>
	<ellipse transform="matrix(0.975 0.2223 -0.2223 0.975 7.8371 -11.4212)" fill="#FFFFFF" cx="54.7" cy="29.1" rx="0.3" ry="0.3"/>
	<path fill="#00AAA4" d="M28.6,37.6l6.4-1.5c0,0,0.3-4.8-3-4S28.1,35.6,28.6,37.6z"/>
	<path fill="#00AAA4" d="M30,30.1c0.1,0.4-1.3,0.7-1.3,0.3c-0.1-0.4,0.1-0.7,0.5-0.8S29.9,29.7,30,30.1z"/>
	<polyline fill="#00AAA4" points="29.9,34.2 29.6,30.5 29,30.4 29.3,33.9 	"/>
	<path fill="#00AAA4" d="M34.5,29.5c-0.1,0.4-1.4,0-1.3-0.3c0.1-0.4,0.5-0.6,0.8-0.5C34.3,28.8,34.5,29.2,34.5,29.5z"/>
	<polyline fill="#00AAA4" points="32.4,33.2 33.9,29.8 33.4,29.4 32.1,32.7 	"/>
	<circle fill="#00AAA4" cx="53" cy="42.3" r="2.2"/>
	<path fill="#00AAA4" d="M53.8,40.2c0,0,1.7,0.1,1.7-1s-0.2-1.1,0.2-1.5C55.7,37.7,53.1,37.9,53.8,40.2z"/>
</g>
</svg>
