<?xml version="1.0" encoding="utf-8"?>
<!-- Generator: Adobe Illustrator 18.0.0, SVG Export Plug-In . SVG Version: 6.00 Build 0)  -->
<svg version="1.2" baseProfile="tiny" id="Layer_1" xmlns="http://www.w3.org/2000/svg" xmlns:xlink="http://www.w3.org/1999/xlink"
	 x="0px" y="0px" viewBox="0 0 72 72" xml:space="preserve">
<g>
	<ellipse fill="#00AAA4" cx="43.5" cy="47.3" rx="13.4" ry="15.9"/>
	<ellipse fill="#FFFFFF" cx="42.1" cy="47.3" rx="11.3" ry="14"/>
	<ellipse fill="#00AAA4" cx="42.2" cy="47.3" rx="2.1" ry="2.6"/>
	<ellipse fill="#FFFFFF" cx="42.2" cy="47.3" rx="1.3" ry="1.6"/>
	<path fill="#00AAA4" d="M42.2,45.1c0,0,1.7,1.5,1.7,2.5l5-9L42.2,45.1z"/>
	<path fill="#00AAA4" d="M42.2,49.6c0,0-1.8-1.4-1.8-2.5l-4.7,9.1L42.2,49.6z"/>
	<path fill="#00AAA4" d="M41.3,10.3c-1.9-2.4-6.5-1.7-11.6,1.4c-0.2,0.1-0.4,0.2-0.7,0.2c-0.6,0-1.2,0-1.7,0.1
		c-4.4,0.6-7.8,4.3-8.8,9c3.1-4.5,7.4-6.6,5.4-4.7c-0.6,0.5-1.2,1.2-1.9,1.9c-1.5,1.6-2.7,3.2-3.8,4.9c0,0,0,0,0,0c0,0,0,0,0,0
		c-2.9,4.6-3.9,9-2.2,11.3c1.2,1.5,3.6,1.8,6.4,1c0.4-0.1,0.7,0,1,0.2c2.1,1.6,4.6,2.4,7.2,2c4.5-0.6,8-4.5,8.9-9.5
		c0.1-0.7-0.5-1.4-1.3-1.3l-0.8,0.1c-0.4,0.1-0.8,0.4-0.9,0.8c-0.8,2.4-2.7,4.3-5,4.6c-2.9,0.4-5.6-1.6-6.8-4.5
		c-0.3-0.7,0.2-1.4,0.9-1.5l3.4-0.4l7.9-1l2.7-0.4c0-0.3,0-0.6-0.1-1c-0.1-0.5-0.2-1-0.3-1.5c-0.1-0.3,0-0.6,0.1-0.8
		C42.1,16.5,43,12.4,41.3,10.3z M18.4,32.3c-0.9-1.1-0.8-3,0.1-5.3c0.5,2.4,1.5,4.6,2.8,6.3C20,33.4,19,33.1,18.4,32.3z M25.8,22.7
		c-0.8,0.1-1.5-0.7-1.2-1.5c0.8-2.3,2.7-4.1,5-4.4s4.5,0.9,5.9,3c0.5,0.7,0,1.6-0.8,1.8L25.8,22.7z M33.7,13.4
		c-0.8-0.5-0.7-1.6,0.1-2c2.8-1.2,5.2-1.2,6.2,0.1c1,1.2,0.8,3.4-0.4,6c-0.4,0.8-1.5,0.9-2,0.1C36.7,15.9,35.3,14.4,33.7,13.4z"/>
</g>
</svg>
