<?xml version="1.0" encoding="utf-8"?>
<!-- Generator: Adobe Illustrator 21.1.0, SVG Export Plug-In . SVG Version: 6.00 Build 0)  -->
<svg version="1.1" id="Layer_1" xmlns="http://www.w3.org/2000/svg" xmlns:xlink="http://www.w3.org/1999/xlink" x="0px" y="0px"
	 viewBox="0 0 768 298.7" style="enable-background:new 0 0 768 298.7;" xml:space="preserve">
<style type="text/css">
	.st0{fill:#00AAA4;}
	.st1{font-family:'SourceSansPro-Light';}
	.st2{font-size:18px;}
	.st3{fill:#FFFFFF;}
	.st4{font-family:'SourceSansPro-Regular';}
	.st5{font-size:13.4007px;}
	.st6{fill:#00807B;}
	.st7{opacity:0.47;fill:#00605C;enable-background:new    ;}
	.st8{opacity:0.47;fill:#00807B;enable-background:new    ;}
	.st9{fill:#66CCC8;}
	.st10{font-family:'SourceSansPro-Bold';}
	.st11{font-size:8.9059px;}
	.st12{font-size:7.3048px;}
	.st13{fill:none;stroke:#00AAA4;stroke-miterlimit:10;}
	.st14{fill:#FFFFFF;stroke:#000000;stroke-miterlimit:10;}
	.st15{fill:#E2E2E2;}
	.st16{opacity:0.3;enable-background:new    ;}
</style>
<text transform="matrix(1 0 0 1 458.4872 24.949)" class="st0 st1 st2">Temasys Platform</text>
<g>
	<path d="M749.6,75.7H459.1c-0.3,0-0.6-0.3-0.6-0.6V43c0-0.3,0.3-0.6,0.6-0.6h290.5c0.3,0,0.6,0.3,0.6,0.6v32.2
		C750.2,75.5,749.9,75.7,749.6,75.7z"/>
	<text transform="matrix(1 0 0 1 551.4359 61.655)" class="st3 st4 st5">Signaling</text>
	<g>
		<g>
			<path class="st6" d="M532.6,52.3c-0.4-0.3-1,0.2-0.8,0.7c0.3,1,0.6,2.2,0.8,3.4c0.2,1.3,0.4,2.5,0.5,3.6c0,0.5,0.6,0.7,1,0.3
				l3.8-4.2c0.2-0.3,0.2-0.7-0.1-0.9L532.6,52.3z"/>
			<path class="st7" d="M533.6,56.3l1.1,0.7c0.3,0.2,0.4,0.6,0.2,0.9L534,59c-0.3,0.4-0.9,0.2-1-0.3s-0.2-1.1-0.3-1.7
				C532.6,56.4,533.1,56,533.6,56.3z"/>
			<path class="st0" d="M525.1,50.4c-0.4-0.3-1,0.2-0.8,0.6c0.6,2.1,1.1,4.3,1.6,6.8c0.4,2.2,0.7,4.3,0.9,6.2c0,0.5,0.7,0.7,1,0.3
				l7-7.7c0.2-0.3,0.2-0.7-0.1-0.9L525.1,50.4z"/>
			<path class="st8" d="M526.8,56.7l2.3,1.3c0.3,0.2,0.4,0.6,0.2,0.9l-1.8,2.1c-0.3,0.4-0.9,0.2-1-0.3c-0.1-1-0.3-2.4-0.5-3.5
				C525.8,56.8,526.3,56.5,526.8,56.7z"/>
			<path class="st9" d="M521.9,53.2c-0.4-0.2-1,0.2-0.8,0.6c0.4,1.3,0.7,2.8,1,4.3c0.4,1.8,0.6,3.5,0.8,5.1c0,0.5,0.7,0.7,1,0.3
				l5-5.6c0.2-0.3,0.2-0.7-0.1-0.9L521.9,53.2z"/>
			<path class="st0" d="M526.7,55.5"/>
		</g>
		<path id="Skylink_6_" class="st3" d="M488.4,58.8c-0.2,0.6-1.1,0.6-1.3,0l-1.5-3.8c-0.2-0.4-0.6-0.7-1-0.7h-2.2
			c-0.1,0-0.3,0-0.3,0.1l-2.9,3.3c0,0-0.3,0.3-0.3,0.2c0-0.2,0-0.5,0-0.5v-2.7c0-0.2-0.4-0.4-0.7-0.4h-1.3c-0.2,0-0.3,0.1-0.3,0.4
			v7.9c0,0.2,0,0.5,0.2,0.5h1.6c0.4,0,0.4-0.3,0.4-0.5v-0.7c0-0.4-0.1-1.2,0-1.3l0.9-1.1c0.2-0.2,0.5-0.2,0.6,0.1l2,3.2
			c0.1,0.1,0.2,0.3,0.3,0.3h1.4c0.3,0,0.5-0.4,0.4-0.7l-3-4.4c-0.1-0.1-0.1-0.3,0-0.5l1.3-1.5l0.1-0.2c0.2-0.2,0.6-0.4,0.8,0
			l2.9,6.8c0,0.1,0,0.2,0,0.3l-0.1,0.4c-0.3,0.9-0.9,1.5-1.9,1.5c-0.1,0-0.2,0-0.3,0c-0.2,0-0.4,0.1-0.5,0.3l-0.2,0.9
			c-0.1,0.2,0.1,0.4,0.3,0.5c0.2,0,0.5,0.1,0.8,0.1c2.1,0,3.1-1.2,3.9-3.2l3.3-8.6c0.1-0.3-0.1-0.4-0.4-0.4h-1.3
			c-0.2,0-0.3,0-0.4,0.2l-0.2,0.5L488.4,58.8z M498.1,61.9c0-0.3-0.2-0.4-0.5-0.4c-3.1,0-3.3,0-3.3-0.8v-6c0-0.2,0-0.3-0.2-0.3h-1.4
			c-0.2,0-0.4,0.1-0.4,0.3v7c0,1.7-0.1,1.5,2.2,1.5c0.3,0,3,0,3.2,0s0.4-0.2,0.4-0.4L498.1,61.9L498.1,61.9z M473.2,56.6l-1.7-0.7
			c-1-0.4-2-0.7-2-1.7c0-0.9,0.8-1.4,2-1.4c0.9,0,1.7,0.3,2.4,0.8c0.2,0.1,0.4,0.1,0.6-0.1l0.7-0.7c0.1-0.2,0.1-0.4-0.1-0.5
			c-1-0.8-2.3-1.2-3.6-1.2c-2.5,0-4.4,1.4-4.4,3.3c0,1.7,1.4,2.6,2.7,3.1l1.7,0.7c1.2,0.4,1.9,0.8,1.9,1.7s-0.7,1.5-2.1,1.5
			c-0.9,0-1.8-0.3-2.6-0.8c-0.4-0.2-1-0.2-1.3,0.2l0,0c-0.4,0.4-0.3,1.1,0.2,1.4c1.1,0.7,2.4,1.1,3.7,1.1c2.9,0,4.6-1.6,4.6-3.5
			C475.8,58,474.7,57.1,473.2,56.6z M518.5,62.5l-3-4.4c-0.1-0.1-0.1-0.3,0-0.5L518,55c0.2-0.3,0-0.5-0.3-0.5h-1.3
			c-0.1,0-0.3,0-0.3,0.1l-3.4,3.9l0,0v-4c0-0.2-0.1-0.4-0.5-0.5h-1.8c-0.6,0-0.5,0-0.3,0.4c0.3,0.5,0.3,1.4,0.3,1.9V63
			c0,0.3,0.3,0.2,0.3,0.2h1.6c0.4,0,0.4,0,0.5-0.5v-1.5c0-0.2,0.1-0.5,0.3-0.7l0.3-0.3c0.4-0.5,1.2-0.4,1.6,0.2l1.6,2.6
			c0.1,0.1,0.2,0.3,0.4,0.3h1.4C518.5,63.1,518.7,62.7,518.5,62.5z M500.6,54.7c0-0.2-0.3-0.3-0.5-0.3h-1.3c-0.2,0-0.2,0.1-0.2,0.3
			v8.2c0,0.2,0,0.2,0.2,0.2h1.3c0.4,0,0.5-0.1,0.5-0.4V54.7z M503.6,55l-0.1-0.5c0-0.2-0.2-0.1-0.4-0.1h-1.2c-0.2,0-0.4,0-0.4,0.2
			v8.2c0,0.4-0.1,0.4,0.4,0.4h1.5c0.2,0,0.4-0.3,0.4-0.5v-5.3c0-0.3,0.1-0.5,0.3-0.7c0.6-0.6,1.1-0.9,1.8-0.9c1,0,1.4,0.5,1.4,2v4.9
			c0,0.2,0.1,0.5,0.6,0.5h1.4c0.2,0,0.1-0.3,0.1-0.5v-5.1c0-2.2-0.7-3.6-2.8-3.6c-1.3,0-2.1,0.8-2.9,1.2
			C503.6,55.2,503.6,55,503.6,55L503.6,55z"/>
	</g>
</g>
<g>
	<path d="M420.3,96.8H267.1c-0.3,0-0.6-0.3-0.6-0.6V43c0-0.3,0.3-0.6,0.6-0.6h153.2c0.3,0,0.6,0.3,0.6,0.6v53.2
		C420.8,96.5,420.6,96.8,420.3,96.8z"/>
	<text transform="matrix(1 0 0 1 272.769 82.7954)" class="st3 st4 st5">JavaScript SDK</text>
	<g>
		<path id="Skylink_7_" class="st3" d="M296.4,58.8c-0.2,0.6-1.1,0.6-1.3,0l-1.5-3.8c-0.2-0.4-0.6-0.7-1-0.7h-2.2
			c-0.1,0-0.3,0-0.3,0.1l-2.9,3.3c0,0-0.3,0.3-0.3,0.2c0-0.2,0-0.5,0-0.5v-2.7c0-0.2-0.4-0.4-0.7-0.4h-1.3c-0.2,0-0.3,0.1-0.3,0.4
			v7.9c0,0.2,0,0.5,0.2,0.5h1.6c0.4,0,0.4-0.3,0.4-0.5v-0.7c0-0.4-0.1-1.2,0-1.3l0.9-1.1c0.2-0.2,0.5-0.2,0.6,0.1l2,3.2
			c0.1,0.1,0.2,0.3,0.3,0.3h1.4c0.3,0,0.5-0.4,0.4-0.7l-3-4.4c-0.1-0.1-0.1-0.3,0-0.5l1.3-1.5l0.1-0.2c0.2-0.2,0.6-0.4,0.8,0
			l2.9,6.8c0,0.1,0,0.2,0,0.3l-0.1,0.4c-0.3,0.9-0.9,1.5-1.9,1.5c-0.1,0-0.2,0-0.3,0c-0.2,0-0.4,0.1-0.5,0.3l-0.2,0.9
			c-0.1,0.2,0.1,0.4,0.3,0.5c0.2,0,0.5,0.1,0.8,0.1c2.1,0,3.1-1.2,3.9-3.2l3.3-8.6c0.1-0.3-0.1-0.4-0.4-0.4h-1.3
			c-0.2,0-0.3,0-0.4,0.2l-0.2,0.5L296.4,58.8z M306.1,61.9c0-0.3-0.2-0.4-0.5-0.4c-3.1,0-3.3,0-3.3-0.8v-6c0-0.2,0-0.3-0.2-0.3h-1.4
			c-0.2,0-0.4,0.1-0.4,0.3v7c0,1.7-0.1,1.5,2.2,1.5c0.3,0,3,0,3.2,0s0.4-0.2,0.4-0.4L306.1,61.9L306.1,61.9z M281.2,56.6l-1.7-0.7
			c-1-0.4-2-0.7-2-1.7c0-0.9,0.8-1.4,2-1.4c0.9,0,1.7,0.3,2.4,0.8c0.2,0.1,0.4,0.1,0.6-0.1l0.7-0.7c0.1-0.2,0.1-0.4-0.1-0.5
			c-1-0.8-2.3-1.2-3.6-1.2c-2.5,0-4.4,1.4-4.4,3.3c0,1.7,1.4,2.6,2.7,3.1l1.7,0.7c1.2,0.4,1.9,0.8,1.9,1.7s-0.7,1.5-2.1,1.5
			c-0.9,0-1.8-0.3-2.6-0.8c-0.4-0.2-1-0.2-1.3,0.2l0,0c-0.4,0.4-0.3,1.1,0.2,1.4c1.1,0.7,2.4,1.1,3.7,1.1c2.9,0,4.6-1.6,4.6-3.5
			C283.8,58,282.7,57.1,281.2,56.6z M326.5,62.5l-3-4.4c-0.1-0.1-0.1-0.3,0-0.5L326,55c0.2-0.3,0-0.5-0.3-0.5h-1.3
			c-0.1,0-0.3,0-0.3,0.1l-3.4,3.9l0,0v-4c0-0.2-0.1-0.4-0.5-0.5h-1.8c-0.6,0-0.5,0-0.3,0.4c0.3,0.5,0.3,1.4,0.3,1.9V63
			c0,0.3,0.3,0.2,0.3,0.2h1.6c0.4,0,0.4,0,0.5-0.5v-1.5c0-0.2,0.1-0.5,0.3-0.7l0.3-0.3c0.4-0.5,1.2-0.4,1.6,0.2l1.6,2.6
			c0.1,0.1,0.2,0.3,0.4,0.3h1.4C326.5,63.1,326.7,62.7,326.5,62.5z M308.6,54.7c0-0.2-0.3-0.3-0.5-0.3h-1.3c-0.2,0-0.2,0.1-0.2,0.3
			v8.2c0,0.2,0,0.2,0.2,0.2h1.3c0.4,0,0.5-0.1,0.5-0.4V54.7z M311.6,55l-0.1-0.5c0-0.2-0.2-0.1-0.4-0.1h-1.2c-0.2,0-0.4,0-0.4,0.2
			v8.2c0,0.4-0.1,0.4,0.4,0.4h1.5c0.2,0,0.4-0.3,0.4-0.5v-5.3c0-0.3,0.1-0.5,0.3-0.7c0.6-0.6,1.1-0.9,1.8-0.9c1,0,1.4,0.5,1.4,2v4.9
			c0,0.2,0.1,0.5,0.6,0.5h1.4c0.2,0,0.1-0.3,0.1-0.5v-5.1c0-2.2-0.7-3.6-2.8-3.6c-1.3,0-2.1,0.8-2.9,1.2
			C311.6,55.2,311.6,55,311.6,55L311.6,55z"/>
		<text transform="matrix(1 0 0 1 327.0833 57.1237)" class="st3 st10 st11">JS</text>
	</g>
</g>
<g>
	<path d="M420.3,156.5H267.1c-0.3,0-0.6-0.3-0.6-0.6v-53.2c0-0.3,0.3-0.6,0.6-0.6h153.2c0.3,0,0.6,0.3,0.6,0.6v53.2
		C420.8,156.2,420.6,156.5,420.3,156.5z"/>
	<text transform="matrix(1 0 0 1 272.769 142.5125)" class="st3 st4 st5">SDK for iOS Devices</text>
	<g>
		<path id="Skylink_8_" class="st3" d="M296.4,118.5c-0.2,0.6-1.1,0.6-1.3,0l-1.5-3.8c-0.2-0.4-0.6-0.7-1-0.7h-2.2
			c-0.1,0-0.3,0-0.3,0.1l-2.9,3.3c0,0-0.3,0.3-0.3,0.2c0-0.2,0-0.5,0-0.5v-2.7c0-0.2-0.4-0.4-0.7-0.4h-1.3c-0.2,0-0.3,0.1-0.3,0.4
			v7.9c0,0.2,0,0.5,0.2,0.5h1.6c0.4,0,0.4-0.3,0.4-0.5v-0.7c0-0.4-0.1-1.2,0-1.3l0.9-1.1c0.2-0.2,0.5-0.2,0.6,0.1l2,3.2
			c0.1,0.1,0.2,0.3,0.3,0.3h1.4c0.3,0,0.5-0.4,0.4-0.7l-3-4.4c-0.1-0.1-0.1-0.3,0-0.5l1.3-1.5l0.1-0.2c0.2-0.2,0.6-0.4,0.8,0
			l2.9,6.8c0,0.1,0,0.2,0,0.3l-0.1,0.4c-0.3,0.9-0.9,1.5-1.9,1.5c-0.1,0-0.2,0-0.3,0c-0.2,0-0.4,0.1-0.5,0.3l-0.2,0.9
			c-0.1,0.2,0.1,0.4,0.3,0.5c0.2,0,0.5,0.1,0.8,0.1c2.1,0,3.1-1.2,3.9-3.2l3.3-8.6c0.1-0.3-0.1-0.4-0.4-0.4h-1.3
			c-0.2,0-0.3,0-0.4,0.2l-0.2,0.5L296.4,118.5z M306.1,121.6c0-0.3-0.2-0.4-0.5-0.4c-3.1,0-3.3,0-3.3-0.8v-6c0-0.2,0-0.3-0.2-0.3
			h-1.4c-0.2,0-0.4,0.1-0.4,0.3v7c0,1.7-0.1,1.5,2.2,1.5c0.3,0,3,0,3.2,0s0.4-0.2,0.4-0.4L306.1,121.6L306.1,121.6z M281.2,116.3
			l-1.7-0.7c-1-0.4-2-0.7-2-1.7c0-0.9,0.8-1.4,2-1.4c0.9,0,1.7,0.3,2.4,0.8c0.2,0.1,0.4,0.1,0.6-0.1l0.7-0.7
			c0.1-0.2,0.1-0.4-0.1-0.5c-1-0.8-2.3-1.2-3.6-1.2c-2.5,0-4.4,1.4-4.4,3.3c0,1.7,1.4,2.6,2.7,3.1l1.7,0.7c1.2,0.4,1.9,0.8,1.9,1.7
			c0,0.9-0.7,1.5-2.1,1.5c-0.9,0-1.8-0.3-2.6-0.8c-0.4-0.2-1-0.2-1.3,0.2l0,0c-0.4,0.4-0.3,1.1,0.2,1.4c1.1,0.7,2.4,1.1,3.7,1.1
			c2.9,0,4.6-1.6,4.6-3.5C283.8,117.7,282.7,116.9,281.2,116.3z M326.5,122.2l-3-4.4c-0.1-0.1-0.1-0.3,0-0.5l2.5-2.6
			c0.2-0.3,0-0.5-0.3-0.5h-1.3c-0.1,0-0.3,0-0.3,0.1l-3.4,3.9l0,0v-4c0-0.2-0.1-0.4-0.5-0.5h-1.8c-0.6,0-0.5,0-0.3,0.4
			c0.3,0.5,0.3,1.4,0.3,1.9v6.7c0,0.3,0.3,0.2,0.3,0.2h1.6c0.4,0,0.4,0,0.5-0.5v-1.5c0-0.2,0.1-0.5,0.3-0.7l0.3-0.3
			c0.4-0.5,1.2-0.4,1.6,0.2l1.6,2.6c0.1,0.1,0.2,0.3,0.4,0.3h1.4C326.5,122.8,326.7,122.4,326.5,122.2z M308.6,114.4
			c0-0.2-0.3-0.3-0.5-0.3h-1.3c-0.2,0-0.2,0.1-0.2,0.3v8.2c0,0.2,0,0.2,0.2,0.2h1.3c0.4,0,0.5-0.1,0.5-0.4V114.4z M311.6,114.7
			l-0.1-0.5c0-0.2-0.2-0.1-0.4-0.1h-1.2c-0.2,0-0.4,0-0.4,0.2v8.2c0,0.4-0.1,0.4,0.4,0.4h1.5c0.2,0,0.4-0.3,0.4-0.5v-5.3
			c0-0.3,0.1-0.5,0.3-0.7c0.6-0.6,1.1-0.9,1.8-0.9c1,0,1.4,0.5,1.4,2v4.9c0,0.2,0.1,0.5,0.6,0.5h1.4c0.2,0,0.1-0.3,0.1-0.5v-5.1
			c0-2.2-0.7-3.6-2.8-3.6c-1.3,0-2.1,0.8-2.9,1.2C311.6,114.9,311.6,114.7,311.6,114.7L311.6,114.7z"/>
		<text transform="matrix(1 0 0 1 327.0833 116.8406)" class="st3 st10 st11">SDK</text>
	</g>
</g>
<g>
	<path d="M420.3,216.2H267.1c-0.3,0-0.6-0.3-0.6-0.6v-53.2c0-0.3,0.3-0.6,0.6-0.6h153.2c0.3,0,0.6,0.3,0.6,0.6v53.2
		C420.8,215.9,420.6,216.2,420.3,216.2z"/>
	<text transform="matrix(1 0 0 1 272.769 202.2294)" class="st3 st4 st5">SDK for Android Devices</text>
	<g>
		<path id="Skylink_9_" class="st3" d="M296.4,178.2c-0.2,0.6-1.1,0.6-1.3,0l-1.5-3.8c-0.2-0.4-0.6-0.7-1-0.7h-2.2
			c-0.1,0-0.3,0-0.3,0.1l-2.9,3.3c0,0-0.3,0.3-0.3,0.2c0-0.2,0-0.5,0-0.5v-2.7c0-0.2-0.4-0.4-0.7-0.4h-1.3c-0.2,0-0.3,0.1-0.3,0.4
			v7.9c0,0.2,0,0.5,0.2,0.5h1.6c0.4,0,0.4-0.3,0.4-0.5v-0.7c0-0.4-0.1-1.2,0-1.3l0.9-1.1c0.2-0.2,0.5-0.2,0.6,0.1l2,3.2
			c0.1,0.1,0.2,0.3,0.3,0.3h1.4c0.3,0,0.5-0.4,0.4-0.7l-3-4.4c-0.1-0.1-0.1-0.3,0-0.5l1.3-1.5l0.1-0.2c0.2-0.2,0.6-0.4,0.8,0
			l2.9,6.8c0,0.1,0,0.2,0,0.3l-0.1,0.4c-0.3,0.9-0.9,1.5-1.9,1.5c-0.1,0-0.2,0-0.3,0c-0.2,0-0.4,0.1-0.5,0.3l-0.2,0.9
			c-0.1,0.2,0.1,0.4,0.3,0.5c0.2,0,0.5,0.1,0.8,0.1c2.1,0,3.1-1.2,3.9-3.2l3.3-8.6c0.1-0.3-0.1-0.4-0.4-0.4h-1.3
			c-0.2,0-0.3,0-0.4,0.2l-0.2,0.5L296.4,178.2z M306.1,181.3c0-0.3-0.2-0.4-0.5-0.4c-3.1,0-3.3,0-3.3-0.8v-6c0-0.2,0-0.3-0.2-0.3
			h-1.4c-0.2,0-0.4,0.1-0.4,0.3v7c0,1.7-0.1,1.5,2.2,1.5c0.3,0,3,0,3.2,0s0.4-0.2,0.4-0.4L306.1,181.3L306.1,181.3z M281.2,176
			l-1.7-0.7c-1-0.4-2-0.7-2-1.7c0-0.9,0.8-1.4,2-1.4c0.9,0,1.7,0.3,2.4,0.8c0.2,0.1,0.4,0.1,0.6-0.1l0.7-0.7
			c0.1-0.2,0.1-0.4-0.1-0.5c-1-0.8-2.3-1.2-3.6-1.2c-2.5,0-4.4,1.4-4.4,3.3c0,1.7,1.4,2.6,2.7,3.1l1.7,0.7c1.2,0.4,1.9,0.8,1.9,1.7
			s-0.7,1.5-2.1,1.5c-0.9,0-1.8-0.3-2.6-0.8c-0.4-0.2-1-0.2-1.3,0.2l0,0c-0.4,0.4-0.3,1.1,0.2,1.4c1.1,0.7,2.4,1.1,3.7,1.1
			c2.9,0,4.6-1.6,4.6-3.5C283.8,177.5,282.7,176.6,281.2,176z M326.5,181.9l-3-4.4c-0.1-0.1-0.1-0.3,0-0.5l2.5-2.6
			c0.2-0.3,0-0.5-0.3-0.5h-1.3c-0.1,0-0.3,0-0.3,0.1l-3.4,3.9l0,0v-4c0-0.2-0.1-0.4-0.5-0.5h-1.8c-0.6,0-0.5,0-0.3,0.4
			c0.3,0.5,0.3,1.4,0.3,1.9v6.7c0,0.3,0.3,0.2,0.3,0.2h1.6c0.4,0,0.4,0,0.5-0.5v-1.5c0-0.2,0.1-0.5,0.3-0.7l0.3-0.3
			c0.4-0.5,1.2-0.4,1.6,0.2l1.6,2.6c0.1,0.1,0.2,0.3,0.4,0.3h1.4C326.5,182.5,326.7,182.1,326.5,181.9z M308.6,174.1
			c0-0.2-0.3-0.3-0.5-0.3h-1.3c-0.2,0-0.2,0.1-0.2,0.3v8.2c0,0.2,0,0.2,0.2,0.2h1.3c0.4,0,0.5-0.1,0.5-0.4V174.1z M311.6,174.4
			l-0.1-0.5c0-0.2-0.2-0.1-0.4-0.1h-1.2c-0.2,0-0.4,0-0.4,0.2v8.2c0,0.4-0.1,0.4,0.4,0.4h1.5c0.2,0,0.4-0.3,0.4-0.5v-5.3
			c0-0.3,0.1-0.5,0.3-0.7c0.6-0.6,1.1-0.9,1.8-0.9c1,0,1.4,0.5,1.4,2v4.9c0,0.2,0.1,0.5,0.6,0.5h1.4c0.2,0,0.1-0.3,0.1-0.5V177
			c0-2.2-0.7-3.6-2.8-3.6c-1.3,0-2.1,0.8-2.9,1.2C311.6,174.6,311.6,174.4,311.6,174.4L311.6,174.4z"/>
		<text transform="matrix(1 0 0 1 327.0833 176.5576)" class="st3 st10 st11">SDK</text>
	</g>
</g>
<g>
	<path d="M420.6,275.9H267.4c-0.3,0-0.6-0.3-0.6-0.6v-53.2c0-0.3,0.3-0.6,0.6-0.6h153.2c0.3,0,0.6,0.3,0.6,0.6v53.2
		C421.2,275.7,420.9,275.9,420.6,275.9z"/>
	<text transform="matrix(1 0 0 1 273.1234 261.9464)" class="st3 st4 st5">Service SDK for Linux</text>
	<g>
		<path id="Skylink_10_" class="st3" d="M296.7,238c-0.2,0.6-1.1,0.6-1.3,0l-1.5-3.8c-0.2-0.4-0.6-0.7-1-0.7h-2.2
			c-0.1,0-0.3,0-0.3,0.1l-2.9,3.3c0,0-0.3,0.3-0.3,0.2c0-0.2,0-0.5,0-0.5v-2.7c0-0.2-0.4-0.4-0.7-0.4h-1.3c-0.2,0-0.3,0.1-0.3,0.4
			v7.9c0,0.2,0,0.5,0.2,0.5h1.6c0.4,0,0.4-0.3,0.4-0.5V241c0-0.4-0.1-1.2,0-1.3l0.9-1.1c0.2-0.2,0.5-0.2,0.6,0.1l2,3.2
			c0.1,0.1,0.2,0.3,0.3,0.3h1.4c0.3,0,0.5-0.4,0.4-0.7l-3-4.4c-0.1-0.1-0.1-0.3,0-0.5l1.3-1.5l0.1-0.2c0.2-0.2,0.6-0.4,0.8,0
			l2.9,6.8c0,0.1,0,0.2,0,0.3l-0.1,0.4c-0.3,0.9-0.9,1.5-1.9,1.5c-0.1,0-0.2,0-0.3,0c-0.2,0-0.4,0.1-0.5,0.3l-0.2,0.9
			c-0.1,0.2,0.1,0.4,0.3,0.5c0.2,0,0.5,0.1,0.8,0.1c2.1,0,3.1-1.2,3.9-3.2l3.3-8.6c0.1-0.3-0.1-0.4-0.4-0.4h-1.3
			c-0.2,0-0.3,0-0.4,0.2l-0.2,0.5L296.7,238z M306.4,241c0-0.3-0.2-0.4-0.5-0.4c-3.1,0-3.3,0-3.3-0.8v-6c0-0.2,0-0.3-0.2-0.3H301
			c-0.2,0-0.4,0.1-0.4,0.3v7c0,1.7-0.1,1.5,2.2,1.5c0.3,0,3,0,3.2,0s0.4-0.2,0.4-0.4L306.4,241L306.4,241z M281.6,235.7l-1.7-0.7
			c-1-0.4-2-0.7-2-1.7c0-0.9,0.8-1.4,2-1.4c0.9,0,1.7,0.3,2.4,0.8c0.2,0.1,0.4,0.1,0.6-0.1l0.7-0.7c0.1-0.2,0.1-0.4-0.1-0.5
			c-1-0.8-2.3-1.2-3.6-1.2c-2.5,0-4.4,1.4-4.4,3.3c0,1.7,1.4,2.6,2.7,3.1l1.7,0.7c1.2,0.4,1.9,0.8,1.9,1.7s-0.7,1.5-2.1,1.5
			c-0.9,0-1.8-0.3-2.6-0.8c-0.4-0.2-1-0.2-1.3,0.2l0,0c-0.4,0.4-0.3,1.1,0.2,1.4c1.1,0.7,2.4,1.1,3.7,1.1c2.9,0,4.6-1.6,4.6-3.5
			C284.1,237.2,283.1,236.3,281.6,235.7z M326.9,241.6l-3-4.4c-0.1-0.1-0.1-0.3,0-0.5l2.5-2.6c0.2-0.3,0-0.5-0.3-0.5h-1.3
			c-0.1,0-0.3,0-0.3,0.1l-3.4,3.9l0,0v-4c0-0.2-0.1-0.4-0.5-0.5h-1.8c-0.6,0-0.5,0-0.3,0.4c0.3,0.5,0.3,1.4,0.3,1.9v6.7
			c0,0.3,0.3,0.2,0.3,0.2h1.6c0.4,0,0.4,0,0.5-0.5v-1.5c0-0.2,0.1-0.5,0.3-0.7l0.3-0.3c0.4-0.5,1.2-0.4,1.6,0.2l1.6,2.6
			c0.1,0.1,0.2,0.3,0.4,0.3h1.4C326.8,242.3,327,241.9,326.9,241.6z M309,233.8c0-0.2-0.3-0.3-0.5-0.3h-1.3c-0.2,0-0.2,0.1-0.2,0.3
			v8.2c0,0.2,0,0.2,0.2,0.2h1.3c0.4,0,0.5-0.1,0.5-0.4V233.8z M311.9,234.1l-0.1-0.5c0-0.2-0.2-0.1-0.4-0.1h-1.2
			c-0.2,0-0.4,0-0.4,0.2v8.2c0,0.4-0.1,0.4,0.4,0.4h1.5c0.2,0,0.4-0.3,0.4-0.5v-5.3c0-0.3,0.1-0.5,0.3-0.7c0.6-0.6,1.1-0.9,1.8-0.9
			c1,0,1.4,0.5,1.4,2v4.9c0,0.2,0.1,0.5,0.6,0.5h1.4c0.2,0,0.1-0.3,0.1-0.5v-5.1c0-2.2-0.7-3.6-2.8-3.6c-1.3,0-2.1,0.8-2.9,1.2
			C312,234.3,311.9,234.1,311.9,234.1L311.9,234.1z"/>
		<text transform="matrix(1 0 0 1 327.4377 236.2747)" class="st3 st10 st11">SDK</text>
	</g>
	<text transform="matrix(1 0 0 1 393.3327 256.9719)" class="st3 st10 st12">BETA</text>
</g>
<g>
	<path d="M692.7,161H459.8c-0.3,0-0.6-0.3-0.6-0.6v-32.2c0-0.3,0.3-0.6,0.6-0.6h232.9c0.3,0,0.6,0.3,0.6,0.6v32.2
		C693.2,160.7,693,161,692.7,161z"/>
	<text transform="matrix(1 0 0 1 552.1611 148.2108)" class="st3 st4 st5">Media Relay (SFU/MCU)</text>
	<g>
		<g>
			<path class="st6" d="M533.4,138.8c-0.4-0.3-1,0.2-0.8,0.7c0.3,1,0.6,2.2,0.8,3.4c0.2,1.3,0.4,2.5,0.5,3.6c0,0.5,0.6,0.7,1,0.3
				l3.8-4.2c0.2-0.3,0.2-0.7-0.1-0.9L533.4,138.8z"/>
			<path class="st7" d="M534.3,142.8l1.1,0.7c0.3,0.2,0.4,0.6,0.2,0.9l-0.9,1.1c-0.3,0.4-0.9,0.2-1-0.3s-0.2-1.1-0.3-1.7
				C533.4,142.9,533.9,142.6,534.3,142.8z"/>
			<path class="st0" d="M525.9,136.9c-0.4-0.3-1,0.2-0.8,0.6c0.6,2.1,1.1,4.3,1.6,6.8c0.4,2.2,0.7,4.3,0.9,6.2c0,0.5,0.7,0.7,1,0.3
				l7-7.7c0.2-0.3,0.2-0.7-0.1-0.9L525.9,136.9z"/>
			<path class="st8" d="M527.5,143.3l2.3,1.3c0.3,0.2,0.4,0.6,0.2,0.9l-1.8,2.1c-0.3,0.4-0.9,0.2-1-0.3c-0.1-1-0.3-2.4-0.5-3.5
				C526.6,143.4,527.1,143,527.5,143.3z"/>
			<path class="st9" d="M522.6,139.7c-0.4-0.2-1,0.2-0.8,0.6c0.4,1.3,0.7,2.8,1,4.3c0.4,1.8,0.6,3.5,0.8,5.1c0,0.5,0.7,0.7,1,0.3
				l5-5.6c0.2-0.3,0.2-0.7-0.1-0.9L522.6,139.7z"/>
			<path class="st0" d="M527.4,142.1"/>
		</g>
		<path id="Skylink_1_" class="st3" d="M489.1,145.4c-0.2,0.6-1.1,0.6-1.3,0l-1.5-3.8c-0.2-0.4-0.6-0.7-1-0.7H483
			c-0.1,0-0.3,0-0.3,0.1l-2.9,3.3c0,0-0.3,0.3-0.3,0.2c0-0.2,0-0.5,0-0.5v-2.7c0-0.2-0.4-0.4-0.7-0.4h-1.3c-0.2,0-0.3,0.1-0.3,0.4
			v7.9c0,0.2,0,0.5,0.2,0.5h1.6c0.4,0,0.4-0.3,0.4-0.5v-0.7c0-0.4-0.1-1.2,0-1.3l0.9-1.1c0.2-0.2,0.5-0.2,0.6,0.1l2,3.2
			c0.1,0.1,0.2,0.3,0.3,0.3h1.4c0.3,0,0.5-0.4,0.4-0.7l-3-4.4c-0.1-0.1-0.1-0.3,0-0.5l1.3-1.5l0.1-0.2c0.2-0.2,0.6-0.4,0.8,0
			l2.9,6.8c0,0.1,0,0.2,0,0.3l-0.1,0.4c-0.3,0.9-0.9,1.5-1.9,1.5c-0.1,0-0.2,0-0.3,0c-0.2,0-0.4,0.1-0.5,0.3l-0.2,0.9
			c-0.1,0.2,0.1,0.4,0.3,0.5c0.2,0,0.5,0.1,0.8,0.1c2.1,0,3.1-1.2,3.9-3.2l3.3-8.6c0.1-0.3-0.1-0.4-0.4-0.4h-1c-0.2,0-0.3,0-0.4,0.2
			l-0.2,0.5L489.1,145.4z M498.8,148.4c0-0.3-0.2-0.4-0.5-0.4c-3.1,0-3.3,0-3.3-0.8v-6c0-0.2,0-0.3-0.2-0.3h-1.4
			c-0.2,0-0.4,0.1-0.4,0.3v7c0,1.7-0.1,1.5,2.2,1.5c0.3,0,3,0,3.2,0s0.4-0.2,0.4-0.4L498.8,148.4L498.8,148.4z M473.9,143.1
			l-1.7-0.7c-1-0.4-2-0.7-2-1.7c0-0.9,0.8-1.4,2-1.4c0.9,0,1.7,0.3,2.4,0.8c0.2,0.1,0.4,0.1,0.6-0.1l0.7-0.7
			c0.1-0.2,0.1-0.4-0.1-0.5c-1-0.8-2.3-1.2-3.6-1.2c-2.5,0-4.4,1.4-4.4,3.3c0,1.7,1.4,2.6,2.7,3.1l1.7,0.7c1.2,0.4,1.9,0.8,1.9,1.7
			s-0.7,1.5-2.1,1.5c-0.9,0-1.8-0.3-2.6-0.8c-0.4-0.2-1-0.2-1.3,0.2l0,0c-0.4,0.4-0.3,1.1,0.2,1.4c1.1,0.7,2.4,1.1,3.7,1.1
			c2.9,0,4.6-1.6,4.6-3.5C476.5,144.6,475.5,143.7,473.9,143.1z M519.2,149l-3-4.4c-0.1-0.1-0.1-0.3,0-0.5l2.5-2.6
			c0.2-0.3,0-0.5-0.3-0.5h-1.3c-0.1,0-0.3,0-0.3,0.1l-3.4,3.9l0,0v-4c0-0.2-0.1-0.4-0.5-0.5H511c-0.6,0-0.5,0-0.3,0.4
			c0.3,0.5,0.3,1.4,0.3,1.9v6.7c0,0.3,0.3,0.2,0.3,0.2h1.6c0.4,0,0.4,0,0.5-0.5v-1.5c0-0.2,0.1-0.5,0.3-0.7l0.3-0.3
			c0.4-0.5,1.2-0.4,1.6,0.2l1.6,2.6c0.1,0.1,0.2,0.3,0.4,0.3h1.4C519.2,149.7,519.4,149.3,519.2,149z M501.4,141.2
			c0-0.2-0.3-0.3-0.5-0.3h-1.3c-0.2,0-0.2,0.1-0.2,0.3v8.2c0,0.2,0,0.2,0.2,0.2h1.3c0.4,0,0.5-0.1,0.5-0.4V141.2z M504.3,141.5
			l-0.1-0.5c0-0.2-0.2-0.1-0.4-0.1h-1.2c-0.2,0-0.4,0-0.4,0.2v8.2c0,0.4-0.1,0.4,0.4,0.4h1.5c0.2,0,0.4-0.3,0.4-0.5v-5.3
			c0-0.3,0.1-0.5,0.3-0.7c0.6-0.6,1.1-0.9,1.8-0.9c1,0,1.4,0.5,1.4,2v4.9c0,0.2,0.1,0.5,0.6,0.5h1.4c0.2,0,0.1-0.3,0.1-0.5V144
			c0-2.2-0.7-3.6-2.8-3.6C506,140.4,505.2,141.2,504.3,141.5C504.4,141.7,504.3,141.5,504.3,141.5L504.3,141.5z"/>
	</g>
</g>
<g>
	<path d="M692.7,122.7H459.8c-0.3,0-0.6-0.3-0.6-0.6V89.9c0-0.3,0.3-0.6,0.6-0.6h232.9c0.3,0,0.6,0.3,0.6,0.6v32.2
		C693.2,122.4,693,122.7,692.7,122.7z"/>
	<text transform="matrix(1 0 0 1 552.1611 109.9059)" class="st3 st4 st5">REST API Service</text>
	<g>
		<g>
			<path class="st6" d="M533.4,100.5c-0.4-0.3-1,0.2-0.8,0.7c0.3,1,0.6,2.2,0.8,3.4c0.2,1.3,0.4,2.5,0.5,3.6c0,0.5,0.6,0.7,1,0.3
				l3.8-4.2c0.2-0.3,0.2-0.7-0.1-0.9L533.4,100.5z"/>
			<path class="st7" d="M534.3,104.5l1.1,0.7c0.3,0.2,0.4,0.6,0.2,0.9l-0.9,1.1c-0.3,0.4-0.9,0.2-1-0.3s-0.2-1.1-0.3-1.7
				C533.4,104.6,533.9,104.3,534.3,104.5z"/>
			<path class="st0" d="M525.9,98.6c-0.4-0.3-1,0.2-0.8,0.6c0.6,2.1,1.1,4.3,1.6,6.8c0.4,2.2,0.7,4.3,0.9,6.2c0,0.5,0.7,0.7,1,0.3
				l7-7.7c0.2-0.3,0.2-0.7-0.1-0.9L525.9,98.6z"/>
			<path class="st8" d="M527.5,105l2.3,1.3c0.3,0.2,0.4,0.6,0.2,0.9l-1.8,2.1c-0.3,0.4-0.9,0.2-1-0.3c-0.1-1-0.3-2.4-0.5-3.5
				C526.6,105.1,527.1,104.7,527.5,105z"/>
			<path class="st9" d="M522.6,101.4c-0.4-0.2-1,0.2-0.8,0.6c0.4,1.3,0.7,2.8,1,4.3c0.4,1.8,0.6,3.5,0.8,5.1c0,0.5,0.7,0.7,1,0.3
				l5-5.6c0.2-0.3,0.2-0.7-0.1-0.9L522.6,101.4z"/>
			<path class="st0" d="M527.4,103.8"/>
		</g>
		<path id="Skylink_5_" class="st3" d="M489.1,107.1c-0.2,0.6-1.1,0.6-1.3,0l-1.5-3.8c-0.2-0.4-0.6-0.7-1-0.7H483
			c-0.1,0-0.3,0-0.3,0.1l-2.9,3.3c0,0-0.3,0.3-0.3,0.2c0-0.2,0-0.5,0-0.5V103c0-0.2-0.4-0.4-0.7-0.4h-1.3c-0.2,0-0.3,0.1-0.3,0.4
			v7.9c0,0.2,0,0.5,0.2,0.5h1.6c0.4,0,0.4-0.3,0.4-0.5v-0.7c0-0.4-0.1-1.2,0-1.3l0.9-1.1c0.2-0.2,0.5-0.2,0.6,0.1l2,3.2
			c0.1,0.1,0.2,0.3,0.3,0.3h1.4c0.3,0,0.5-0.4,0.4-0.7l-3-4.4c-0.1-0.1-0.1-0.3,0-0.5l1.3-1.5l0.1-0.2c0.2-0.2,0.6-0.4,0.8,0
			l2.9,6.8c0,0.1,0,0.2,0,0.3l-0.1,0.4c-0.3,0.9-0.9,1.5-1.9,1.5c-0.1,0-0.2,0-0.3,0c-0.2,0-0.4,0.1-0.5,0.3l-0.2,0.9
			c-0.1,0.2,0.1,0.4,0.3,0.5c0.2,0,0.5,0.1,0.8,0.1c2.1,0,3.1-1.2,3.9-3.2l3.3-8.6c0.1-0.3-0.1-0.4-0.4-0.4h-1c-0.2,0-0.3,0-0.4,0.2
			l-0.2,0.5L489.1,107.1z M498.8,110.1c0-0.3-0.2-0.4-0.5-0.4c-3.1,0-3.3,0-3.3-0.8v-6c0-0.2,0-0.3-0.2-0.3h-1.4
			c-0.2,0-0.4,0.1-0.4,0.3v7c0,1.7-0.1,1.5,2.2,1.5c0.3,0,3,0,3.2,0s0.4-0.2,0.4-0.4L498.8,110.1L498.8,110.1z M473.9,104.8
			l-1.7-0.7c-1-0.4-2-0.7-2-1.7c0-0.9,0.8-1.4,2-1.4c0.9,0,1.7,0.3,2.4,0.8c0.2,0.1,0.4,0.1,0.6-0.1l0.7-0.7
			c0.1-0.2,0.1-0.4-0.1-0.5c-1-0.8-2.3-1.2-3.6-1.2c-2.5,0-4.4,1.4-4.4,3.3c0,1.7,1.4,2.6,2.7,3.1l1.7,0.7c1.2,0.4,1.9,0.8,1.9,1.7
			c0,0.9-0.7,1.5-2.1,1.5c-0.9,0-1.8-0.3-2.6-0.8c-0.4-0.2-1-0.2-1.3,0.2l0,0c-0.4,0.4-0.3,1.1,0.2,1.4c1.1,0.7,2.4,1.1,3.7,1.1
			c2.9,0,4.6-1.6,4.6-3.5C476.5,106.3,475.5,105.4,473.9,104.8z M519.2,110.7l-3-4.4c-0.1-0.1-0.1-0.3,0-0.5l2.5-2.6
			c0.2-0.3,0-0.5-0.3-0.5h-1.3c-0.1,0-0.3,0-0.3,0.1l-3.4,3.9l0,0v-4c0-0.2-0.1-0.4-0.5-0.5H511c-0.6,0-0.5,0-0.3,0.4
			c0.3,0.5,0.3,1.4,0.3,1.9v6.7c0,0.3,0.3,0.2,0.3,0.2h1.6c0.4,0,0.4,0,0.5-0.5v-1.5c0-0.2,0.1-0.5,0.3-0.7l0.3-0.3
			c0.4-0.5,1.2-0.4,1.6,0.2l1.6,2.6c0.1,0.1,0.2,0.3,0.4,0.3h1.4C519.2,111.4,519.4,111,519.2,110.7z M501.4,102.9
			c0-0.2-0.3-0.3-0.5-0.3h-1.3c-0.2,0-0.2,0.1-0.2,0.3v8.2c0,0.2,0,0.2,0.2,0.2h1.3c0.4,0,0.5-0.1,0.5-0.4V102.9z M504.3,103.2
			l-0.1-0.5c0-0.2-0.2-0.1-0.4-0.1h-1.2c-0.2,0-0.4,0-0.4,0.2v8.2c0,0.4-0.1,0.4,0.4,0.4h1.5c0.2,0,0.4-0.3,0.4-0.5v-5.3
			c0-0.3,0.1-0.5,0.3-0.7c0.6-0.6,1.1-0.9,1.8-0.9c1,0,1.4,0.5,1.4,2v4.9c0,0.2,0.1,0.5,0.6,0.5h1.4c0.2,0,0.1-0.3,0.1-0.5v-5.1
			c0-2.2-0.7-3.6-2.8-3.6c-1.3,0-2.1,0.8-2.9,1.2C504.4,103.4,504.3,103.2,504.3,103.2L504.3,103.2z"/>
	</g>
</g>
<g>
	<path d="M692.7,199.3H459.8c-0.3,0-0.6-0.3-0.6-0.6v-32.2c0-0.3,0.3-0.6,0.6-0.6h232.9c0.3,0,0.6,0.3,0.6,0.6v32.2
		C693.2,199,693,199.3,692.7,199.3z"/>
	<text transform="matrix(1 0 0 1 552.1611 186.5157)" class="st3 st4 st5">STUN &amp; TURN Services</text>
	<g>
		<g>
			<path class="st6" d="M533.4,177.1c-0.4-0.3-1,0.2-0.8,0.7c0.3,1,0.6,2.2,0.8,3.4c0.2,1.3,0.4,2.5,0.5,3.6c0,0.5,0.6,0.7,1,0.3
				l3.8-4.2c0.2-0.3,0.2-0.7-0.1-0.9L533.4,177.1z"/>
			<path class="st7" d="M534.3,181.1l1.1,0.7c0.3,0.2,0.4,0.6,0.2,0.9l-0.9,1.1c-0.3,0.4-0.9,0.2-1-0.3s-0.2-1.1-0.3-1.7
				C533.4,181.2,533.9,180.9,534.3,181.1z"/>
			<path class="st0" d="M525.9,175.3c-0.4-0.3-1,0.2-0.8,0.6c0.6,2.1,1.1,4.3,1.6,6.8c0.4,2.2,0.7,4.3,0.9,6.2c0,0.5,0.7,0.7,1,0.3
				l7-7.7c0.2-0.3,0.2-0.7-0.1-0.9L525.9,175.3z"/>
			<path class="st8" d="M527.5,181.6l2.3,1.3c0.3,0.2,0.4,0.6,0.2,0.9l-1.8,2.1c-0.3,0.4-0.9,0.2-1-0.3c-0.1-1-0.3-2.4-0.5-3.5
				C526.6,181.7,527.1,181.3,527.5,181.6z"/>
			<path class="st9" d="M522.6,178c-0.4-0.2-1,0.2-0.8,0.6c0.4,1.3,0.7,2.8,1,4.3c0.4,1.8,0.6,3.5,0.8,5.1c0,0.5,0.7,0.7,1,0.3
				l5-5.6c0.2-0.3,0.2-0.7-0.1-0.9L522.6,178z"/>
			<path class="st0" d="M527.4,180.4"/>
		</g>
		<path id="Skylink_2_" class="st3" d="M489.1,183.7c-0.2,0.6-1.1,0.6-1.3,0l-1.5-3.8c-0.2-0.4-0.6-0.7-1-0.7H483
			c-0.1,0-0.3,0-0.3,0.1l-2.9,3.3c0,0-0.3,0.3-0.3,0.2c0-0.2,0-0.5,0-0.5v-2.7c0-0.2-0.4-0.4-0.7-0.4h-1.3c-0.2,0-0.3,0.1-0.3,0.4
			v7.9c0,0.2,0,0.5,0.2,0.5h1.6c0.4,0,0.4-0.3,0.4-0.5v-0.7c0-0.4-0.1-1.2,0-1.3l0.9-1.1c0.2-0.2,0.5-0.2,0.6,0.1l2,3.2
			c0.1,0.1,0.2,0.3,0.3,0.3h1.4c0.3,0,0.5-0.4,0.4-0.7l-3-4.4c-0.1-0.1-0.1-0.3,0-0.5l1.3-1.5l0.1-0.2c0.2-0.2,0.6-0.4,0.8,0
			l2.9,6.8c0,0.1,0,0.2,0,0.3l-0.1,0.4c-0.3,0.9-0.9,1.5-1.9,1.5c-0.1,0-0.2,0-0.3,0c-0.2,0-0.4,0.1-0.5,0.3l-0.2,0.9
			c-0.1,0.2,0.1,0.4,0.3,0.5c0.2,0,0.5,0.1,0.8,0.1c2.1,0,3.1-1.2,3.9-3.2l3.3-8.6c0.1-0.3-0.1-0.4-0.4-0.4h-1c-0.2,0-0.3,0-0.4,0.2
			l-0.2,0.5L489.1,183.7z M498.8,186.8c0-0.3-0.2-0.4-0.5-0.4c-3.1,0-3.3,0-3.3-0.8v-6c0-0.2,0-0.3-0.2-0.3h-1.4
			c-0.2,0-0.4,0.1-0.4,0.3v7c0,1.7-0.1,1.5,2.2,1.5c0.3,0,3,0,3.2,0s0.4-0.2,0.4-0.4L498.8,186.8L498.8,186.8z M473.9,181.4
			l-1.7-0.7c-1-0.4-2-0.7-2-1.7c0-0.9,0.8-1.4,2-1.4c0.9,0,1.7,0.3,2.4,0.8c0.2,0.1,0.4,0.1,0.6-0.1l0.7-0.7
			c0.1-0.2,0.1-0.4-0.1-0.5c-1-0.8-2.3-1.2-3.6-1.2c-2.5,0-4.4,1.4-4.4,3.3c0,1.7,1.4,2.6,2.7,3.1l1.7,0.7c1.2,0.4,1.9,0.8,1.9,1.7
			s-0.7,1.5-2.1,1.5c-0.9,0-1.8-0.3-2.6-0.8c-0.4-0.2-1-0.2-1.3,0.2l0,0c-0.4,0.4-0.3,1.1,0.2,1.4c1.1,0.7,2.4,1.1,3.7,1.1
			c2.9,0,4.6-1.6,4.6-3.5C476.5,182.9,475.5,182,473.9,181.4z M519.2,187.3l-3-4.4c-0.1-0.1-0.1-0.3,0-0.5l2.5-2.6
			c0.2-0.3,0-0.5-0.3-0.5h-1.3c-0.1,0-0.3,0-0.3,0.1l-3.4,3.9l0,0v-4c0-0.2-0.1-0.4-0.5-0.5H511c-0.6,0-0.5,0-0.3,0.4
			c0.3,0.5,0.3,1.4,0.3,1.9v6.7c0,0.3,0.3,0.2,0.3,0.2h1.6c0.4,0,0.4,0,0.5-0.5V186c0-0.2,0.1-0.5,0.3-0.7l0.3-0.3
			c0.4-0.5,1.2-0.4,1.6,0.2l1.6,2.6c0.1,0.1,0.2,0.3,0.4,0.3h1.4C519.2,188,519.4,187.6,519.2,187.3z M501.4,179.6
			c0-0.2-0.3-0.3-0.5-0.3h-1.3c-0.2,0-0.2,0.1-0.2,0.3v8.2c0,0.2,0,0.2,0.2,0.2h1.3c0.4,0,0.5-0.1,0.5-0.4V179.6z M504.3,179.8
			l-0.1-0.5c0-0.2-0.2-0.1-0.4-0.1h-1.2c-0.2,0-0.4,0-0.4,0.2v8.2c0,0.4-0.1,0.4,0.4,0.4h1.5c0.2,0,0.4-0.3,0.4-0.5v-5.3
			c0-0.3,0.1-0.5,0.3-0.7c0.6-0.6,1.1-0.9,1.8-0.9c1,0,1.4,0.5,1.4,2v4.9c0,0.2,0.1,0.5,0.6,0.5h1.4c0.2,0,0.1-0.3,0.1-0.5v-5.1
			c0-2.2-0.7-3.6-2.8-3.6c-1.3,0-2.1,0.8-2.9,1.2C504.4,180,504.3,179.8,504.3,179.8L504.3,179.8z"/>
	</g>
</g>
<g>
	<path d="M692.6,237.6H459.7c-0.3,0-0.6-0.3-0.6-0.6v-32.2c0-0.3,0.3-0.6,0.6-0.6h232.9c0.3,0,0.6,0.3,0.6,0.6V237
		C693.1,237.3,692.9,237.6,692.6,237.6z"/>
	<text transform="matrix(1 0 0 1 552.0401 224.8206)" class="st3 st4 st5">SIP Integration Service</text>
	<g>
		<g>
			<path class="st6" d="M533.3,215.4c-0.4-0.3-1,0.2-0.8,0.7c0.3,1,0.6,2.2,0.8,3.4c0.2,1.3,0.4,2.5,0.5,3.6c0,0.5,0.6,0.7,1,0.3
				l3.8-4.2c0.2-0.3,0.2-0.7-0.1-0.9L533.3,215.4z"/>
			<path class="st7" d="M534.2,219.4l1.1,0.7c0.3,0.2,0.4,0.6,0.2,0.9l-0.9,1.1c-0.3,0.4-0.9,0.2-1-0.3s-0.2-1.1-0.3-1.7
				S533.7,219.2,534.2,219.4z"/>
			<path class="st0" d="M525.7,213.6c-0.4-0.3-1,0.2-0.8,0.6c0.6,2.1,1.1,4.3,1.6,6.8c0.4,2.2,0.7,4.3,0.9,6.2c0,0.5,0.7,0.7,1,0.3
				l7-7.7c0.2-0.3,0.2-0.7-0.1-0.9L525.7,213.6z"/>
			<path class="st8" d="M527.4,219.9l2.3,1.3c0.3,0.2,0.4,0.6,0.2,0.9l-1.8,2.1c-0.3,0.4-0.9,0.2-1-0.3c-0.1-1-0.3-2.4-0.5-3.5
				C526.4,220,526.9,219.6,527.4,219.9z"/>
			<path class="st9" d="M522.5,216.3c-0.4-0.2-1,0.2-0.8,0.6c0.4,1.3,0.7,2.8,1,4.3c0.4,1.8,0.6,3.5,0.8,5.1c0,0.5,0.7,0.7,1,0.3
				l5-5.6c0.2-0.3,0.2-0.7-0.1-0.9L522.5,216.3z"/>
			<path class="st0" d="M527.3,218.7"/>
		</g>
		<path id="Skylink_3_" class="st3" d="M489,222c-0.2,0.6-1.1,0.6-1.3,0l-1.5-3.8c-0.1-0.4-0.6-0.7-1-0.7H483c-0.1,0-0.3,0-0.3,0.1
			l-2.9,3.3c0,0-0.3,0.3-0.3,0.2c0-0.2,0-0.5,0-0.5v-2.7c0-0.2-0.4-0.4-0.7-0.4h-1.3c-0.2,0-0.3,0.1-0.3,0.4v7.9
			c0,0.2,0,0.5,0.2,0.5h1.6c0.4,0,0.4-0.3,0.4-0.5v-0.7c0-0.4-0.1-1.2,0-1.3l0.9-1.1c0.2-0.2,0.5-0.2,0.6,0.1l2,3.2
			c0.1,0.1,0.2,0.3,0.3,0.3h1.4c0.3,0,0.5-0.4,0.4-0.7l-3-4.4c-0.1-0.1-0.1-0.3,0-0.5l1.3-1.5l0.1-0.2c0.2-0.2,0.6-0.4,0.8,0
			l2.9,6.8c0,0.1,0,0.2,0,0.3l-0.1,0.4c-0.3,0.9-0.9,1.5-1.9,1.5c-0.1,0-0.2,0-0.3,0c-0.2,0-0.4,0.1-0.5,0.3l-0.2,0.9
			c-0.1,0.2,0.1,0.4,0.3,0.5c0.2,0,0.5,0.1,0.8,0.1c2.1,0,3.1-1.2,3.9-3.2l3.3-8.6c0.1-0.3-0.1-0.4-0.4-0.4h-1.3
			c-0.2,0-0.3,0-0.4,0.2l-0.2,0.5L489,222z M498.7,225.1c0-0.3-0.2-0.4-0.5-0.4c-3.1,0-3.3,0-3.3-0.8v-6c0-0.2,0-0.3-0.2-0.3h-1.4
			c-0.2,0-0.4,0.1-0.4,0.3v7c0,1.7-0.1,1.5,2.2,1.5c0.3,0,3,0,3.2,0s0.4-0.2,0.4-0.4L498.7,225.1L498.7,225.1z M473.8,219.7
			l-1.7-0.7c-1-0.4-2-0.7-2-1.7c0-0.9,0.8-1.4,2-1.4c0.9,0,1.7,0.3,2.4,0.8c0.2,0.1,0.4,0.1,0.6-0.1l0.7-0.7
			c0.1-0.2,0.1-0.4-0.1-0.5c-1-0.8-2.3-1.2-3.6-1.2c-2.5,0-4.4,1.4-4.4,3.3c0,1.7,1.4,2.6,2.7,3.1l1.7,0.7c1.2,0.4,1.9,0.8,1.9,1.7
			s-0.7,1.5-2.1,1.5c-0.9,0-1.8-0.3-2.6-0.8c-0.4-0.2-1-0.2-1.3,0.2l0,0c-0.4,0.4-0.3,1.1,0.2,1.4c1.1,0.7,2.4,1.1,3.7,1.1
			c2.9,0,4.6-1.6,4.6-3.5C476.4,221.2,475.3,220.3,473.8,219.7z M519.1,225.6l-3-4.4c-0.1-0.1-0.1-0.3,0-0.5l2.5-2.6
			c0.2-0.3,0-0.5-0.3-0.5H517c-0.1,0-0.3,0-0.3,0.1l-3.4,3.9l0,0v-4c0-0.2-0.1-0.4-0.5-0.5H511c-0.6,0-0.5,0-0.3,0.4
			c0.3,0.5,0.3,1.4,0.3,1.9v6.7c0,0.3,0.3,0.2,0.3,0.2h1.6c0.4,0,0.4,0,0.5-0.5v-1.5c0-0.2,0.1-0.5,0.3-0.7l0.3-0.3
			c0.4-0.5,1.2-0.4,1.6,0.2l1.6,2.6c0.1,0.1,0.2,0.3,0.4,0.3h1.4C519.1,226.3,519.3,225.9,519.1,225.6z M501.2,217.9
			c0-0.2-0.3-0.3-0.5-0.3h-1.3c-0.2,0-0.2,0.1-0.2,0.3v8.2c0,0.2,0,0.2,0.2,0.2h1.3c0.4,0,0.5-0.1,0.5-0.4V217.9z M504.2,218.1
			l-0.1-0.5c0-0.2-0.2-0.1-0.4-0.1h-1.2c-0.2,0-0.4,0-0.4,0.2v8.2c0,0.4-0.1,0.4,0.4,0.4h1.5c0.2,0,0.4-0.3,0.4-0.5v-5.3
			c0-0.3,0.1-0.5,0.3-0.7c0.6-0.6,1.1-0.9,1.8-0.9c1,0,1.4,0.5,1.4,2v4.9c0,0.2,0.1,0.5,0.6,0.5h1.4c0.2,0,0.1-0.3,0.1-0.5v-5.1
			c0-2.2-0.7-3.6-2.8-3.6c-1.3,0-2.1,0.8-2.9,1.2C504.2,218.3,504.2,218.1,504.2,218.1L504.2,218.1z"/>
	</g>
</g>
<g>
	<path d="M692.6,275.9H459.7c-0.3,0-0.6-0.3-0.6-0.6v-32.2c0-0.3,0.3-0.6,0.6-0.6h232.9c0.3,0,0.6,0.3,0.6,0.6v32.2
		C693.1,275.6,692.9,275.9,692.6,275.9z"/>
	<text transform="matrix(1 0 0 1 552.0401 263.1254)" class="st3 st4 st5">Billing &amp; Reporting</text>
	<g>
		<g>
			<path class="st6" d="M533.3,253.7c-0.4-0.3-1,0.2-0.8,0.7c0.3,1,0.6,2.2,0.8,3.4c0.2,1.3,0.4,2.5,0.5,3.6c0,0.5,0.6,0.7,1,0.3
				l3.8-4.2c0.2-0.3,0.2-0.7-0.1-0.9L533.3,253.7z"/>
			<path class="st7" d="M534.2,257.7l1.1,0.7c0.3,0.2,0.4,0.6,0.2,0.9l-0.9,1.1c-0.3,0.4-0.9,0.2-1-0.3s-0.2-1.1-0.3-1.7
				C533.2,257.8,533.7,257.5,534.2,257.7z"/>
			<path class="st0" d="M525.7,251.9c-0.4-0.3-1,0.2-0.8,0.6c0.6,2.1,1.1,4.3,1.6,6.8c0.4,2.2,0.7,4.3,0.9,6.2c0,0.5,0.7,0.7,1,0.3
				l7-7.7c0.2-0.3,0.2-0.7-0.1-0.9L525.7,251.9z"/>
			<path class="st8" d="M527.4,258.2l2.3,1.3c0.3,0.2,0.4,0.6,0.2,0.9l-1.8,2.1c-0.3,0.4-0.9,0.2-1-0.3c-0.1-1-0.3-2.4-0.5-3.5
				C526.4,258.3,526.9,257.9,527.4,258.2z"/>
			<path class="st9" d="M522.5,254.6c-0.4-0.2-1,0.2-0.8,0.6c0.4,1.3,0.7,2.8,1,4.3c0.4,1.8,0.6,3.5,0.8,5.1c0,0.5,0.7,0.7,1,0.3
				l5-5.6c0.2-0.3,0.2-0.7-0.1-0.9L522.5,254.6z"/>
			<path class="st0" d="M527.3,257"/>
		</g>
		<path id="Skylink_4_" class="st3" d="M489,260.3c-0.2,0.6-1.1,0.6-1.3,0l-1.5-3.8c-0.1-0.4-0.6-0.7-1-0.7H483
			c-0.1,0-0.3,0-0.3,0.1l-2.9,3.3c0,0-0.3,0.3-0.3,0.2c0-0.2,0-0.5,0-0.5v-2.7c0-0.2-0.4-0.4-0.7-0.4h-1.3c-0.2,0-0.3,0.1-0.3,0.4
			v7.9c0,0.2,0,0.5,0.2,0.5h1.6c0.4,0,0.4-0.3,0.4-0.5v-0.7c0-0.4-0.1-1.2,0-1.3l0.9-1.1c0.2-0.2,0.5-0.2,0.6,0.1l2,3.2
			c0.1,0.1,0.2,0.3,0.3,0.3h1.4c0.3,0,0.5-0.4,0.4-0.7l-3-4.4c-0.1-0.1-0.1-0.3,0-0.5l1.3-1.5l0.1-0.2c0.2-0.2,0.6-0.4,0.8,0
			l2.9,6.8c0,0.1,0,0.2,0,0.3l-0.1,0.4c-0.3,0.9-0.9,1.5-1.9,1.5c-0.1,0-0.2,0-0.3,0c-0.2,0-0.4,0.1-0.5,0.3l-0.2,0.9
			c-0.1,0.2,0.1,0.4,0.3,0.5c0.2,0,0.5,0.1,0.8,0.1c2.1,0,3.1-1.2,3.9-3.2l3.3-8.6c0.1-0.3-0.1-0.4-0.4-0.4h-1.3
			c-0.2,0-0.3,0-0.4,0.2l-0.2,0.5L489,260.3z M498.7,263.4c0-0.3-0.2-0.4-0.5-0.4c-3.1,0-3.3,0-3.3-0.8v-6c0-0.2,0-0.3-0.2-0.3h-1.4
			c-0.2,0-0.4,0.1-0.4,0.3v7c0,1.7-0.1,1.5,2.2,1.5c0.3,0,3,0,3.2,0s0.4-0.2,0.4-0.4L498.7,263.4L498.7,263.4z M473.8,258l-1.7-0.7
			c-1-0.4-2-0.7-2-1.7c0-0.9,0.8-1.4,2-1.4c0.9,0,1.7,0.3,2.4,0.8c0.2,0.1,0.4,0.1,0.6-0.1l0.7-0.7c0.1-0.2,0.1-0.4-0.1-0.5
			c-1-0.8-2.3-1.2-3.6-1.2c-2.5,0-4.4,1.4-4.4,3.3c0,1.7,1.4,2.6,2.7,3.1l1.7,0.7c1.2,0.4,1.9,0.8,1.9,1.7c0,0.9-0.7,1.5-2.1,1.5
			c-0.9,0-1.8-0.3-2.6-0.8c-0.4-0.2-1-0.2-1.3,0.2l0,0c-0.4,0.4-0.3,1.1,0.2,1.4c1.1,0.7,2.4,1.1,3.7,1.1c2.9,0,4.6-1.6,4.6-3.5
			C476.4,259.5,475.3,258.6,473.8,258z M519.1,263.9l-3-4.4c-0.1-0.1-0.1-0.3,0-0.5l2.5-2.6c0.2-0.3,0-0.5-0.3-0.5H517
			c-0.1,0-0.3,0-0.3,0.1l-3.4,3.9l0,0v-4c0-0.2-0.1-0.4-0.5-0.5H511c-0.6,0-0.5,0-0.3,0.4c0.3,0.5,0.3,1.4,0.3,1.9v6.7
			c0,0.3,0.3,0.2,0.3,0.2h1.6c0.4,0,0.4,0,0.5-0.5v-1.5c0-0.2,0.1-0.5,0.3-0.7l0.3-0.3c0.4-0.5,1.2-0.4,1.6,0.2l1.6,2.6
			c0.1,0.1,0.2,0.3,0.4,0.3h1.4C519.1,264.6,519.3,264.2,519.1,263.9z M501.2,256.2c0-0.2-0.3-0.3-0.5-0.3h-1.3
			c-0.2,0-0.2,0.1-0.2,0.3v8.2c0,0.2,0,0.2,0.2,0.2h1.3c0.4,0,0.5-0.1,0.5-0.4V256.2z M504.2,256.4l-0.1-0.5c0-0.2-0.2-0.1-0.4-0.1
			h-1.2c-0.2,0-0.4,0-0.4,0.2v8.2c0,0.4-0.1,0.4,0.4,0.4h1.5c0.2,0,0.4-0.3,0.4-0.5v-5.3c0-0.3,0.1-0.5,0.3-0.7
			c0.6-0.6,1.1-0.9,1.8-0.9c1,0,1.4,0.5,1.4,2v4.9c0,0.2,0.1,0.5,0.6,0.5h1.4c0.2,0,0.1-0.3,0.1-0.5V259c0-2.2-0.7-3.6-2.8-3.6
			c-1.3,0-2.1,0.8-2.9,1.2C504.2,256.6,504.2,256.4,504.2,256.4L504.2,256.4z"/>
	</g>
</g>
<line class="st13" x1="439.8" y1="276.3" x2="439.8" y2="12.3"/>
<text transform="matrix(1 0 0 1 266.4872 24.949)" class="st0 st1 st2">Temasys Skylink SDKs </text>
<text transform="matrix(1 0 0 1 15.3335 24.949)" class="st0 st1 st2">Your  Application or Service</text>
<line class="st13" x1="247.8" y1="276.3" x2="247.8" y2="12.3"/>
<rect x="15.3" y="66.6" class="st14" width="200.3" height="179.2"/>
<rect x="25" y="75.7" class="st15" width="46.7" height="26.4"/>
<rect x="27" y="126.3" class="st15" width="93.3" height="18"/>
<rect x="27" y="149.8" class="st15" width="93.3" height="18"/>
<rect x="27" y="173.3" class="st15" width="93.3" height="18"/>
<rect x="27" y="196.7" class="st15" width="93.3" height="18"/>
<rect x="27" y="220.2" class="st15" width="93.3" height="18"/>
<rect x="130" y="126.3" class="st0" width="77.3" height="65"/>
<rect x="130" y="197.3" class="st15" width="77.3" height="17.4"/>
<rect x="130" y="220.7" class="st15" width="77.3" height="17.4"/>
<rect x="170.7" y="166.7" class="st16" width="45" height="79.1"/>
<g>
	<rect x="175.4" y="170.9" class="st14" width="51" height="88.9"/>
	<rect x="179.7" y="175" class="st15" width="20.9" height="11.8"/>
	<rect x="180.6" y="197.6" class="st0" width="41.8" height="18.6"/>
	<rect x="180.6" y="218.6" class="st15" width="41.8" height="8"/>
	<rect x="180.6" y="229.1" class="st15" width="41.8" height="8"/>
	<rect x="180.6" y="239.6" class="st15" width="41.8" height="8"/>
	<circle class="st14" cx="201.2" cy="253.8" r="2.4"/>
</g>
</svg>
