<svg xmlns="http://www.w3.org/2000/svg" viewBox="0 0 586.91 137.4"><title>sdk-logos</title><rect x="323.13" y="19.98" width="100" height="100" fill="#050505"/><path d="M403.39,118c2,3.29,4.63,5.71,9.27,5.71,3.89,0,6.38-1.95,6.38-4.63,0-3.22-2.56-4.36-6.84-6.24l-2.35-1c-6.78-2.89-11.29-6.51-11.29-14.16,0-7,5.37-12.41,13.76-12.41,6,0,10.27,2.08,13.37,7.52l-7.32,4.7c-1.61-2.89-3.35-4-6-4s-4.5,1.75-4.5,4c0,2.82,1.75,4,5.78,5.71l2.35,1c8,3.42,12.49,6.91,12.49,14.76,0,8.46-6.65,13.1-15.57,13.1-8.73,0-14.37-4.16-17.12-9.61Zm-33.2.81c1.48,2.62,2.82,4.83,6,4.83s5-1.21,5-5.9v-32h9.4v32.08c0,9.73-5.7,14.16-14,14.16-7.52,0-11.88-3.89-14.1-8.58Z" transform="translate(-13.09 -19.91)" fill="#fff"/><ellipse cx="50" cy="53.31" rx="31.04" ry="28.65" fill="#a4c639"/><path d="M63.09,104.33c-18.47,0-33.49-14-33.49-31.11s15-31.11,33.49-31.11,33.49,14,33.49,31.11S81.55,104.33,63.09,104.33Zm0-57.3C47.33,47,34.51,58.78,34.51,73.22S47.33,99.41,63.09,99.41,91.67,87.66,91.67,73.22,78.85,47,63.09,47Z" transform="translate(-13.09 -19.91)" fill="#fff"/><rect x="18.96" y="46.15" width="62.07" height="62.07" rx="7.5" ry="7.5" fill="#a4c639"/><path d="M86.62,130.59H39.55a10,10,0,0,1-10-10V73.56a10,10,0,0,1,10-10H86.62a10,10,0,0,1,10,10v47.07A10,10,0,0,1,86.62,130.59ZM39.55,68.51a5.05,5.05,0,0,0-5,5v47.07a5.05,5.05,0,0,0,5,5H86.62a5.05,5.05,0,0,0,5-5V73.56a5.05,5.05,0,0,0-5-5H39.55Z" transform="translate(-13.09 -19.91)" fill="#fff"/><path d="M42.75,37h0a2.22,2.22,0,0,0-.86,3L54,61.76a2.22,2.22,0,0,0,3,.86h0a2.22,2.22,0,0,0,.86-3L45.77,37.84A2.22,2.22,0,0,0,42.75,37Z" transform="translate(-13.09 -19.91)"/><path d="M55.9,64.13a3.46,3.46,0,0,1-1-.14,3.42,3.42,0,0,1-2.06-1.64L40.81,40.58a3.45,3.45,0,0,1,1.34-4.68h0a3.45,3.45,0,0,1,4.68,1.34L58.91,59A3.45,3.45,0,0,1,55.9,64.13ZM43.35,38A1,1,0,0,0,43,39.39L55,61.17a1,1,0,0,0,1.73-1L44.69,38.43A1,1,0,0,0,43.35,38h0Z" transform="translate(-13.09 -19.91)" fill="#fff"/><path d="M103.67,73.22h0a8.19,8.19,0,0,0-8.19,8.19v29a8.19,8.19,0,0,0,8.19,8.19h0a8.19,8.19,0,0,0,8.19-8.19v-29A8.19,8.19,0,0,0,103.67,73.22Z" transform="translate(-13.09 -19.91)"/><path d="M103.67,119.81a9.42,9.42,0,0,1-9.41-9.41v-29a9.41,9.41,0,1,1,18.83,0v29A9.42,9.42,0,0,1,103.67,119.81Zm0-45.36a7,7,0,0,0-7,7v29a7,7,0,0,0,13.92,0v-29A7,7,0,0,0,103.67,74.45Z" transform="translate(-13.09 -19.91)" fill="#fff"/><path d="M74.68,106.3h0a8.19,8.19,0,0,0-8.19,8.19v29a8.19,8.19,0,0,0,8.19,8.19h0a8.19,8.19,0,0,0,8.19-8.19v-29A8.19,8.19,0,0,0,74.68,106.3Z" transform="translate(-13.09 -19.91)"/><path d="M74.68,152.89a9.42,9.42,0,0,1-9.41-9.41v-29a9.41,9.41,0,1,1,18.83,0v29A9.42,9.42,0,0,1,74.68,152.89Zm0-45.36a7,7,0,0,0-7,7v29a7,7,0,1,0,13.92,0v-29A7,7,0,0,0,74.68,107.53Z" transform="translate(-13.09 -19.91)" fill="#fff"/><path d="M83.42,37h0a2.22,2.22,0,0,1,.86,3L72.22,61.76a2.22,2.22,0,0,1-3,.86h0a2.22,2.22,0,0,1-.86-3L80.41,37.84A2.22,2.22,0,0,1,83.42,37Z" transform="translate(-13.09 -19.91)"/><path d="M70.27,64.13a3.45,3.45,0,0,1-3-5.12L79.33,37.24A3.45,3.45,0,0,1,84,35.9h0a3.45,3.45,0,0,1,1.34,4.68L73.29,62.36A3.42,3.42,0,0,1,71.23,64,3.46,3.46,0,0,1,70.27,64.13ZM82.35,37.92a1,1,0,0,0-.87.51L69.41,60.21a1,1,0,0,0,1.73,1L83.21,39.39A1,1,0,0,0,82.83,38h0A1,1,0,0,0,82.35,37.92Z" transform="translate(-13.09 -19.91)" fill="#fff"/><path d="M22.5,73.22h0a8.19,8.19,0,0,1,8.19,8.19v29a8.19,8.19,0,0,1-8.19,8.19h0a8.19,8.19,0,0,1-8.19-8.19v-29A8.19,8.19,0,0,1,22.5,73.22Z" transform="translate(-13.09 -19.91)"/><path d="M22.5,119.81a9.42,9.42,0,0,1-9.41-9.41v-29a9.41,9.41,0,0,1,18.83,0v29A9.42,9.42,0,0,1,22.5,119.81Zm0-45.36a7,7,0,0,0-7,7v29a7,7,0,0,0,13.92,0v-29A7,7,0,0,0,22.5,74.45Z" transform="translate(-13.09 -19.91)" fill="#fff"/><path d="M51.49,106.3h0a8.19,8.19,0,0,1,8.19,8.19v29a8.19,8.19,0,0,1-8.19,8.19h0a8.19,8.19,0,0,1-8.19-8.19v-29A8.19,8.19,0,0,1,51.49,106.3Z" transform="translate(-13.09 -19.91)"/><path d="M51.49,152.89a9.42,9.42,0,0,1-9.41-9.41v-29a9.41,9.41,0,1,1,18.83,0v29A9.42,9.42,0,0,1,51.49,152.89Zm0-45.36a7,7,0,0,0-7,7v29a7,7,0,1,0,13.92,0v-29A7,7,0,0,0,51.49,107.53Z" transform="translate(-13.09 -19.91)" fill="#fff"/><ellipse cx="50" cy="53.31" rx="31.04" ry="28.65"/><rect x="18.96" y="46.15" width="62.07" height="62.07" rx="7.5" ry="7.5"/><path d="M30.69,74.41h64.8" transform="translate(-13.09 -19.91)" fill="#fff"/><rect x="17.6" y="53.28" width="64.8" height="2.46" fill="#fff"/><circle cx="35.68" cy="39.33" r="1.36" fill="#fff"/><path d="M48.76,61.83a2.59,2.59,0,1,1,2.59-2.59A2.6,2.6,0,0,1,48.76,61.83Zm0-2.73a0.14,0.14,0,1,0,.14.14A0.14,0.14,0,0,0,48.76,59.1Z" transform="translate(-13.09 -19.91)" fill="#fff"/><circle cx="64.32" cy="39.33" r="1.36" fill="#fff"/><path d="M77.41,61.83A2.59,2.59,0,1,1,80,59.24,2.6,2.6,0,0,1,77.41,61.83Zm0-2.73a0.14,0.14,0,1,0,.14.14A0.14,0.14,0,0,0,77.41,59.1Z" transform="translate(-13.09 -19.91)" fill="#fff"/><path d="M258.17,85.15c-0.14-15.54,12.69-23,13.27-23.37C264.22,51.22,253,49.77,249,49.6c-9.56-1-18.66,5.63-23.51,5.63s-12.34-5.49-20.26-5.33a30.05,30.05,0,0,0-25.41,15.39C169,84.08,177,111.92,187.57,127.16c5.16,7.45,11.31,15.85,19.39,15.54,7.79-.31,10.73-5,20.12-5s12,5,20.27,4.88,13.68-7.62,18.8-15.09a67.53,67.53,0,0,0,8.5-17.47c-0.19-.08-16.32-6.26-16.49-24.85" transform="translate(-13.09 -19.91)"/><path d="M242.71,39.52c4.29-5.19,7.18-12.41,6.39-19.61-6.18.25-13.65,4.12-18.09,9.31-4,4.59-7.45,11.94-6.51,19,6.89,0.53,13.92-3.51,18.21-8.69" transform="translate(-13.09 -19.91)"/><path d="M546,68.39a0.38,0.38,0,0,1-.39.39h-0.39c-0.39,0-.39-0.39-0.78-0.78a1.36,1.36,0,0,1-.39-0.78c0-.39,0-0.39.39-0.39l0.78,0.39a2.06,2.06,0,0,1,.78,1.17m-7-3.9c0-1.95-.78-3.12-1.95-3.12a0.38,0.38,0,0,1-.39.39v0.78h1.17c0,0.78.39,1.17,0.39,1.95H539m13.64-1.95c0.78,0,1.17.78,1.56,1.95H555a1.43,1.43,0,0,1-.39-1.17,1.43,1.43,0,0,0-.39-1.17,2.06,2.06,0,0,0-1.17-.78,1.36,1.36,0,0,1-.78.39c0,0.39.39,0.39,0.39,0.78m-11.69,6.23c-0.39,0-.39,0-0.39-0.39a1.43,1.43,0,0,1,.39-1.17,1.71,1.71,0,0,0,1.17-.39,0.38,0.38,0,0,1,.39.39c0,0.39-.39.78-1.17,1.56h-0.39m-4.29-.39c-1.56-.78-1.95-1.95-1.95-3.9,0-1.17,0-1.95.78-2.73a2.14,2.14,0,0,1,1.95-1.17c0.78,0,1.17.39,1.95,1.17a11.38,11.38,0,0,1,.78,3.51V66h0.39V65.66c0.39,0,.39-0.78.39-2.34a5.79,5.79,0,0,0-.78-3.51A3.47,3.47,0,0,0,537,57.87a2.93,2.93,0,0,0-2.73,1.95,9.16,9.16,0,0,0-.94,4.68,6.38,6.38,0,0,0,2.1,4.68c0.39-.39.78-0.39,1.17-0.78m48.7,54.94c0.39,0,.39-0.16.39-0.51a4.24,4.24,0,0,0-1.56-3,9.51,9.51,0,0,0-5.45-2.22c-0.39,0-.78,0-0.78,0a2.65,2.65,0,0,0-.78-0.08c-0.39,0-1.17-.12-1.56-0.19a31,31,0,0,0,1.56-9.62c0-3.9-.78-6.62-2.34-9s-3.12-3.51-5.07-3.9a0.78,0.78,0,0,0-.39.78,9.75,9.75,0,0,1,5.07,4.68A18.57,18.57,0,0,1,576,108a27.23,27.23,0,0,1-1.95,9.55,8.82,8.82,0,0,0-4.29,4.32c0,0.35,0,.55.39,0.55a4.61,4.61,0,0,0,.78-1c0.78-.66,1.17-1.32,1.95-2a5.79,5.79,0,0,1,3.12-1,13.23,13.23,0,0,1,5.07.82,4.72,4.72,0,0,1,2.73,1.68q0.58,0.88,1.17,1.64a0.89,0.89,0,0,0,.39.74M549.51,66.83a2.92,2.92,0,0,1-.39-1.95,5.24,5.24,0,0,1,.78-3.51,3.37,3.37,0,0,1,2.34-1.17A3.94,3.94,0,0,1,555,61.76a9.17,9.17,0,0,1,.78,3.12q0,2.92-2.34,3.51a1.36,1.36,0,0,0,.78.39,4.11,4.11,0,0,1,1.95.78,34.58,34.58,0,0,0,.78-5.84,8.84,8.84,0,0,0-1.17-5.07,5,5,0,0,0-3.9-1.56,6.28,6.28,0,0,0-3.51,1.17,5.18,5.18,0,0,0-1.17,3.12,10.79,10.79,0,0,0,1.17,5.07c0.39,0,.78.39,1.17,0.39m4.68,6.23c-5.07,3.51-9,5.07-12.08,5.07A12.37,12.37,0,0,1,534.32,75,8.52,8.52,0,0,0,535.48,77l2.34,2.34a7.69,7.69,0,0,0,5.45,2.34c2.73,0,5.84-1.56,9.74-4.29L556.52,75a3.94,3.94,0,0,0,1.56-2.73c0-.39,0-0.78-0.39-0.78-0.39-.78-2.34-1.95-6.23-3.12C548,66.83,545.22,66,543.67,66q-1.75,0-5.84,2.34c-2.34,1.56-3.9,3.12-3.9,4.68a4.82,4.82,0,0,1,.78,1.17c2.34,1.95,4.68,3.12,7,3.12,3.12,0,7-1.56,12.08-5.45v0.78a0.38,0.38,0,0,1,.39.39m9,78.7a8.33,8.33,0,0,0,9.74,4.05,5.09,5.09,0,0,0,1.95-.74c0.39-.27.78-0.55,1.17-0.86a4.65,4.65,0,0,0,1.17-.66l6.62-5.73a26.23,26.23,0,0,1,5.07-3.27,33.58,33.58,0,0,1,3.9-1.91,7,7,0,0,0,2.73-1.4,4,4,0,0,0,.78-2.26,3.49,3.49,0,0,0-1.56-2.61,7.93,7.93,0,0,0-2.34-1.32,9,9,0,0,1-2.73-1.95,10.51,10.51,0,0,1-1.95-4.25l-0.39-2.26a9.09,9.09,0,0,0-.78-2.26c0-.12,0-0.16-0.39-0.16a2.14,2.14,0,0,0-1.56,1c-0.78.66-1.56,1.4-2.34,2.18a9.64,9.64,0,0,1-2.34,2.14,7,7,0,0,1-3.12,1c-3.12,0-4.68-.86-5.84-2.53a14.2,14.2,0,0,1-1.56-4.32,2.82,2.82,0,0,0-1.95-1c-1.95,0-2.73,2-2.73,6.12v12.12a12.37,12.37,0,0,0-.39,2.34,13.69,13.69,0,0,0-.39,4.13l-0.78,4.32v0.07m-56.49-2.06a63.93,63.93,0,0,1,12.51,3.39c4.71,1.71,7.6,2.61,8.65,2.61a8.5,8.5,0,0,0,6.86-3.54,5.77,5.77,0,0,0,.39-2.67q0-5.52-6.66-14L525.74,132a36.83,36.83,0,0,1-2.06-3.39,33.31,33.31,0,0,0-2.14-3.51,10.52,10.52,0,0,0-2.38-2.69,8,8,0,0,0-3.47-1.79,5.27,5.27,0,0,0-3.31,1.6,4.77,4.77,0,0,0-.94,2.42,2.31,2.31,0,0,1-.74,1.64,7.1,7.1,0,0,1-1.95.62c-0.19,0-.55,0-1.05,0h-1.05a10,10,0,0,0-4.21.62,5.72,5.72,0,0,0-1.48,3.78,17.79,17.79,0,0,0,.47,3.16,17.45,17.45,0,0,1,.47,3.43,9.11,9.11,0,0,1-1.44,4.79,8.71,8.71,0,0,0-1.48,3.81c0.39,1.51,3,2.58,7.68,3.2m13-35.42a24.25,24.25,0,0,1,2.14-9.16,25.68,25.68,0,0,1,4.17-7.4c-0.08-.39-0.27-0.39-0.58-0.39L525,96.93c-1.13,1.17-2.49,3.9-4.13,7.79a23.17,23.17,0,0,0-2.49,9.12,8.88,8.88,0,0,0,1.21,4.6c0.86,1.29,2.92,3.16,6.19,5.53l4.13,2.69c4.4,3.82,6.74,6.47,6.74,8a3.19,3.19,0,0,1-1.56,2.53,3.69,3.69,0,0,1-2.73,1.4c-0.08,0-.12.08-0.12,0.27,0,0,.39.82,1.21,2.34,1.64,2.22,5.14,3.31,9.82,3.31,8.57,0,15.2-3.51,20.26-10.52,0-1.95,0-3.16-.39-3.66v-1.44a11,11,0,0,1,1.17-5.69,3.09,3.09,0,0,1,2.73-1.83,3.86,3.86,0,0,1,2.34.86,59,59,0,0,0,.39-7.95c0-3.55,0-6.47-.78-9.2A20.54,20.54,0,0,0,567,99.26l-2.34-3.51c-0.78-1.17-1.17-2.34-1.95-3.51a16.74,16.74,0,0,1-.78-4.68c-1.17-1.95-1.95-3.9-3.12-5.84-0.78-1.95-1.56-3.9-2.34-5.45L553,79c-3.9,2.73-7,3.9-9.74,3.9-2.34,0-4.29-.39-5.45-1.95L535.45,79a10.16,10.16,0,0,1-1.17,4.29L531.82,88A23.77,23.77,0,0,0,530,93.42a7.78,7.78,0,0,1-.35,1.56l-2.92,5.84c-3.16,5.84-4.75,11.26-4.75,15.74a16.93,16.93,0,0,0,.23,2.77,5.77,5.77,0,0,1-2.61-5.07m27.9,36.86q-7.6,0-11.69,2v-0.12a8.75,8.75,0,0,1-7.17,3.55c-1.91,0-4.91-.74-9-2.22a105.81,105.81,0,0,0-10.87-3.19c-0.31-.09-1-0.22-2.14-0.4s-2.1-.35-3-0.53a22.61,22.61,0,0,1-2.77-.8,6.84,6.84,0,0,1-2.34-1.2,2.2,2.2,0,0,1-.8-1.66,5.73,5.73,0,0,1,.4-2c0.25-.43.52-0.86,0.79-1.25a7.55,7.55,0,0,0,.66-1.21,5.71,5.71,0,0,0,.55-1.09,4.82,4.82,0,0,0,.39-1.13,6,6,0,0,0,.16-1.17c0-.39-0.16-1.56-0.47-3.62a35.12,35.12,0,0,1-.47-3.86,5.94,5.94,0,0,1,1.25-4.05,3.52,3.52,0,0,1,2.53-1.48h4.48a4,4,0,0,0,1.71-.66c0.27-.62.51-1.13,0.66-1.6s0.27-.82.35-1,0.16-.47.23-0.66a5.38,5.38,0,0,1,.62-0.9,2.36,2.36,0,0,1-.47-1.52,4,4,0,0,1,.08-1.05c0-1.4.66-3.39,2.06-6l1.36-2.45a53.9,53.9,0,0,0,2.61-5.22,51,51,0,0,0,2.14-7,19.38,19.38,0,0,1,4.44-8.18L526.8,86a27.51,27.51,0,0,0,4.09-5.84A12.55,12.55,0,0,0,532,75.09c0-.78-0.19-3.12-0.62-7s-0.58-7.79-.58-11.3a25,25,0,0,1,.74-6.62,13.85,13.85,0,0,1,2.73-5.45,10.45,10.45,0,0,1,5.07-3.9,25.9,25.9,0,0,1,8.18-1.17A10.79,10.79,0,0,1,551,40a13.47,13.47,0,0,1,4.68,1.17A16.09,16.09,0,0,1,560,43.92a17.48,17.48,0,0,1,3.9,5.07,37.89,37.89,0,0,1,1.95,7.79c0.39,1.95.39,3.9,0.78,6.62,0,2.34.39,3.9,0.39,5.07,0.39,1.17.39,2.73,0.78,4.68a14,14,0,0,0,1.56,4.29,29.06,29.06,0,0,0,2.73,4.68c1.17,1.95,2.73,3.9,4.29,6.23a39.07,39.07,0,0,1,7.79,12.47,32.73,32.73,0,0,1,3.12,14.38A26.48,26.48,0,0,1,586.1,123a1.71,1.71,0,0,1,1.56.86,10.93,10.93,0,0,1,1.17,3.55l0.39,2.88a4.58,4.58,0,0,0,1.95,2.38,8.66,8.66,0,0,0,2.73,1.75,12.65,12.65,0,0,1,2.73,1.64,3.46,3.46,0,0,1,1.17,2.45,3.79,3.79,0,0,1-1.17,3,6.1,6.1,0,0,1-2.73,1.68c-0.78.39-2.34,1.17-4.68,2.27a42.42,42.42,0,0,0-5.84,4.21l-3.9,3.32a21.59,21.59,0,0,1-4.29,3.27,8.52,8.52,0,0,1-4.29,1.05l-2.73-.31a8.89,8.89,0,0,1-6.23-4.75,133.08,133.08,0,0,0-14.42-1.13" transform="translate(-13.09 -19.91)"/><path d="M574,49.27h2.67c1.63,0,2.89.44,2.89,1.94a1.72,1.72,0,0,1-1.32,1.69v0a1.76,1.76,0,0,1,1.7,1.83c0,1.59-1.34,2.3-3,2.3H574V49.27Zm2.59,3.15a1,1,0,0,0,1.25-1c0-.59-0.41-0.83-1.22-0.83h-0.84v1.79h0.82Zm0.17,3.3c1,0,1.46-.36,1.46-1.07s-0.49-1-1.46-1h-1v2.05h1Z" transform="translate(-13.09 -19.91)"/><path d="M581.24,49.27h4.91v1.49H583v1.57h2.66V53.8H583v1.8h3.25v1.49h-5V49.27Z" transform="translate(-13.09 -19.91)"/><path d="M589.32,50.75h-2.16V49.27h6.07v1.49h-2.15v6.33h-1.76V50.75Z" transform="translate(-13.09 -19.91)"/><path d="M597.65,55.23h-2.4l-0.48,1.86H593l2.46-7.82h2.11L600,57.09h-1.87Zm-0.36-1.38-0.19-.72c-0.22-.78-0.42-1.7-0.64-2.52h0c-0.18.83-.4,1.74-0.61,2.52l-0.19.72h1.68Z" transform="translate(-13.09 -19.91)"/></svg>