<svg id="Layer_1" data-name="Layer 1" xmlns="http://www.w3.org/2000/svg" viewBox="0 0 648 184"><defs><style>.cls-1{fill:#00aaa4;}</style></defs><title>sdks</title><g id="Layer_2" data-name="Layer 2"><g id="Layer_1-2" data-name="Layer 1-2"><path class="cls-1" d="M140.07,81.14C136.63,78.5,133.34,77,129.18,77c-4,0-6.65,1.76-6.65,4.73,0,3.2,3.44,4.33,8,6.17l6.65,2.72c5.89,2.38,9.76,6.23,10.27,12.69a64.6,64.6,0,0,0-2.58-28.18Z"/><path class="cls-1" d="M127.9,120.95a28.94,28.94,0,0,1-19.38-7.53l6.81-8.09c3.68,3.2,8.49,5.45,12.81,5.45,4.89,0,7.29-1.92,7.29-5,0-3.28-3-4.32-7.53-6.25l-6.73-2.88c-5.45-2.22-10.57-6.7-10.57-14.31,0-8.65,7.77-15.54,18.58-15.54a24.37,24.37,0,0,1,14.51,4.91,65,65,0,1,0,2.16,39.92C143.05,117,136.83,120.95,127.9,120.95ZM106.43,102.6c0,10.09-5.21,18.34-16.74,18.34-8,0-13.3-3.12-16.9-9.45l8-5.93c2,3.52,4.65,5.21,7.29,5.21,4.25,0,6.49-2.16,6.49-9.13V67.76h11.86Z"/></g></g><g id="Layer_2-2" data-name="Layer 2"><g id="Layer_1-2-2" data-name="Layer 1-2"><path class="cls-1" d="M179.1,65.92h38.4v-8a4,4,0,1,1,8,0v8h21v-8a4,4,0,1,1,8,0v8h42.4a65.29,65.29,0,0,0-20.22-24.73L283.9,34a3.52,3.52,0,1,0-5-5l-8.24,8.26a65,65,0,0,0-67.91,1.51L193,29a3.52,3.52,0,1,0-4.95,5l9,9A65.27,65.27,0,0,0,179.1,65.92Z"/><path class="cls-1" d="M300.88,76.92H175.12a65,65,0,1,0,125.76,0Z"/></g></g><g id="Layer_2-3" data-name="Layer 2"><g id="Layer_1-2-3" data-name="Layer 1-2"><path class="cls-1" d="M430,77a42.86,42.86,0,0,1,12.93-30.72A64.73,64.73,0,0,0,400.5,30.5c-16.59,0-17,17.27-28.5,27.5-13.37,11.91-36.5,18.19-36.5,37.5a65,65,0,0,0,125.84,22.89A43,43,0,0,1,430,77Z"/><path class="cls-1" d="M335,30s24.21-.82,35,24.17C370,54.17,345.34,59.2,335,30Z"/></g></g><g id="Layer_2-4" data-name="Layer 2"><g id="Layer_1-2-4" data-name="Layer 1-2"><path class="cls-1" d="M558,29a65,65,0,0,0-36.5,118.79V115.33a2.19,2.19,0,0,1,3.44-1.79L554.28,134a2.19,2.19,0,0,1,0,3.59l-22.63,15.83a65,65,0,0,0,52.19.23l-23-16a2.19,2.19,0,0,1,0-3.59l29.38-20.53a2.19,2.19,0,0,1,3.44,1.79v33A65,65,0,0,0,558,29Zm-2.63,90.21c-8.84-4.42-16.2-22.09-16.2-22.09a20.15,20.15,0,0,1,6-5.3,2.92,2.92,0,0,1-.06-.59V79.45a3,3,0,1,1,5.89,0V89.3a26.53,26.53,0,0,1,7.36-1,27,27,0,0,1,5.89.65v-9.5a3,3,0,1,1,5.89,0V91a20.83,20.83,0,0,1,7.36,6.09S564.21,123.63,555.37,119.21Z"/></g></g></svg>