<svg xmlns="http://www.w3.org/2000/svg" viewBox="0 0 708.48 118.67"><title>temasys.io</title><path d="M137.73,10.87a37.25,37.25,0,0,0-.54,6.33,39,39,0,0,0,.54,6.57H159.9V97c1.26,0.16,2.52.28,3.75,0.34a62.29,62.29,0,0,0,8.62-.06c1.12-.09,2.24-0.2,3.36-0.31V23.78H197.8a39.06,39.06,0,0,0,.54-6.57,37.3,37.3,0,0,0-.54-6.33H137.73Z" transform="translate(-15.38 -8.7)" fill="#59595c"/><path d="M244,42.52a24.92,24.92,0,0,0-8.39-6.1,27.28,27.28,0,0,0-11.31-2.23,30.43,30.43,0,0,0-12.83,2.53,26.58,26.58,0,0,0-9.18,6.88,29.68,29.68,0,0,0-5.61,10.28,41.93,41.93,0,0,0-1.91,12.78,42.35,42.35,0,0,0,1.85,12.78,26.34,26.34,0,0,0,5.64,9.94,25.86,25.86,0,0,0,9.88,6.51,40.92,40.92,0,0,0,14.74,2.38A59.58,59.58,0,0,0,247.31,95a28.63,28.63,0,0,0-1-6.26,29.61,29.61,0,0,0-1.78-4.78,50.6,50.6,0,0,1-7.52,2,48.88,48.88,0,0,1-8.74.82c-5.3,0-9.65-1.19-12.94-3.53s-5.29-6.29-5.64-11.54l-0.08-1.23h41c0.1-.72.19-1.58,0.27-2.56,0.12-1.47.18-3,.18-4.51a37,37,0,0,0-1.78-11.61A25.87,25.87,0,0,0,244,42.52ZM209.67,60.58l0.12-1.27c0.43-4.41,1.81-7.9,4.11-10.37s5.77-3.81,10.18-3.81a11.47,11.47,0,0,1,9.3,4,16.66,16.66,0,0,1,3.52,10.2l0.05,1.2H209.67Z" transform="translate(-15.38 -8.7)" fill="#59595c"/><path d="M410.46,40.05c-6.24-5.32-16-7.09-29.08-5a64.17,64.17,0,0,0-9.82,2.39,21.24,21.24,0,0,0,.8,5.59,30.41,30.41,0,0,0,2,4.94A44.18,44.18,0,0,1,388,45.63a40,40,0,0,1,5.75.38,12.4,12.4,0,0,1,4.67,1.57,8.51,8.51,0,0,1,3.12,3.33,11.34,11.34,0,0,1,1.12,5.33V59l-1.26-.11c-2.81-.24-5.42-0.36-7.75-0.36a46.24,46.24,0,0,0-9.58,1,27.79,27.79,0,0,0-8.54,3.3,18.39,18.39,0,0,0-6.13,6A17.17,17.17,0,0,0,367,78.08a21,21,0,0,0,1.91,9.43,16.26,16.26,0,0,0,5.39,6.2,23.63,23.63,0,0,0,8.54,3.5,54.75,54.75,0,0,0,11.24,1.08,70.19,70.19,0,0,0,13.64-1.21c3.64-.72,6.83-1.49,9.5-2.3v-36C417.24,50.21,415,43.9,410.46,40.05Zm-7.85,46-0.95.17-3.21.56a23.54,23.54,0,0,1-3.87.32q-1.64,0-3.84-.19a14.62,14.62,0,0,1-4.4-1.07A9.18,9.18,0,0,1,382.63,83a8.92,8.92,0,0,1-1.6-5.62c0-3.61,1.36-6.27,4-7.92,2.51-1.54,5.91-2.32,10.12-2.32a31.34,31.34,0,0,1,3.19.19q1.75,0.19,3.26.44l1,0.16V86Z" transform="translate(-15.38 -8.7)" fill="#59595c"/><path d="M474.49,85.93a18.1,18.1,0,0,0,1.79-8,21.2,21.2,0,0,0-1-7.1,13.58,13.58,0,0,0-2.82-4.75A16.24,16.24,0,0,0,468,62.85a33.65,33.65,0,0,0-6-2.31l-7-2.09a20.29,20.29,0,0,1-5-2.23,5.32,5.32,0,0,1-2.18-4.76,5.54,5.54,0,0,1,2.93-5.13,14.58,14.58,0,0,1,7.07-1.43,31.16,31.16,0,0,1,7.78,1,51.18,51.18,0,0,1,5.65,1.8,35.13,35.13,0,0,0,2.89-10.38A59.17,59.17,0,0,0,465.68,35a51.41,51.41,0,0,0-9.24-.83c-7.39,0-13.28,1.69-17.51,5s-6.25,7.8-6.25,13.7c0,4.81,1.19,8.44,3.53,10.78a23.28,23.28,0,0,0,10.24,5.53l7.61,2.21a18.27,18.27,0,0,1,5.33,2.44,6.86,6.86,0,0,1,.79,9.32,10.07,10.07,0,0,1-3.26,2.36,14.83,14.83,0,0,1-4.06,1.2,26.45,26.45,0,0,1-3.91.32,36.15,36.15,0,0,1-7.8-.83,50.28,50.28,0,0,1-6.81-2,41.11,41.11,0,0,0-1.89,5.4,34.77,34.77,0,0,0-1,5.61c1.36,0.5,2.66.93,3.87,1.26,1.42,0.4,2.9.74,4.38,1a41.89,41.89,0,0,0,4.6.59c1.59,0.12,3.38.18,5.32,0.18a37,37,0,0,0,11.3-1.6,26.35,26.35,0,0,0,8.41-4.35A18.46,18.46,0,0,0,474.49,85.93Z" transform="translate(-15.38 -8.7)" fill="#59595c"/><path d="M521.54,120a30.28,30.28,0,0,0,3.36-7.44l23.31-77.18a27.07,27.07,0,0,0-3.71-.42,58.12,58.12,0,0,0-11.32.53L521,80.67c-0.38,2.32-1.86,3.18-3.12,3.18-2,0-3.73-1.92-4.32-4.68-1.89-6.34-9.24-38.31-10.47-43.69a26,26,0,0,0-3.75-.43c-3-.14-5.62-0.15-8.93-0.07a24.39,24.39,0,0,0-3.54.41l14,47.55c2.79,12.9,11.2,13.89,13.72,13.89,0.28,0,.48,0,0.56,0l1.66-.14-2.52,9.21a22.6,22.6,0,0,1-2.35,5.83,10.36,10.36,0,0,1-3,3.24,8,8,0,0,1-3.38,1.29,23.9,23.9,0,0,1-7-.13c-0.79-.13-1.47-0.27-2.06-0.41a40.48,40.48,0,0,0-1.23,4,21.48,21.48,0,0,0-.64,5.3v1c1.5,0.38,3,.7,4.61.95a38.47,38.47,0,0,0,12.65-.24,15.32,15.32,0,0,0,5.37-2.22A15.69,15.69,0,0,0,521.54,120Z" transform="translate(-15.38 -8.7)" fill="#59595c"/><path d="M597.48,85.93a18.15,18.15,0,0,0,1.78-8,21.12,21.12,0,0,0-1-7.09,13.6,13.6,0,0,0-2.82-4.76A16.14,16.14,0,0,0,591,62.85a33.49,33.49,0,0,0-6-2.31l-7-2.09a20.48,20.48,0,0,1-5-2.23,5.33,5.33,0,0,1-2.17-4.76,5.54,5.54,0,0,1,2.93-5.13,14.56,14.56,0,0,1,7.06-1.43,31.18,31.18,0,0,1,7.78,1,50.37,50.37,0,0,1,5.66,1.8,35.27,35.27,0,0,0,2.88-10.38A59,59,0,0,0,588.67,35a51.41,51.41,0,0,0-9.24-.83c-7.39,0-13.28,1.69-17.51,5s-6.25,7.8-6.25,13.7c0,4.82,1.19,8.44,3.53,10.78a23.21,23.21,0,0,0,10.24,5.54L577,71.45a18.35,18.35,0,0,1,5.33,2.44,6.85,6.85,0,0,1,.8,9.32,10,10,0,0,1-3.25,2.36,15,15,0,0,1-4.06,1.2,26.57,26.57,0,0,1-3.92.32,36.1,36.1,0,0,1-7.8-.83,50.42,50.42,0,0,1-6.81-2,40.92,40.92,0,0,0-1.89,5.4,35,35,0,0,0-1,5.61c1.36,0.5,2.66.93,3.86,1.26,1.43,0.4,2.9.74,4.38,1a42,42,0,0,0,4.6.59c1.59,0.12,3.38.18,5.31,0.18a37.11,37.11,0,0,0,11.31-1.6,26.27,26.27,0,0,0,8.41-4.35A18.58,18.58,0,0,0,597.48,85.93Z" transform="translate(-15.38 -8.7)" fill="#59595c"/><path d="M353.5,54.7a23.45,23.45,0,0,0-2.92-10.34c-3.82-6.74-10.66-10.16-20.32-10.16h-0.48c-2.33,0-14.25.41-20.15,8.53L308.7,44l-0.94-1.29c-5.9-8.12-17.82-8.53-20.15-8.53h-0.44c-7.46,0-13.25,2-17.28,6.09-6,6-6,14.33-6,14.41l-0.07,42.41a26.65,26.65,0,0,0,7.21.94,33.88,33.88,0,0,0,7.91-1l0-36.45c0-.21-0.41-7,3.2-10.83a8.26,8.26,0,0,1,6.28-2.58,11.83,11.83,0,0,1,9,3.48c3.94,4.15,3.65,10.45,3.63,10.71l0.07,35.66a32.1,32.1,0,0,0,7,.83h0.36l0.37,1.15V97.92h0.35a32.17,32.17,0,0,0,7-.83l0.07-35.73c0-.2-0.3-6.5,3.63-10.65a11.83,11.83,0,0,1,9-3.48,8.27,8.27,0,0,1,6.28,2.58c3.61,3.85,3.21,10.63,3.19,10.92l0,36.38a33.88,33.88,0,0,0,7.91,1h0a26.64,26.64,0,0,0,7.2-.94Z" transform="translate(-15.38 -8.7)" fill="#59595c"/><path d="M699,97.77a33.23,33.23,0,0,0,7.28-1.85,25.93,25.93,0,0,0,9.78-6.49,27,27,0,0,0,5.71-9.9,43.32,43.32,0,0,0,2.05-12.74,42.18,42.18,0,0,0-1.62-12.74A29,29,0,0,0,717,43.81,25.32,25.32,0,0,0,708.12,37a28.48,28.48,0,0,0-11.68-2.48V34.34a29.17,29.17,0,0,0-12.54,2.53,26,26,0,0,0-9,6.88A29.89,29.89,0,0,0,669.44,54a42.82,42.82,0,0,0-1.87,12.78,43.25,43.25,0,0,0,1.8,12.78,26.5,26.5,0,0,0,5.51,9.94,25.25,25.25,0,0,0,9.66,6.51,32.7,32.7,0,0,0,7.27,1.86A23.05,23.05,0,0,0,699,97.77ZM687.63,83.34c-3.6-1.95-5.17-6.29-5.51-11.54L682,70.57l0.08-9.84,0.12-1.27c0.42-4.41,1.21-7.9,3.46-10.37s4.84-3.68,8.84-3.79v0c4,0,8.18,1.28,10.43,3.79a17.23,17.23,0,0,1,4.09,10.34l0.24,1.26,0,9.8-0.08,1.23c-0.44,5.23-2.36,9.1-5.72,11.5C703.47,83.25,697.38,88.63,687.63,83.34Z" transform="translate(-15.38 -8.7)" fill="#59595c"/><path d="M605.6,98.2" transform="translate(-15.38 -8.7)" fill="#59595c"/><path d="M652.06,99.07l1.27-62.13a27.07,27.07,0,0,0-3.71-.42,58.12,58.12,0,0,0-11.32.53l-0.16,62S645.88,100.4,652.06,99.07Z" transform="translate(-15.38 -8.7)" fill="#59595c"/><rect x="593.05" y="77.63" width="14.68" height="14.68" rx="3.61" ry="3.61" fill="#59595c"/><rect x="621.15" y="1.29" width="18.41" height="18.41" rx="3.61" ry="3.61" fill="#59595c"/><path d="M113.25,40.62c-1.51,0-9.44.53-12.06,0.5l0,0A97.62,97.62,0,0,0,87.78,42a40.32,40.32,0,0,0-19.51,7.84,26,26,0,0,1-2.19-5.13,28.56,28.56,0,0,1-1.23-8.1,1.91,1.91,0,0,1,.38-1.49A13.5,13.5,0,1,0,48,22.23c0,16.19,15.43,32.14,15.43,32.14C55.43,62.95,48,77.18,48,86.07A13.53,13.53,0,1,0,65.19,73.12,1,1,0,0,1,64.76,72a30.47,30.47,0,0,1,3.42-13.33c9.13,8.47,26.93,9.15,33,8.91l0,0c3,0,11.25.06,12.06,0.06A13.53,13.53,0,1,0,113.25,40.62ZM49.3,80.4s0.07-.11,0,0h0ZM75.77,58c0-.09-3.09-1.86-4.27-3.76,9.41-9.24,21.2-8.31,29.32-6l0.25,0.08A13.09,13.09,0,0,0,101.12,60a1.12,1.12,0,0,1,.13.24C88.88,64,80.45,61,75.77,58Z" transform="translate(-15.38 -8.7)" fill="#00a9a1"/><circle cx="13.53" cy="45.45" r="13.53" fill="#eb2426"/></svg>