<svg xmlns="http://www.w3.org/2000/svg" viewBox="0 0 297.72 214.52"><title>ux-dropin</title><rect x="27.37" y="24.04" width="200.33" height="179.15" transform="translate(-28.04 -11.83) rotate(-2.93)" fill="#fff" stroke="#000" stroke-miterlimit="10"/><rect x="33.68" y="36.68" width="46.67" height="26.38" transform="translate(-24.87 -15.52) rotate(-2.93)" fill="#e2e2e2"/><rect x="38.02" y="85.92" width="93.33" height="17.96" transform="translate(-27.13 -14.05) rotate(-2.93)" fill="#e2e2e2"/><rect x="39.22" y="109.37" width="93.33" height="17.96" transform="translate(-28.33 -13.96) rotate(-2.93)" fill="#e2e2e2"/><rect x="40.42" y="132.81" width="93.33" height="17.96" transform="translate(-29.53 -13.86) rotate(-2.93)" fill="#e2e2e2"/><rect x="41.62" y="156.25" width="93.33" height="17.96" transform="translate(-30.73 -13.77) rotate(-2.93)" fill="#e2e2e2"/><rect x="42.82" y="179.69" width="93.33" height="17.96" transform="translate(-31.93 -13.68) rotate(-2.93)" fill="#e2e2e2"/><rect x="143.29" y="81" width="77.33" height="111.62" transform="translate(-29.15 -9.02) rotate(-2.93)" fill="#e2e2e2"/><polygon points="24.61 187.72 24.61 187.72 24.61 27.16 132.33 29.49 24.61 187.72" opacity="0.3"/><rect x="52.33" y="46.68" width="200.33" height="179.15" transform="translate(-12.68 -28.65) rotate(3.94)" fill="#fff" stroke="#000" stroke-miterlimit="10"/><rect x="66.77" y="51.35" width="46.67" height="26.38" transform="translate(-17.75 -24.54) rotate(3.94)" fill="#e2e2e2"/><rect x="65.53" y="103.58" width="93.33" height="17.96" transform="translate(-14.4 -25.94) rotate(3.94)" fill="#e2e2e2"/><rect x="63.92" y="126.99" width="93.33" height="17.96" transform="translate(-12.8 -25.78) rotate(3.94)" fill="#e2e2e2"/><rect x="62.31" y="150.41" width="93.33" height="17.96" transform="translate(-11.19 -25.61) rotate(3.94)" fill="#e2e2e2"/><rect x="60.7" y="173.83" width="93.33" height="17.96" transform="translate(-9.59 -25.44) rotate(3.94)" fill="#e2e2e2"/><rect x="59.09" y="197.25" width="93.33" height="17.96" transform="translate(-7.99 -25.28) rotate(3.94)" fill="#e2e2e2"/><rect x="165.09" y="109.99" width="77.33" height="111.62" transform="translate(-10.53 -32.1) rotate(3.94)" fill="#e2e2e2"/><rect x="187.61" y="40.21" width="42.8" height="86.15" opacity="0.3"/><rect x="215.67" y="53.73" width="51" height="88.94" transform="matrix(0.99, -0.13, 0.13, 0.99, -33.4, 14.81)" fill="#fff" stroke="#000" stroke-miterlimit="10"/><rect x="215.45" y="59.57" width="20.88" height="11.8" transform="translate(-29.14 12.45) rotate(-7.73)" fill="#e2e2e2"/><rect x="219.03" y="80.49" width="41.75" height="8.04" transform="translate(-31.57 14.51) rotate(-7.73)" fill="#e2e2e2"/><rect x="220.45" y="90.89" width="41.75" height="8.04" transform="translate(-32.96 14.8) rotate(-7.73)" fill="#e2e2e2"/><rect x="221.86" y="101.3" width="41.75" height="8.04" transform="translate(-34.34 15.08) rotate(-7.73)" fill="#e2e2e2"/><rect x="223.27" y="111.71" width="41.75" height="8.04" transform="translate(-35.73 15.36) rotate(-7.73)" fill="#e2e2e2"/><rect x="224.68" y="122.11" width="41.75" height="8.04" transform="translate(-37.12 15.65) rotate(-7.73)" fill="#e2e2e2"/><circle cx="246.63" cy="136.26" r="2.39" transform="translate(-38.47 15.89) rotate(-7.73)" fill="#fff" stroke="#000" stroke-miterlimit="10"/><path d="M191.25,105c-0.12,0-.26.09-0.12,0.32l0.38,0Z" transform="translate(-22.39 -18.51)" fill="#20b5b0"/><path d="M191.45,106.89c0.25,0.23.63,0.48,0.85,0.18a3.94,3.94,0,0,0-.78-0.47c-0.15-.22-0.1-0.46,0-0.47a1,1,0,0,0-.36-0.45,1.19,1.19,0,0,0,.47,1.15C191.62,106.94,191.51,106.88,191.45,106.89Z" transform="translate(-22.39 -18.51)" fill="#20b5b0"/><path d="M195.35,121.59l-0.14.13A0.55,0.55,0,0,0,195.35,121.59Z" transform="translate(-22.39 -18.51)" fill="#20b5b0"/><path d="M202.3,107.12a0.18,0.18,0,0,0,0,.19C202.33,107.2,202.33,107.1,202.3,107.12Z" transform="translate(-22.39 -18.51)" fill="#20b5b0"/><path d="M203.19,104.49l0,0.16A0.18,0.18,0,0,0,203.19,104.49Z" transform="translate(-22.39 -18.51)" fill="#20b5b0"/><path d="M195.35,121.59l0.19-.18,0.19-.19C195.67,121.11,195.52,121.4,195.35,121.59Z" transform="translate(-22.39 -18.51)" fill="#20b5b0"/><path d="M193.19,110.12a0.56,0.56,0,0,0-.13-0.22,1.29,1.29,0,0,1,.08.21h0.05Z" transform="translate(-22.39 -18.51)" fill="#20b5b0"/><path d="M190,128.41l-0.06,0-0.36.67Z" transform="translate(-22.39 -18.51)" fill="#20b5b0"/><path d="M191.69,120c0,0.19.25,0.19,0.37,0.21a0.32,0.32,0,0,1-.16-0.31A0.4,0.4,0,0,0,191.69,120Z" transform="translate(-22.39 -18.51)" fill="#20b5b0"/><path d="M192.24,111.49l-0.06-.14Z" transform="translate(-22.39 -18.51)" fill="#20b5b0"/><path d="M192.83,125.39a0.43,0.43,0,0,0,0,.16A0.34,0.34,0,0,0,192.83,125.39Z" transform="translate(-22.39 -18.51)" fill="#20b5b0"/><path d="M124.09,100.87h0S124.08,100.91,124.09,100.87Z" transform="translate(-22.39 -18.51)" fill="#20b5b0"/><path d="M123.26,107l0-.08h-0.16Z" transform="translate(-22.39 -18.51)" fill="#20b5b0"/><path d="M203.88,99.41v0C203.92,99.57,203.91,99.5,203.88,99.41Z" transform="translate(-22.39 -18.51)" fill="#20b5b0"/><path d="M171.83,72.64c0.59,0.1-.76.56,0.09,0.6C171.82,73.15,172.54,72.66,171.83,72.64Z" transform="translate(-22.39 -18.51)" fill="#20b5b0"/><path d="M193.17,110.26l0,0.22A0.79,0.79,0,0,0,193.17,110.26Z" transform="translate(-22.39 -18.51)" fill="#20b5b0"/><path d="M171.93,73.24h0Z" transform="translate(-22.39 -18.51)" fill="#20b5b0"/><path d="M201.09,88a0.36,0.36,0,0,0-.06.16A0.22,0.22,0,0,0,201.09,88Z" transform="translate(-22.39 -18.51)" fill="#20b5b0"/><path d="M203.11,96.46V96.24A0.9,0.9,0,0,0,203.11,96.46Z" transform="translate(-22.39 -18.51)" fill="#20b5b0"/><path d="M198.45,84.23a0.55,0.55,0,0,0-.16-0.27,0.21,0.21,0,0,0,0,.06A0.28,0.28,0,0,1,198.45,84.23Z" transform="translate(-22.39 -18.51)" fill="#20b5b0"/><path d="M195.42,80.64a0.81,0.81,0,0,0,0,.1l0.12,0.09Z" transform="translate(-22.39 -18.51)" fill="#20b5b0"/><path d="M127.44,88.43a0.88,0.88,0,0,1-.32,0C127.32,88.5,127,89,127.44,88.43Z" transform="translate(-22.39 -18.51)" fill="#20b5b0"/><path d="M193,110.15a0.17,0.17,0,0,1,.14.12l0-.15A0.09,0.09,0,0,0,193,110.15Z" transform="translate(-22.39 -18.51)" fill="#20b5b0"/><path d="M196.54,85.37s-0.36-.59-0.37-0.58C196.27,84.95,196.4,85.17,196.54,85.37Z" transform="translate(-22.39 -18.51)" fill="#20b5b0"/><path d="M151.38,96l-0.2,0A0.33,0.33,0,0,0,151.38,96Z" transform="translate(-22.39 -18.51)" fill="#20b5b0"/><path d="M194.84,83.25a1,1,0,0,0-.12-0.42,0.27,0.27,0,0,0-.11,0Z" transform="translate(-22.39 -18.51)" fill="#20b5b0"/><path d="M127.11,88.44h0Z" transform="translate(-22.39 -18.51)" fill="#20b5b0"/><path d="M125.67,92.68c0.25-.58-0.22-0.4-0.37-0.61,0.2-.76.39-0.23,0.67-0.4a4.23,4.23,0,0,1,.12-1.27c0.07,0,.12,0,0.15.06a2.33,2.33,0,0,1,.36-1,4.62,4.62,0,0,0,.24-0.53,1.44,1.44,0,0,0,.16-0.51,0.22,0.22,0,0,1,.12,0,0.87,0.87,0,0,1-.47-0.21c0.17-.24.15-0.59,0.41-0.54a0.32,0.32,0,0,0,0,.33l0.1-.31c0.44,0-.16.41,0.05,0.56a3.9,3.9,0,0,1,.87-1.57c0.16,0.08,0,.29-0.13.45s-0.17.3,0.13,0.16l-0.52.49c0.74-.1-0.28.32,0.46,0.28a9,9,0,0,1,1.22-1.47c0-.28-0.24-0.15-0.23-0.43a1.31,1.31,0,0,1,.51-0.54,1.13,1.13,0,0,1,.49,0,0.63,0.63,0,0,0,.79-0.39,0.82,0.82,0,0,1,.58-1l0,0.46c0.75-.45.14-0.75,1.08-1-0.08.19-.54,0.47-0.41,0.43,0.66,0,.26-0.4.68-0.61l0.23,0.26a6.38,6.38,0,0,1,2.6-1.07c-0.05.1-.2,0.2,0,0.31,1.13-.23,2.18.7,2.8,1.69l0.52,0.16c0.07,0.09,0,.24-0.09.18,0.22,0.44.16-.1,0.4,0s0.09,0.4-.09.31a6.27,6.27,0,0,1,2.13,2.85L141,88.09c0.3,0.72,1,.43,1.12,1.19L142,89.2c0.8,1.53,2.12,2.93,2.84,4.19,0.44-.11,1.3,1.35,1.77.9,0.35,0.42.49,0.58,0.67,0.77a3.51,3.51,0,0,0,1.15.76,5.64,5.64,0,0,0,1.2-.14l0,0.3,0.72-.23s0.32,0.42.34,0.4l0.51-.08c-0.21,0-.43-0.14-0.39-0.23a4.66,4.66,0,0,1,2,.17l0.86-.45c0.4-.26.75-0.55,0.75-0.55a1.07,1.07,0,0,1-.41.5c0.71-.77.36,0.22,1-0.54-0.14,0-.05-0.19-0.07-0.25a3.49,3.49,0,0,0,1.63-1.34l0.07,0.24a17,17,0,0,0,2.26-3.26c-0.34.35-.59,0.06-0.42-0.28l0.36,0c0-.32-0.32.28-0.26-0.28,0.28-.4.49-0.09,0.43,0.2l0.21-.57a0.61,0.61,0,0,1,.16.26c0-.31.8-0.73,0.67-1.21l0.1,0c0.64-1.13.82-1.69,1.32-2.61a1.24,1.24,0,0,1,0-.86,23.67,23.67,0,0,0,1.53-2c0.22-.61-0.1-0.29-0.09-0.62,0.24,0.1.72-.66,0.61-0.17,0.57-.92.72-1.17,1.4-2.35-0.17,0-.31.15-0.33,0s0.44-.37.51-0.26l0,0.07a4.38,4.38,0,0,1,1.78-1.67,5,5,0,0,0,1.71-1.32l0,0.06,0.42-.46c0.21-.22.45-0.42,0.45-0.42,0.51-.23-0.19.33,0.24,0.27,0.93-1,1.85-.81,2.76-1.4a1.58,1.58,0,0,0,.87.13c0.32,0,.68-0.13,1.06-0.18a3.82,3.82,0,0,1,2.12,0l-0.06-.18c0.29-.18.35,0.09,0.56,0.15,0-.14-0.31-0.18-0.13-0.27,2.51-.12,5.14,1,7.48,2,0.85,0.38.85-.71,1.79,0.18l-0.44.17c1.94,0.36,3.49,1.72,5.21,2.51a0.4,0.4,0,0,1-.34,0,1.63,1.63,0,0,0,1.3.71c0.21,0.2-.06.18,0,0.38,0.21,0.36,1,.4,1,0.71,0,0.05-.14,0-0.2,0,0.29,0.06.86,0.83,0.87,0.45a11.67,11.67,0,0,1,1.32,1.38c0.48,0.06.7,1,1.1,0.8-0.39.26,0.5,1.17,0.92,1.43-0.2,0,.1.4-0.15,0.37,0.29,0.41.62,0.74,0.77,0.54,0,1.07,1.37,1.39,1,2.2a15.22,15.22,0,0,1,1.2,1.85,13.63,13.63,0,0,1,.91,1.89c-0.44.09-.51-1.43-1-1.19a8.5,8.5,0,0,1,1.42,3c0,0.34-.24-0.14-0.34-0.23a7.12,7.12,0,0,1,.47,1.82,17.63,17.63,0,0,0,.37,1.74,0.41,0.41,0,0,1-.15-0.23c0,0.22,0,.53.19,0.49l-0.08-.22c0.25-.4.72,0.85,0.87,0.89-0.6-.35-0.11,1.17-0.87.59a0.31,0.31,0,0,0,.28.29c0,0.23-.11.3-0.27,0.08,0.13,0.81.37,0.52,0.35,1.26a0.87,0.87,0,0,1-.25-0.23,2.08,2.08,0,0,1,.26,1.39c-0.06,0-.14,0-0.13-0.16,0,0.54.09,1,.14,1.49a3.45,3.45,0,0,1-.1,1.57c-0.37-.41-0.21.38-0.59,0.38v0.65l0.22-.22a4.9,4.9,0,0,1-.17,1.54l-0.05-.44-0.18,1,0.28-.55c0.05,0.6.47,0,.2,0.76a3,3,0,0,1-.43.78h0a1.48,1.48,0,0,1-.15,1,2.05,2.05,0,0,1-.47-0.16c0.22,0.36-.3,1.29-0.13,1.72a0.27,0.27,0,0,0-.27-0.19l0.16,0.3c-0.17.22-.22,0.24-0.35,0.15-0.32.72,0.53-.07,0,0.74a0.73,0.73,0,0,1,0-.21c-0.41.85-.56,1.74-1,2.49-0.44.07,0.23-.73-0.18-0.59-0.21.58-.39,1.21-0.61,1.82a7.23,7.23,0,0,1-.78,1.72l0.15-.17c0.37,0.41-.69.65-0.79,1.3,0-.15-0.15-0.32-0.12-0.26a6.65,6.65,0,0,0-.63,1.15L195,120.46l0-.18c-0.27.19-.5,0.62-0.71,0.78a1.25,1.25,0,0,0-.08.64,0.33,0.33,0,0,0-.44.12c-0.13.17-.31,0.48-0.52,0.84-0.39.69-1.07,1.74-.83,0.88a3.35,3.35,0,0,0,.3-0.58s-0.22.37-.17,0.19V123c-0.39.84-.25,0.56-0.59,1.4-0.15.28-.24,0.37-0.24,0.25a0.9,0.9,0,0,1,0-.15,0.21,0.21,0,0,0,.12-0.15c0-.08.1-0.2,0.16-0.34l0.52-1.22-0.33.63c0.71-1.62-.65,1.19-0.09-0.34l0.16-.24a0.43,0.43,0,0,1-.08-0.5c0.36-.59.11,0.09,0.39-0.32,0-.16-0.11-0.12-0.18-0.2a0.53,0.53,0,0,1,.09-0.6c0.06,0.1,0,.36.08,0.42a3,3,0,0,0,.44-1v0s0.23-.62.23-0.6l-0.11.17c-0.35,0-.34-0.3-0.31-0.58a2.1,2.1,0,0,0-.08-1.13c0.35,0.86.24,0.16,0.53,0.25,0.11-.21.22-0.54,0.3-0.44-0.22-.43.24-0.67-0.08-1.27,0.1,0,0-.44.26-0.33-0.06-.54-0.17.12-0.29,0.07a2.71,2.71,0,0,1,.06-1.42,3.07,3.07,0,0,0-.11-1.69c-0.27-1-.59-1.16-0.86-2.06,0.11-.33.39,0.21,0.39,0.21a2.51,2.51,0,0,0-.2-1.36c0.1,0.08.15,0,.24-0.2-0.08-.38-0.4-0.19-0.37-0.72a1.42,1.42,0,0,1,.47.3c-0.19-.44-0.48-0.84-0.67-1.28,0.13-.17.32,0.21,0.46,0.35a2.49,2.49,0,0,0-.84-1.38l0,0.35c-0.07-.18.19-0.17,0.28,0a0.43,0.43,0,0,1,0,.71s-0.14-.31-0.15-0.31c-0.46.48,0.41,1.27,0.52,2l-0.23-.1-0.24-.1s0.45,0.61.45,0.61c-0.08.16-.3,0.3-0.41,0-0.13.5,0.21,0.39,0,.83,0,0-.05,0-0.07,0l0.19,0.44c-0.1-.08-0.28.11-0.26-0.18-0.14.84,0.43,1.3,0.15,1.63l0-.07c0.21,1.14.32,0.09,0.71,0.95l-0.74.6,0.31,0.11c0,0.12,0,.35-0.15.31,0.2,0.44.14-.08,0.33,0.18-0.3.57,0.09,1.59-.41,1.7,0.22,0.22.22-.54,0.34,0.08-0.53.14,0,.71-0.24,1.22-0.26-.18-0.08-0.66-0.36-0.16a0.55,0.55,0,0,1,.07.69l-0.16.39a1.53,1.53,0,0,0-.08.49c0.18,0,.19.29,0.13,0.69a10.62,10.62,0,0,0-.16,1.33c-0.14.07-.61,2.09-1.21,3.81l-0.11.17c0.62-.95.28,0.21,0.25,0.62h0l-0.27.54c-0.32.65-.45,0.84-0.52,0.76l-0.17.66,0.06,0a3,3,0,0,1,.61-0.9L190,128.59a0.81,0.81,0,0,0,.21-0.17l0.55-.8a5.12,5.12,0,0,1,1-1.17c0.14-.37.18-0.69,0.31-1.11a7.31,7.31,0,0,1,.69-1.52l-0.24.73a3.55,3.55,0,0,1-.29.64,1.83,1.83,0,0,1,.34-0.5l-0.46.91a5.32,5.32,0,0,0,.51-0.89c-0.15.49,0.07,0.14-.07,0.55a1.16,1.16,0,0,0-.31.36c0.24-.24.52-0.39,0.58-0.22a2.31,2.31,0,0,1,.34-0.88c0.51-.68.09,0.25,0.4,0a3.19,3.19,0,0,0,.52-1.12c0.15-.19.19,0,0.26,0,0.28-.55,1.32-1.77.85-1.68l-0.07.07,0-.07h0a6.26,6.26,0,0,1,.51-0.91,7.91,7.91,0,0,1,.54-0.7,5.61,5.61,0,0,0,1-1.4l0.08,0.05A9.27,9.27,0,0,0,198,117c0.09-.17.37-0.32,0.44-0.19a2.33,2.33,0,0,1,.58-1.16c-0.08.53,0.22-.09-0.13,0.52a2.11,2.11,0,0,0,.67-1.36c0.13,0.33.49-.32,0.55-0.64l-0.35.35a5.43,5.43,0,0,1,.41-0.89l0.23,0.29c1-1.09.27-2.53,1.29-3.26-0.1-.41-0.41.64-0.56,0.25a11,11,0,0,1,1-1.24c0.42-.78-0.2-0.9.13-1.73-0.14.08-.47,0.1-0.43-0.57s0.66-.63.66-0.22c0,0.15-.08.21-0.12,0.19,0,0.21,0,.48.16,0.27l-0.1-.11c0.19-.27.38-1.12,0.52-0.88,0-.49-0.14-0.24-0.29.09a14,14,0,0,0,.5-2c-0.09.12-.25,0.22-0.22,0.09,0.35-1.18-.14-0.56-0.09-1.38,0.23-.44.41,0.21,0.35-0.63,0.17-.49.32-0.08,0.4,0.13a4.92,4.92,0,0,1,.32-1.86l0.08,0.41a2.63,2.63,0,0,1,0-.65l-0.25.22a0.51,0.51,0,0,1,.16-0.43c-0.15-.25-0.4.18-0.6-0.31,0.15-.31-0.14-0.95.17-1.06-0.07,1,.31-0.12.39,0.73a1.6,1.6,0,0,1,0-.6s0.07,0,.09.1c0.25-1-.37-0.43-0.4-1.41,0.18,0.11.33-.25,0.27-0.41,0,0.4-.28.21-0.45-0.14a2.24,2.24,0,0,0-.19-1l0,0.38a1.37,1.37,0,0,1-.3-0.84c0.13-.06.14,0.38,0.18,0.22-0.35-.43.14-1.13-0.18-1.76,0.06-.33.32-0.09,0.35-0.38-0.38-.7,0-0.87-0.34-1.61-0.17.29-.11,0.31-0.47-0.17l0.49,1.23-0.54-.73c0.09,0.38.35,0.77,0.37,1-0.29-.34-0.22-0.32-0.37-0.09,0.21-.6-0.46-1-0.39-1.63l0.57-.15c-0.06-1-.78-1.52-1.13-2.69l0.05,0.4a2.69,2.69,0,0,1-.56-1,0.5,0.5,0,0,0,.19-0.51c-0.12.08-.39-0.82-0.79-0.73V86.78c-0.41-.91-1.05-0.7-1.48-1.52,0.34,0.12.23-.32,0.69,0.14-0.15-.28-0.29-0.53-0.41-0.46,0-.22-0.72-0.57-0.73-0.92a0.64,0.64,0,0,1-.53-0.27,0.08,0.08,0,0,1,.08-0.06c-0.08.06-.45-0.35-0.43,0a3,3,0,0,0-.93-1.57,3.5,3.5,0,0,1-1-1.41c-0.56-.42-1.17-1-1.67-1.34,0.07,0,.07-0.07.14,0-0.55-.69-0.77.1-1.39-0.67-0.2-.56.51,0.18,0.34-0.1,0.3-.62-1-0.62-1.32-1.32l0.15,0.06c-0.28-.5-1.18-0.46-1.84-0.94a0.09,0.09,0,0,0,.05-0.08,9,9,0,0,1-2.37-.66c0.33-.13.38,0,0.36-0.27-0.34-.11-0.09.41-0.75,0.2a1.61,1.61,0,0,1-.51-0.82l0.62,0.26c-0.17-.46-0.8-0.34-1.09-0.54l0.1-.13c-1-.31-1.13,0-2.15-0.34l0.07,0.14c-0.69.2-.41-0.35-1.07-0.24L183,73.54c-0.4,0-1.44,0-2.13-.06a6.28,6.28,0,0,1,1.84-.2,3.28,3.28,0,0,0-1.55-.14,0.94,0.94,0,0,1,.52,0,4,4,0,0,1-1.94.07c0.13-.37-0.37-0.49-1-0.61a3,3,0,0,1-1.57-.46,12.06,12.06,0,0,1-2.16,0c-0.37,0-.75,0-1.15,0a4.84,4.84,0,0,0-1.21.17c0.7,0.46-.48.12-0.24,0.7a1.08,1.08,0,0,1-.55.11l-1.22,0c-0.33-.08.31-0.24,0.23-0.36-0.84.24-.44-0.15-1-0.07,0.19,0.15-.16.41-0.66,0.54l0.76,0c-1,.77-1.19,0-2.12.86l0.24-.36c-0.52.37-2,1.3-2.12,2.08-0.13,0-.35,0-0.17-0.23-1.22.92-2,2.65-2.87,3.34l0-.18a1.25,1.25,0,0,1-.38.72c0-.05-0.06-0.18-0.14-0.08a2.47,2.47,0,0,1-.48,1l0-.35c-1,1.05-.85,2-1.34,3-0.38-.23-1.05.63-1.38,1.07l0,0a24.26,24.26,0,0,0-1.55,3.87c-0.86.53-1.7,2.51-2.78,3.32,0.19-.1.24,0.24,0.12,0.45s-0.38.84-.63,0.51l0.08-.07a0.67,0.67,0,0,0-.6.17c-0.19.12-.38,0.28-0.56,0.41l0.23,0.48a8,8,0,0,0-2,.47,1.65,1.65,0,0,1-1.64-.31,5.68,5.68,0,0,1-1,0l0.12-.26a13.64,13.64,0,0,1-1.87-1.14l0.29,0c-0.42-.34-1.09.15-1.52-0.25l0.19-.42c-0.74-.78-1.08-1.89-2-2.61a0.24,0.24,0,0,1,.3.09c-0.29-.43-0.86-1.91-1.25-1.44,0.32-.21-0.59-1-1.08-1.5l0.29-.06a2.32,2.32,0,0,1-1.18-.81c-0.07-.17.09-0.26,0.17,0-0.23-.58-0.47-0.24-0.8-0.91l0.31,0.11a1,1,0,0,0-.8-0.55,1.82,1.82,0,0,1-.7-1.18,1,1,0,0,1-.85-0.3c0-.11.16-0.08,0.24-0.06a2.37,2.37,0,0,0-1.23-.63,3.4,3.4,0,0,1-1.09-.3,0.21,0.21,0,0,0-.11-0.19,3.83,3.83,0,0,1,1.55.51c0.13-.24-0.61-0.6.13-0.67-0.73-.12-1.88,0-2.61,0a0.4,0.4,0,0,1-.1-0.09l0.08,0a0.83,0.83,0,0,0-.47.08,2.58,2.58,0,0,0-.63,0,1.85,1.85,0,0,0-1.22.22c0.12,0.26-.33.38,0.16,0.44-0.06,0,.05-0.06.27-0.15a0.71,0.71,0,0,0,.14-0.07l0,0c0.23-.06.52-0.16,0.87-0.23a1.18,1.18,0,0,1-.93.34l-0.3.59c-0.58-.23-1.48,0-1.72-0.15a16.92,16.92,0,0,0-1.37,1,2.76,2.76,0,0,0-.84,1.21,0.44,0.44,0,0,1-.5.09,1.8,1.8,0,0,0,.29-0.37c-0.18.24-.55,0.48-0.78,0.79a0.94,0.94,0,0,0-.33.76c-0.63.4,0-.53-0.62,0.23V85.42a3.54,3.54,0,0,0-1.56,2.14c-0.18.39-.3,0.8-0.49,1.21a3.82,3.82,0,0,1-.91,1.2,0.41,0.41,0,0,1,.24-0.17,10.8,10.8,0,0,0-1.39,3.52c-0.18.61-.27,1.24-0.42,1.84s-0.31,1.21-.51,1.8a1.39,1.39,0,0,0,.17,1.21l-0.31.12,0.3,0.74a2.9,2.9,0,0,1-.27,1.41,2.09,2.09,0,0,0,0,1.63l0.2-.17c0,0.46.18,1.45,0,1.39a0.26,0.26,0,0,1,.13.32l-0.16,0,0.18,0.55c0.09,0.28.2,0.55,0.2,0.55,0,0.89-.65-0.07-0.5,1.23,0.12,0.47.7,1.29,0.77,1.09a0.52,0.52,0,0,1,.15-0.55l0.16,0.41c0.48,0,1,.18,1.13-0.85l-0.39-.65,0.19-.26,0.1,0.59A0.69,0.69,0,0,0,124,105a0.47,0.47,0,0,0,.21-0.33l-0.26-.32-0.25-.33c0.17-.1.39,0.28,0.45-0.2-0.23-.31-0.38.35-0.56-0.18,0.18-.36.36-0.27,0.15-0.66,0.11-.06.2,0,0.26,0.17a3.45,3.45,0,0,0-.36-1.11c0.23-.36-0.09-1.21.36-1.17a2.17,2.17,0,0,1-.36-1c0.5,0.61.1-1.22,0.66-1-0.47-.47-0.06-1.58-0.21-2.39a0.25,0.25,0,0,1,.06.21,2,2,0,0,1,.41-0.78c-0.37-.12-0.32-0.81-0.48-1.23,0.48-.44.38,0.42,0.77,0.34-0.32,0-.11-1-0.4-0.86a0.9,0.9,0,0,1,.58-0.42c-0.45-.21,0-0.38-0.16-0.79,0.41-.48.45,0,0.55-0.64C125.72,92.1,125.67,92.68,125.67,92.68Zm9.86-10.08h0a2.3,2.3,0,0,0-.28,0A2.6,2.6,0,0,1,135.52,82.59Zm1.11,0.16a1.4,1.4,0,0,0-.47-0.12,0.13,0.13,0,0,1,.15-0.17A0.79,0.79,0,0,0,136.64,82.76Zm-2.9-1.87a0.32,0.32,0,0,1,.37,0l-0.41.14,0,0A0.33,0.33,0,0,1,133.73,80.88Z" transform="translate(-22.39 -18.51)" fill="#20b5b0"/><path d="M133.41,81.35l-0.08.05,0.15,0,0.06-.11Z" transform="translate(-22.39 -18.51)" fill="#20b5b0"/><path d="M195.19,121.74l0,0-0.06,0h0Z" transform="translate(-22.39 -18.51)" fill="#20b5b0"/><polygon points="127.21 77.55 127.22 77.48 127.07 77.52 127.21 77.55" fill="#20b5b0"/><path d="M192.53,122.81l0.12-.27Z" transform="translate(-22.39 -18.51)" fill="#20b5b0"/><path d="M193,120.65l0.15-.35A2.3,2.3,0,0,0,193,120.65Z" transform="translate(-22.39 -18.51)" fill="#20b5b0"/><path d="M193.35,118.85a0.34,0.34,0,0,0-.11-0.06h0Z" transform="translate(-22.39 -18.51)" fill="#20b5b0"/><path d="M201.26,96.85a0.45,0.45,0,0,0,0-.09A0.53,0.53,0,1,0,201.26,96.85Z" transform="translate(-22.39 -18.51)" fill="#20b5b0"/><path d="M200.93,108.23c0-.13,0-0.26,0-0.39C200.83,108,200.77,108.18,200.93,108.23Z" transform="translate(-22.39 -18.51)" fill="#20b5b0"/><polygon points="174.19 66.92 174.19 66.92 174.15 66.86 174.19 66.92" fill="#20b5b0"/><path d="M201,107.32a1,1,0,0,0-.13.52A1.57,1.57,0,0,0,201,107.32Z" transform="translate(-22.39 -18.51)" fill="#20b5b0"/><path d="M192.65,107.87l0-.12h0Z" transform="translate(-22.39 -18.51)" fill="#20b5b0"/><path d="M192.58,107.75l-0.08-.12A0.17,0.17,0,0,0,192.58,107.75Z" transform="translate(-22.39 -18.51)" fill="#20b5b0"/><path d="M192.34,107.37l0.16,0.25A0.36,0.36,0,0,0,192.34,107.37Z" transform="translate(-22.39 -18.51)" fill="#20b5b0"/><path d="M193.25,111.23l0.11,0A0.16,0.16,0,0,0,193.25,111.23Z" transform="translate(-22.39 -18.51)" fill="#20b5b0"/><path d="M193.41,112.24a2.33,2.33,0,0,0,0-1l-0.09,0C193.54,111.39,193.23,112,193.41,112.24Z" transform="translate(-22.39 -18.51)" fill="#20b5b0"/><path d="M192.27,116.46l0.1-.82c-0.11.14-.26,0.33-0.28,0C191.74,116.62,192.34,115.39,192.27,116.46Z" transform="translate(-22.39 -18.51)" fill="#20b5b0"/><path d="M191.94,119c0-.44-0.16,0-0.22,0C191.79,119.25,191.81,119.32,191.94,119Z" transform="translate(-22.39 -18.51)" fill="#20b5b0"/><path d="M198.62,116.66l0.2,0.16C199,116.49,198.74,116.77,198.62,116.66Z" transform="translate(-22.39 -18.51)" fill="#20b5b0"/><polygon points="176.6 94.36 176.32 94.6 176.47 94.84 176.6 94.36" fill="#20b5b0"/><polygon points="179.09 93.06 179.06 93.22 179.19 92.63 179.09 93.06" fill="#20b5b0"/><path d="M196.18,81.07l-0.16.3C196.23,81.51,196.53,81.31,196.18,81.07Z" transform="translate(-22.39 -18.51)" fill="#20b5b0"/><path d="M184.27,73.94a0.71,0.71,0,0,0-.72-0.32A5,5,0,0,0,184.27,73.94Z" transform="translate(-22.39 -18.51)" fill="#20b5b0"/><path d="M152.8,93.27l0.14-.2a2.55,2.55,0,0,1-.31.26A0.77,0.77,0,0,0,152.8,93.27Z" transform="translate(-22.39 -18.51)" fill="#20b5b0"/><path d="M253.34,114.42c0.12,0,.14-0.24-0.12-0.32l-0.3.22Z" transform="translate(-22.39 -18.51)" fill="#20b5b0"/><path d="M252,113.11c-0.34,0-.79,0-0.77.41a3.94,3.94,0,0,0,.9-0.14c0.26,0.08.37,0.29,0.28,0.38a1,1,0,0,0,.56.11,1.19,1.19,0,0,0-1.1-.58C251.8,113.18,251.92,113.15,252,113.11Z" transform="translate(-22.39 -18.51)" fill="#20b5b0"/><path d="M239.52,104.37l0-.19A0.55,0.55,0,0,0,239.52,104.37Z" transform="translate(-22.39 -18.51)" fill="#20b5b0"/><path d="M243.51,119.91a0.18,0.18,0,0,0-.14-0.13C243.44,119.87,243.5,119.95,243.51,119.91Z" transform="translate(-22.39 -18.51)" fill="#20b5b0"/><path d="M244.53,122.5l-0.06-.15A0.18,0.18,0,0,0,244.53,122.5Z" transform="translate(-22.39 -18.51)" fill="#20b5b0"/><path d="M239.52,104.37l0,0.26,0,0.27C239.58,104.94,239.52,104.62,239.52,104.37Z" transform="translate(-22.39 -18.51)" fill="#20b5b0"/><path d="M248.56,111.75a0.56,0.56,0,0,0,.24.08,1.29,1.29,0,0,1-.2-0.11Z" transform="translate(-22.39 -18.51)" fill="#20b5b0"/><path d="M239.24,95.69l0-.05-0.15-.75Z" transform="translate(-22.39 -18.51)" fill="#20b5b0"/><path d="M243.36,103.24c-0.09-.17-0.31,0-0.42.08a0.32,0.32,0,0,1,.32.13A0.4,0.4,0,0,0,243.36,103.24Z" transform="translate(-22.39 -18.51)" fill="#20b5b0"/><path d="M248.4,110.09l0.14,0.07Z" transform="translate(-22.39 -18.51)" fill="#20b5b0"/><path d="M239,99.83a0.43,0.43,0,0,0-.1-0.13A0.34,0.34,0,0,0,239,99.83Z" transform="translate(-22.39 -18.51)" fill="#20b5b0"/><path d="M307.39,74.34l0,0S307.37,74.31,307.39,74.34Z" transform="translate(-22.39 -18.51)" fill="#20b5b0"/><path d="M304.06,69.11l0.08,0,0.11-.11Z" transform="translate(-22.39 -18.51)" fill="#20b5b0"/><path d="M247.27,126.83v0C247.14,126.73,247.19,126.78,247.27,126.83Z" transform="translate(-22.39 -18.51)" fill="#20b5b0"/><path d="M289,126.68c-0.51.3,0.22-.92-0.46-0.4C288.72,126.28,288.48,127.13,289,126.68Z" transform="translate(-22.39 -18.51)" fill="#20b5b0"/><path d="M248.48,111.63l-0.17-.15A0.79,0.79,0,0,0,248.48,111.63Z" transform="translate(-22.39 -18.51)" fill="#20b5b0"/><path d="M288.57,126.28h0l-0.07.05Z" transform="translate(-22.39 -18.51)" fill="#20b5b0"/><path d="M256.78,133.79a0.36,0.36,0,0,0-.06-0.16A0.22,0.22,0,0,0,256.78,133.79Z" transform="translate(-22.39 -18.51)" fill="#20b5b0"/><path d="M249.76,128.59l0.13,0.18A0.9,0.9,0,0,0,249.76,128.59Z" transform="translate(-22.39 -18.51)" fill="#20b5b0"/><path d="M261.2,134.95a0.55,0.55,0,0,0,.3.11l0,0A0.28,0.28,0,0,1,261.2,134.95Z" transform="translate(-22.39 -18.51)" fill="#20b5b0"/><path d="M265.83,135.75l-0.08-.06h-0.15Z" transform="translate(-22.39 -18.51)" fill="#20b5b0"/><path d="M312.83,86a0.88,0.88,0,0,1,.24-0.22C312.88,85.88,312.77,85.27,312.83,86Z" transform="translate(-22.39 -18.51)" fill="#20b5b0"/><path d="M248.66,111.63a0.17,0.17,0,0,1-.18,0l0.13,0.09A0.09,0.09,0,0,0,248.66,111.63Z" transform="translate(-22.39 -18.51)" fill="#20b5b0"/><path d="M261.93,132.85s0.65,0.22.66,0.21C262.4,133,262.17,132.91,261.93,132.85Z" transform="translate(-22.39 -18.51)" fill="#20b5b0"/><path d="M289.61,95.61l0.13-.16A0.33,0.33,0,0,0,289.61,95.61Z" transform="translate(-22.39 -18.51)" fill="#20b5b0"/><path d="M264.6,133.37a1,1,0,0,0,.36.24,0.27,0.27,0,0,0,.09-0.06Z" transform="translate(-22.39 -18.51)" fill="#20b5b0"/><path d="M313.08,85.8h0Z" transform="translate(-22.39 -18.51)" fill="#20b5b0"/><path d="M311.46,81.63c0.18,0.61.43,0.17,0.67,0.23,0.33,0.71-.15.43-0.25,0.73a4.23,4.23,0,0,1,.73,1.05c-0.05,0-.06.11-0.15,0.05a2.33,2.33,0,0,1,.35,1,4.63,4.63,0,0,0,.16.56,1.44,1.44,0,0,0,.21.49,0.23,0.23,0,0,1-.09.09,0.87,0.87,0,0,1,.5-0.14c0,0.3.27,0.55,0,.67a0.32,0.32,0,0,0-.18-0.27l0.12,0.31c-0.33.3-.15-0.42-0.4-0.4a3.9,3.9,0,0,1,.35,1.76c-0.17,0-.18-0.23-0.19-0.43s-0.06-.34-0.2,0l0.09-.71c-0.5.56,0-.42-0.53,0.09a9,9,0,0,1,0,1.91c0.17,0.22.28,0,.46,0.18a1.31,1.31,0,0,1,0,.74,1.13,1.13,0,0,1-.35.35,0.63,0.63,0,0,0-.35.81,0.82,0.82,0,0,1,.18,1.12l-0.31-.34c-0.29.83,0.38,0.67-.18,1.46-0.06-.2.12-0.71,0-0.59-0.48.47,0.06,0.48-.12,0.91l-0.35-.05a6.38,6.38,0,0,1-1.3,2.49c0-.11,0-0.28-0.2-0.24-0.72.91-2.12,0.87-3.23,0.51l-0.5.22c-0.11,0-.18-0.16,0-0.2-0.45-.2-0.06.18-0.31,0.25s-0.33-.25-0.13-0.29a6.27,6.27,0,0,1-3.47-.81l0.21,0c-0.7-.36-1,0.29-1.63-0.19h0.15c-1.59-.66-3.51-0.87-4.87-1.38-0.27.37-1.86-.2-1.93,0.45l-1-.16a3.51,3.51,0,0,0-1.37.15,5.65,5.65,0,0,0-.83.88L291,94.51l-0.41.64s-0.52-.11-0.52-0.09l-0.34.39c0.17-.12.41-0.17,0.44-0.08a4.66,4.66,0,0,1-1.63,1.15l-0.37.9c-0.13.46-.22,0.91-0.22,0.91a1.07,1.07,0,0,1,0-.65c0,1-.41.07-0.39,1,0.1-.1.16,0.11,0.22,0.14a3.49,3.49,0,0,0-.39,2.08l-0.21-.14a17,17,0,0,0,.37,3.95c0-.49.41-0.43,0.5-0.05l-0.3.2c0.24,0.22.06-.42,0.38,0.05,0,0.49-.31.38-0.46,0.12l0.21,0.57a0.61,0.61,0,0,1-.29-0.09c0.24,0.21-.15,1.08.27,1.36l-0.09.05c0.24,1.28.46,1.82,0.67,2.84a1.24,1.24,0,0,1,.57.64,23.67,23.67,0,0,0,.12,2.52c0.23,0.61.26,0.15,0.47,0.41-0.24.08-.13,1-0.36,0.53,0.16,1.07.2,1.36,0.45,2.7,0.1-.15.14-0.32,0.23-0.23,0,0.25-.1.57-0.22,0.53l0-.06a4.38,4.38,0,0,1-.29,2.43,5,5,0,0,0-.46,2.11v-0.07l0,0.62c0,0.31-.07.62-0.07,0.62-0.24.51-.06-0.38-0.36,0-0.05,1.38-.89,1.81-1.21,2.85a1.58,1.58,0,0,0-.75.46c-0.22.24-.44,0.54-0.69,0.82A3.82,3.82,0,0,1,284.2,128l0.16,0.09c-0.11.33-.32,0.16-0.52,0.25,0.11,0.09.36-.06,0.27,0.12-1.84,1.71-4.55,2.58-7,3.31-0.9.25-.19,1.09-1.48,1l0.23-.41c-1.72,1-3.78.93-5.6,1.43a0.4,0.4,0,0,1,.28-0.2,1.63,1.63,0,0,0-1.46.29c-0.29,0-.07-0.18-0.26-0.27-0.39-.14-1,0.32-1.2.08,0,0,.11-0.08.18-0.1-0.26.14-1.19-.08-1,0.21a11.67,11.67,0,0,1-1.9-.21c-0.41.27-1.17-.3-1.36,0.09,0.13-.45-1.14-0.57-1.62-0.5,0.18-.09-0.34-0.24-0.12-0.38-0.49-.13-1-0.17-0.94.08-0.71-.79-1.95-0.18-2.18-1a15.23,15.23,0,0,1-2.11-.64,13.63,13.63,0,0,1-1.92-.86c0.28-.36,1.31.76,1.51,0.29a8.5,8.5,0,0,1-3-1.4c-0.23-.24.27,0,0.41,0a7.12,7.12,0,0,1-1.53-1.09,17.62,17.62,0,0,0-1.4-1.1,0.41,0.41,0,0,1,.26.08c-0.17-.15-0.33-0.41-0.46-0.25l0.2,0.11c0.06,0.47-1.1-.19-1.24-0.12,0.69-.12-0.67-1,0.29-1a0.31,0.31,0,0,0-.4,0c-0.12-.19-0.11-0.3.16-0.24-0.62-.54-0.62-0.16-1.08-0.74a0.87,0.87,0,0,1,.34,0,2.08,2.08,0,0,1-1.09-.9c0.07,0,.09-0.11.2,0-0.36-.41-0.71-0.72-1.07-1.05a3.45,3.45,0,0,1-.93-1.27c0.55,0.08-.08-0.43.2-0.67l-0.42-.49,0,0.31a4.9,4.9,0,0,1-.86-1.29l0.32,0.3-0.53-.91,0.14,0.6c-0.43-.43-0.39.27-0.64-0.46a3,3,0,0,1-.18-0.88h0a1.48,1.48,0,0,1-.52-0.85,2.05,2.05,0,0,1,.46-0.18c-0.4-.13-0.6-1.18-1-1.4a0.27,0.27,0,0,0,.32,0l-0.31-.13c0-.28,0-0.33.17-0.34-0.22-.76-0.36.39-0.48-0.56a0.73,0.73,0,0,1,.16.15c-0.23-.91-0.69-1.7-0.82-2.56,0.29-.34.3,0.7,0.52,0.34-0.21-.58-0.48-1.18-0.7-1.78a7.23,7.23,0,0,1-.51-1.82v0.23c-0.55-.07.11-0.94-0.23-1.5,0.06,0.14.32,0.15,0.26,0.12a6.65,6.65,0,0,0-.25-1.29L240.49,105l0.15,0.11c0.08-.31,0-0.79,0-1.05a1.25,1.25,0,0,0-.35-0.54,0.33,0.33,0,0,0,.26-0.38c0-.22-0.07-0.57-0.14-1-0.14-.78-0.31-2,0.07-1.2a3.35,3.35,0,0,0,.14.64s-0.07-.43,0-0.25l0.1,0.1c-0.24-.89-0.18-0.59-0.45-1.45-0.07-.31-0.05-0.44,0-0.34l0.08,0.13a0.21,0.21,0,0,0,0,.19c0,0.09,0,.22.09,0.36l0.39,1.26-0.16-.69c0.51,1.7-.27-1.33.29,0.2l0,0.29a0.43,0.43,0,0,1,.38.33c0.11,0.68-.14,0-0.09.5,0.09,0.14.16,0,.27,0a0.53,0.53,0,0,1,.32.51c-0.11,0-.24-0.27-0.33-0.27a3,3,0,0,0,.31,1.05v0s0.22,0.62.21,0.6l0-.2c0.26-.24.45,0,0.61,0.24a2.1,2.1,0,0,0,.79.81c-0.82-.44-0.28,0-0.57.15,0.05,0.23.18,0.55,0.05,0.53,0.44,0.19.25,0.67,0.87,0.92-0.06.08,0.26,0.35,0,.43,0.39,0.37.06-.2,0.18-0.24a2.71,2.71,0,0,1,.87,1.12,3.07,3.07,0,0,0,1.17,1.22c0.85,0.6,1.2.51,2,1,0.13,0.32-.44.09-0.44,0.09a2.51,2.51,0,0,0,1,.91c-0.13,0-.1.12-0.06,0.3,0.31,0.24.42-.11,0.74,0.31a1.42,1.42,0,0,1-.56.07c0.43,0.21.9,0.34,1.33,0.55,0,0.22-.38,0-0.58,0a2.49,2.49,0,0,0,1.53.51l-0.24-.26c0.17,0.09,0,.25-0.19.21a0.43,0.43,0,0,1-.47-0.53l0.31,0.14c0-.66-1.14-0.71-1.66-1.16l0.24-.07,0.24-.08s-0.74-.18-0.74-0.18c0-.18,0-0.42.32-0.25-0.22-.47-0.41-0.17-0.57-0.61,0-.06,0-0.06.06,0l-0.43-.21c0.13,0,.14-0.26.31,0-0.43-.73-1.16-0.72-1.16-1.16l0.07,0c-0.89-.74-0.3.14-1.15-0.27l0.18-.93-0.31.11c-0.07-.1-0.21-0.29-0.09-0.33-0.44-.21-0.06.15-0.37,0.07-0.14-.63-1.1-1.16-0.78-1.56-0.31,0,.18.55-0.31,0.15,0.32-.45-0.49-0.52-0.61-1.09,0.32,0,.49.46,0.38-0.11a0.55,0.55,0,0,1-.5-0.48l-0.13-.4a1.53,1.53,0,0,0-.25-0.42c-0.14.11-.33-0.1-0.55-0.44a10.62,10.62,0,0,0-.74-1.12c0.06-.14-0.88-2-1.53-3.69l0-.2c0.13,1.13-.35,0-0.59-0.32h0l-0.14-.58c-0.17-.71-0.19-0.93-0.09-0.92l-0.29-.62,0,0.05a3,3,0,0,1,.11,1.08l-0.28-1.15a0.81,0.81,0,0,0-.05.27l0.09,1a5.12,5.12,0,0,1,0,1.53c0.13,0.37.31,0.64,0.48,1a7.31,7.31,0,0,1,.45,1.61l-0.29-.71a3.55,3.55,0,0,1-.19-0.68,1.83,1.83,0,0,1,.06.6l-0.24-1a5.32,5.32,0,0,0,.18,1c-0.2-.47-0.14-0.06-0.3-0.47a1.16,1.16,0,0,0,0-.48c0,0.34-.15.63-0.3,0.54a2.31,2.31,0,0,1,.31.89c0,0.85-.23-0.13-0.31.24a3.19,3.19,0,0,0,.33,1.19c0,0.24-.13.13-0.21,0.15,0.14,0.6.13,2.2,0.43,1.83V104l0,0.07h0a6.26,6.26,0,0,1,.2,1,7.9,7.9,0,0,1,0,.88,5.61,5.61,0,0,0,.14,1.7h-0.1a9.27,9.27,0,0,0,.6,1.87c0,0.19-.08.49-0.21,0.43a2.33,2.33,0,0,1,.3,1.26c-0.28-.46-0.11.21-0.24-0.48a2.11,2.11,0,0,0,.37,1.47c-0.31-.17-0.17.56,0,0.85l0-.49a5.44,5.44,0,0,1,.26.94l-0.37-.07c0,1.45,1.42,2.11,1.11,3.32,0.34,0.25-.1-0.75.27-0.55a11,11,0,0,1,.07,1.56c0.18,0.87.73,0.56,1,1.41,0.06-.15.3-0.38,0.69,0.16,0.24,0.57-.1.91-0.36,0.6-0.08-.13-0.07-0.21,0-0.22-0.13-.16-0.29-0.38-0.3-0.1l0.14,0c0,0.33.43,1.1,0.17,1,0.31,0.37.26,0.09,0.16-.25a14,14,0,0,0,.93,1.88c0-.15,0-0.32.11-0.21,0.49,1.13.47,0.34,1,1,0.11,0.49-.45.1,0.14,0.7,0.19,0.49-.2.27-0.39,0.16a4.92,4.92,0,0,1,1,1.63l-0.33-.26a2.63,2.63,0,0,1,.44.48l0-.33a0.51,0.51,0,0,1,.16.43c0.27,0.09.19-.39,0.65-0.15,0.09,0.33.72,0.63,0.55,0.92-0.58-.8-0.17.29-0.77-0.3a1.6,1.6,0,0,1,.4.45s-0.07,0-.13,0c0.43,0.9.56,0.09,1.21,0.82-0.21,0-.09.41,0.06,0.49-0.29-.28.08-0.34,0.43-0.18a2.24,2.24,0,0,0,.79.64l-0.22-.31a1.37,1.37,0,0,1,.77.45c-0.07.13-.35-0.2-0.28,0,0.54,0.11.62,1,1.27,1.23,0.17,0.29-.19.28,0,0.52,0.74,0.29.53,0.69,1.29,1-0.05-.33-0.12-0.31.47-0.17l-1.17-.63,0.89,0.21c-0.32-.23-0.76-0.36-0.93-0.54,0.44,0.08.37,0.1,0.34-.17,0.23,0.6,1,.45,1.35,1l-0.34.48c0.68,0.71,1.57.66,2.6,1.33l-0.3-.27a2.69,2.69,0,0,1,1.08.42,0.5,0.5,0,0,0,.18.51c0-.14.82,0.37,1.08,0.05l0.4,0.46c0.9,0.43,1.25-.14,2.11.21-0.34.12,0,.39-0.62,0.33,0.3,0.11.57,0.22,0.61,0.09,0.15,0.17.92,0,1.15,0.23a0.64,0.64,0,0,1,.58-0.14,0.08,0.08,0,0,1,0,.09c0-.09.57,0,0.32-0.29a3,3,0,0,0,1.72.6,3.5,3.5,0,0,1,1.69.41c0.69,0,1.52,0,2.14-.05,0,0.06,0,.1-0.12.08,0.86,0.17.52-.57,1.49-0.38,0.51,0.3-.51.19-0.19,0.3,0.17,0.67,1.17-.17,1.86.16l-0.16.05c0.54,0.2,1.2-.41,2-0.47a0.09,0.09,0,0,0,0,.1,9,9,0,0,1,2.24-1c-0.17.32-.31,0.22-0.1,0.44,0.33-.13-0.2-0.37.45-0.64a1.61,1.61,0,0,1,.92.29l-0.64.2c0.43,0.25.83-.25,1.18-0.29v0.16c1-.4.84-0.76,1.87-1.13l-0.15-.06c0.4-.6.54,0,1-0.5l0.33,0.29c0.34-.23,1.09-0.94,1.67-1.33a6.28,6.28,0,0,1-1.28,1.33,3.28,3.28,0,0,0,1.28-.89,0.94,0.94,0,0,1-.42.3,4,4,0,0,1,1.44-1.3c0.13,0.37.6,0.14,1.13-.15a3,3,0,0,1,1.5-.65,12.06,12.06,0,0,1,1.62-1.43c0.29-.24.57-0.5,0.86-0.76a4.85,4.85,0,0,0,.82-0.91c-0.83.1,0.29-.4-0.26-0.69a1.08,1.08,0,0,1,.35-0.44l0.93-.8c0.3-.15-0.08.39,0.06,0.43,0.49-.72.43-0.17,0.84-0.62-0.25,0-.14-0.42.15-0.84L290,125c0.24-1.21.93-.74,1.07-2l0,0.43c0.16-.62.68-2.28,0.28-3,0.09-.09.28-0.21,0.27,0.07,0.34-1.49-.2-3.3,0-4.41l0.15,0.1a1.25,1.25,0,0,1-.17-0.8c0.06,0,.16.1,0.16,0a2.47,2.47,0,0,1-.26-1.05l0.2,0.29c0.05-1.42-.65-2.08-0.93-3.19,0.44-.07.4-1.16,0.37-1.7h0.06a24.26,24.26,0,0,0-1.3-4c0.32-1-.31-3,0-4.33-0.09.2-.34,0-0.38-0.27s-0.25-.89.15-0.79l0,0.11a0.67,0.67,0,0,0,.36-0.52c0.07-.22.11-0.46,0.16-0.68L289.74,99A8,8,0,0,0,291,97.37a1.65,1.65,0,0,1,1.45-.82,5.68,5.68,0,0,1,.77-0.62l0.08,0.27a13.64,13.64,0,0,1,2.17-.33l-0.2.21c0.54,0,.74-0.81,1.33-0.79l0.13,0.44c1.07,0.12,2,.75,3.22.71a0.24,0.24,0,0,1-.28.12c0.5,0.15,1.89.91,1.88,0.29-0.11.36,1.13,0.42,1.79,0.46l-0.18.23a2.32,2.32,0,0,1,1.43-.15c0.16,0.08.09,0.26-.12,0.12,0.55,0.3.52-.12,1.2,0.18l-0.31.11a1,1,0,0,0,1-.09,1.82,1.82,0,0,1,1.29.45,1,1,0,0,1,.84-0.32c0.06,0.09-.07.16-0.15,0.2a2.37,2.37,0,0,0,1.35-.31,3.4,3.4,0,0,1,1-.47,0.21,0.21,0,0,0,.21.07,3.83,3.83,0,0,1-1.52.61c0.05,0.27.86,0.07,0.33,0.59,0.64-.38,1.41-1.24,2-1.67a0.4,0.4,0,0,1,.14,0l0,0.07a0.83,0.83,0,0,0,.31-0.37,2.58,2.58,0,0,0,.47-0.41,1.85,1.85,0,0,0,.79-1c-0.26-.12,0-0.5-0.4-0.24,0,0,0,.07-0.11.29a0.71,0.71,0,0,0-.06.14v0c-0.13.2-.3,0.46-0.52,0.74a1.18,1.18,0,0,1,.49-0.85l-0.15-.65c0.59-.19,1.13-1,1.41-1a16.92,16.92,0,0,0,.38-1.68,2.77,2.77,0,0,0-.13-1.47,0.44,0.44,0,0,1,.33-0.39,1.8,1.8,0,0,0,0,.47c0-.3.11-0.72,0.09-1.11a0.94,0.94,0,0,0-.24-0.8c0.22-.71.31,0.44,0.33-0.57l0.1,0.14a3.54,3.54,0,0,0-.19-2.64c-0.11-.41-0.28-0.81-0.41-1.24a3.82,3.82,0,0,1-.08-1.5,0.41,0.41,0,0,1-.08.28,10.8,10.8,0,0,0-1.2-3.58c-0.26-.58-0.59-1.12-0.87-1.68s-0.54-1.12-.76-1.71a1.39,1.39,0,0,0-.91-0.82l0.16-.29-0.71-.37a2.9,2.9,0,0,1-.7-1.25,2.09,2.09,0,0,0-1-1.27l0,0.26c-0.28-.37-1.07-1-0.86-1.09a0.26,0.26,0,0,1-.31-0.16L307,71l-0.5-.31c-0.24-.16-0.5-0.29-0.5-0.29-0.57-.68.54-0.37-0.41-1.26-0.4-.28-1.37-0.54-1.29-0.34a0.52,0.52,0,0,1,.24.52l-0.39-.21c-0.35.33-.87,0.5-0.31,1.38l0.72,0.25,0,0.32-0.45-.38a0.69,0.69,0,0,0,.66.45,0.47,0.47,0,0,0,0,.38l0.41,0.08,0.4,0.09c-0.07.19-.47,0-0.21,0.44,0.38,0.09.06-.51,0.55-0.22,0.09,0.39-.1.44,0.31,0.6,0,0.12-.16.12-0.31,0a3.45,3.45,0,0,0,1,.62c0.06,0.43.84,0.87,0.48,1.12a2.17,2.17,0,0,1,.89.5c-0.77-.15.71,1,0.15,1.21,0.67,0.06,1.06,1.17,1.7,1.69a0.25,0.25,0,0,1-.18-0.12,2,2,0,0,1,.19.86c0.37-.15.77,0.41,1.16,0.63-0.08.64-.57-0.08-0.81,0.24,0.28-.17.71,0.67,0.86,0.4a0.9,0.9,0,0,1-.18.69c0.48-.13.22,0.31,0.63,0.5,0,0.63-.34.29,0,0.85C311.79,82.1,311.46,81.63,311.46,81.63Zm-1.05,14.06h0a2.3,2.3,0,0,0,.21-0.19A2.6,2.6,0,0,1,310.41,95.69Zm-1,.59a1.4,1.4,0,0,0,.44-0.21,0.13,0.13,0,0,1,0,.23A0.79,0.79,0,0,0,309.45,96.28Zm3.43-.44a0.32,0.32,0,0,1-.27.26c0.06-.1.14-0.22,0.23-0.37v0A0.33,0.33,0,0,1,312.88,95.85Z" transform="translate(-22.39 -18.51)" fill="#20b5b0"/><path d="M312.83,95.28a0.58,0.58,0,0,1,0-.09l-0.13.09,0,0.12Z" transform="translate(-22.39 -18.51)" fill="#20b5b0"/><path d="M239.55,104.14v0a0.1,0.1,0,0,1,0-.06Z" transform="translate(-22.39 -18.51)" fill="#20b5b0"/><polygon points="268.58 75.94 268.62 76 268.71 75.88 268.58 75.94" fill="#20b5b0"/><path d="M240.89,101.62L241,101.9Z" transform="translate(-22.39 -18.51)" fill="#20b5b0"/><path d="M241.93,103.57l0.11,0.36A2.3,2.3,0,0,0,241.93,103.57Z" transform="translate(-22.39 -18.51)" fill="#20b5b0"/><path d="M242.81,105.18a0.34,0.34,0,0,0,.13,0h0Z" transform="translate(-22.39 -18.51)" fill="#20b5b0"/><path d="M250.92,127.1l0.07,0.05A0.53,0.53,0,1,0,250.92,127.1Z" transform="translate(-22.39 -18.51)" fill="#20b5b0"/><path d="M243.85,118.18c0.09,0.09.19,0.18,0.28,0.28C244.06,118.27,244,118.12,243.85,118.18Z" transform="translate(-22.39 -18.51)" fill="#20b5b0"/><polygon points="239.47 114.32 239.47 114.32 239.54 114.34 239.47 114.32" fill="#20b5b0"/><path d="M244.37,118.94a1,1,0,0,0-.24-0.48A1.57,1.57,0,0,0,244.37,118.94Z" transform="translate(-22.39 -18.51)" fill="#20b5b0"/><path d="M250.42,113.13l0.1,0.08,0,0Z" transform="translate(-22.39 -18.51)" fill="#20b5b0"/><path d="M250.55,113.17l0.14,0A0.17,0.17,0,0,0,250.55,113.17Z" transform="translate(-22.39 -18.51)" fill="#20b5b0"/><path d="M251,113.31l-0.29-.09A0.36,0.36,0,0,0,251,113.31Z" transform="translate(-22.39 -18.51)" fill="#20b5b0"/><path d="M247.8,110.94l-0.1.05A0.16,0.16,0,0,0,247.8,110.94Z" transform="translate(-22.39 -18.51)" fill="#20b5b0"/><path d="M247,110.26a2.33,2.33,0,0,0,.6.77l0.08,0C247.47,111,247.3,110.31,247,110.26Z" transform="translate(-22.39 -18.51)" fill="#20b5b0"/><path d="M245.18,106.3l0.45,0.7c0-.18,0-0.42.24-0.15C245.48,105.84,245.82,107.17,245.18,106.3Z" transform="translate(-22.39 -18.51)" fill="#20b5b0"/><path d="M243.8,104.15c0.29,0.34.13-.09,0.19-0.11C243.75,103.86,243.69,103.82,243.8,104.15Z" transform="translate(-22.39 -18.51)" fill="#20b5b0"/><path d="M240.19,110.24h-0.26C240,110.59,240,110.23,240.19,110.24Z" transform="translate(-22.39 -18.51)" fill="#20b5b0"/><polygon points="219.96 94.88 220.02 94.52 219.75 94.43 219.96 94.88" fill="#20b5b0"/><polygon points="218.9 97.47 218.81 97.33 219.09 97.86 218.9 97.47" fill="#20b5b0"/><path d="M265,135.91l-0.07-.33C264.65,135.6,264.55,135.95,265,135.91Z" transform="translate(-22.39 -18.51)" fill="#20b5b0"/><path d="M278.67,133.7a0.71,0.71,0,0,0,.76-0.22A5,5,0,0,0,278.67,133.7Z" transform="translate(-22.39 -18.51)" fill="#20b5b0"/><path d="M290.31,98.64l0,0.24a2.55,2.55,0,0,1,.07-0.4A0.77,0.77,0,0,0,290.31,98.64Z" transform="translate(-22.39 -18.51)" fill="#20b5b0"/><path d="M229,109.22a0.37,0.37,0,0,0,.14.2l-0.15-.3v0.1Z" transform="translate(-22.39 -18.51)" fill="#20b5b0"/><path d="M229.44,109.66a3,3,0,0,0-.34-0.67c0.13,0.29.06,0.18,0.22,0.53,0,0-.09-0.07-0.15-0.18,0,0.08-.07,0,0,0.15s0.2,0.19.13,0A1.32,1.32,0,0,1,229.44,109.66Z" transform="translate(-22.39 -18.51)" fill="#20b5b0"/><path d="M231.92,108.49l0,0Z" transform="translate(-22.39 -18.51)" fill="#20b5b0"/><path d="M233.26,107.41a0.1,0.1,0,0,0,0,.06A0.11,0.11,0,0,0,233.26,107.41Z" transform="translate(-22.39 -18.51)" fill="#20b5b0"/><path d="M233.73,107.44h0S233.75,107.46,233.73,107.44Z" transform="translate(-22.39 -18.51)" fill="#20b5b0"/><path d="M231.92,108.49l0.1,0C232,108.45,231.95,108.49,231.92,108.49Z" transform="translate(-22.39 -18.51)" fill="#20b5b0"/><path d="M229.32,108.78a0.33,0.33,0,0,0,0,.09,0.2,0.2,0,0,1,0,0Z" transform="translate(-22.39 -18.51)" fill="#20b5b0"/><path d="M231.51,109.18h0l0.07,0.11Z" transform="translate(-22.39 -18.51)" fill="#20b5b0"/><path d="M231.08,109.59a2.89,2.89,0,0,0-.21-0.33,0.6,0.6,0,0,1,.09.17Z" transform="translate(-22.39 -18.51)" fill="#20b5b0"/><path d="M230,109.68v0Z" transform="translate(-22.39 -18.51)" fill="#20b5b0"/><path d="M231.87,109l0.07,0.07Z" transform="translate(-22.39 -18.51)" fill="#20b5b0"/><path d="M236.85,94.45h0Z" transform="translate(-22.39 -18.51)" fill="#20b5b0"/><polygon points="215.92 75.52 215.94 75.53 216.09 75.55 215.92 75.52" fill="#20b5b0"/><path d="M234.35,107.24h0S234.36,107.26,234.35,107.24Z" transform="translate(-22.39 -18.51)" fill="#20b5b0"/><path d="M236.83,102.87a4.27,4.27,0,0,0-.54-0.26A2,2,0,0,0,236.83,102.87Z" transform="translate(-22.39 -18.51)" fill="#20b5b0"/><path d="M229.35,108.81h0S229.35,108.79,229.35,108.81Z" transform="translate(-22.39 -18.51)" fill="#20b5b0"/><path d="M236.29,102.6h0Z" transform="translate(-22.39 -18.51)" fill="#20b5b0"/><path d="M235,106.12l-0.11-.06Z" transform="translate(-22.39 -18.51)" fill="#20b5b0"/><path d="M234.11,106.63h0Z" transform="translate(-22.39 -18.51)" fill="#20b5b0"/><path d="M234.93,105.5s0.06,0,0,0h0S235,105.51,234.93,105.5Z" transform="translate(-22.39 -18.51)" fill="#20b5b0"/><path d="M235.2,105.08l-0.05,0v0h0Z" transform="translate(-22.39 -18.51)" fill="#20b5b0"/><path d="M236.72,95.84l0.25,0C236.78,95.83,236.72,95.75,236.72,95.84Z" transform="translate(-22.39 -18.51)" fill="#20b5b0"/><path d="M229.41,108.92a0.43,0.43,0,0,1-.05-0.11v0Z" transform="translate(-22.39 -18.51)" fill="#20b5b0"/><path d="M233.1,104.25l0.07,0A0.09,0.09,0,0,0,233.1,104.25Z" transform="translate(-22.39 -18.51)" fill="#20b5b0"/><path d="M235.89,99l0,0S235.87,99,235.89,99Z" transform="translate(-22.39 -18.51)" fill="#20b5b0"/><path d="M233.25,104l0.19,0.07-0.06,0Z" transform="translate(-22.39 -18.51)" fill="#20b5b0"/><path d="M237,95.87h0Z" transform="translate(-22.39 -18.51)" fill="#20b5b0"/><path d="M236.42,95.27a1.44,1.44,0,0,0,.55.16c0.09,0.1-.27,0-0.46,0a2.94,2.94,0,0,1,.39.21l-0.16,0a2.39,2.39,0,0,0,.33.3H237l0.5,0.1s0.22,0.11,0,.07A0.33,0.33,0,0,0,237.3,96l0.1,0.05A1.17,1.17,0,0,1,237,95.9c0.1,0.09.36,0.22,0.25,0.25a1.14,1.14,0,0,0-.4-0.14L237,96c-0.54-.06,0,0-0.53-0.11-0.12.08,0.15,0.14,0,.22,0.18,0.06.27,0.05,0.45,0.12,0.3,0.21-.86-0.08-0.44.12,0.21,0.08.63,0.18,0.39,0.21l-0.37-.11c-0.06.08,0.53,0.18,0.25,0.22s-0.11-.1-0.15-0.1c-0.31,0,.2.1,0.19,0.14l-0.33-.07c0,0.11.24,0.28,0.27,0.41a1,1,0,0,0-.3-0.08c0.13,0.18-.12.29-0.35,0.37l0.27,0.13a0.41,0.41,0,0,1-.19,0c-0.12,0,.18.05,0.28,0.11a0.35,0.35,0,0,1-.25,0c0.22,0.16.44,0.41,0.11,0.42l-0.08,0c-0.14,0,.55.25,0.27,0.25l0,0c-0.17.13,0,.39-0.43,0.38,0.4,0.15-.23.1,0.33,0.29a2.05,2.05,0,0,0-.63,0s0.33,0.16.38,0.23l-0.29-.1L236.17,99l-0.36-.09L235.87,99a0.58,0.58,0,0,1,.23,0c0.11,0.11-.26.08-0.41,0l0.2,0.23a0.82,0.82,0,0,1-.22-0.13c0.27,0.18-.31-0.09-0.06.07a1.66,1.66,0,0,1,.23.09c-0.19,0-.22.05-0.16,0.14l-0.2-.08a1.1,1.1,0,0,0,0,.38,1,1,0,0,1,.47.18l-0.31-.1a1.83,1.83,0,0,1,.34.14,1,1,0,0,1-.45-0.16l0.09,0.09-0.25-.11c0.18,0.09-.34,0,0,0.13l-0.09,0a1.23,1.23,0,0,0,0,.31,1.76,1.76,0,0,1,.39.23,0.58,0.58,0,0,0-.36.13,1.45,1.45,0,0,0,.36.2,1.29,1.29,0,0,1-.4-0.11,0.48,0.48,0,0,0,.13.36,0.84,0.84,0,0,1,.23.07s-0.12,0-.23,0l0,0c0.3,0.31-.83,0-0.4.36l0,0,0.2,0.23a2.09,2.09,0,0,1-.32-0.14c0.33,0.31-.15.17,0.06,0.4-0.72-.25-0.09.31-0.57,0.21l0.16,0.07c0.14,0.11-.11,0-0.15,0a1.08,1.08,0,0,1,.24.1c0.08,0.34-.49.36-0.75,0.51-0.09.06,0.78,0.5,0.35,0.4l-0.27-.19c0.25,0.37-.2.35,0,0.68a0.46,0.46,0,0,1-.13-0.12c-0.23-.09-0.09.12,0.08,0.22a1.33,1.33,0,0,1-.25-0.12c-0.14,0,.21.25,0,0.14a0.21,0.21,0,0,1-.07-0.07c0.08,0.08-.09.09,0.16,0.21-0.15,0,0,.18-0.14.14,0.24,0.2-.19,0,0.17.27-0.38-.25-0.37-0.09-0.22.06-0.11-.09-0.14,0-0.29-0.17,0,0,0,.13.22,0.26-0.5-.22.25,0.41-0.35,0.06a1.56,1.56,0,0,1,.16.65,4.7,4.7,0,0,0-.33-0.42c0.07,0.21.33,0.5,0.16,0.54a0.58,0.58,0,0,1-.2-0.19,1,1,0,0,0-.07.42,0.41,0.41,0,0,1-.08-0.1s-0.09,0,.08.13l0-.05a3.25,3.25,0,0,1,.55.56,7.4,7.4,0,0,1-.73-0.51,0.8,0.8,0,0,0,.19.2,0.48,0.48,0,0,1-.22-0.17,1.06,1.06,0,0,1,.17.31c-0.08-.06-0.1-0.1-0.18-0.18,0.13,0.15.25,0.31,0.15,0.3a0.26,0.26,0,0,1-.1-0.1c0,0.1.28,0.49,0.06,0.46a2,2,0,0,0-.42-0.3l0,0.12,0.15,0.1s0.12,0.25,0,.21l-0.09-.13,0,0.12,0.15,0.05c0.1,0.17.36,0.31,0.22,0.3a0.55,0.55,0,0,1-.23-0.09h0c0.07,0.1.14,0.21,0,.18s-0.3-.29-0.36-0.34c0.21,0.23,0,.16.19,0.41a2.17,2.17,0,0,0-.22-0.22l0.17,0.19a0.65,0.65,0,0,1-.22-0.17c-0.09,0,.36.31,0.15,0.24A0.72,0.72,0,0,1,232,107a1.51,1.51,0,0,1-.16.22c-0.28-.25,0-0.12-0.26-0.32a0.85,0.85,0,0,1,0,.54h0c0.35,0.4-.24-0.12-0.12.1a1.3,1.3,0,0,0-.15-0.18c-0.12,0,0,.2,0,0.41l-0.08-.11a0.36,0.36,0,0,0-.23,0,0.82,0.82,0,0,0,.18.25c-0.63-.48,0,0.52-0.5.12a0.17,0.17,0,0,0-.05-0.11l0,0.18a1.42,1.42,0,0,0,.23.22,0.34,0.34,0,0,1,.09.24,1,1,0,0,0-.33-0.38l0.14,0.17c-0.3-.28.28,0.37,0,0.21l-0.07-.1a0.31,0.31,0,0,1,0,.21,1.83,1.83,0,0,1-.18-0.3s0.23,0.47,0,.29c0-.07,0-0.09,0-0.17-0.23-.22-0.18-0.15-0.24-0.17h0l-0.15-.06,0.07,0.06a1,1,0,0,1,.16.59,1.36,1.36,0,0,0-.31-0.46,0.8,0.8,0,0,1-.19-0.19c0.11,0.22-.17-0.12,0,0.2a0.61,0.61,0,0,1-.17-0.19,0.63,0.63,0,0,0,.17.24c0.12,0.32-.38-0.23-0.22.21,0,0.21.18,0.5,0.19,0.69a0.88,0.88,0,0,1-.17-0.31c-0.12-.09-0.14-0.05-0.12.07a1,1,0,0,0-.15-0.22s0.16,0.32,0,.22-0.13-.25-0.17-0.35c0,0.1.07,0.28,0.07,0.38a1.34,1.34,0,0,1-.15-0.34,0.7,0.7,0,0,0,.09.45l0.08,0.06a0.79,0.79,0,0,1-.14-0.24c-0.07-.21.1,0,0.15,0.13v0.07c0.32,0.47.07-.15,0.14-0.16l0.19,0.37-0.12-.33a1.07,1.07,0,0,1,.21.35c0.15,0.15,0-.15.12,0a0.17,0.17,0,0,1,0,.06l0-.13a0.42,0.42,0,0,1,.11.21c0.21,0.15,0-.34.15-0.1v0a2.1,2.1,0,0,0-.28-0.61l0.47,0.59-0.16-.26a0.17,0.17,0,0,1,.12.11,1.86,1.86,0,0,0-.17-0.28c0.21,0.2.07-.2,0.36,0.19a0.85,0.85,0,0,1-.19-0.28c0.32,0.42,0-.11.2,0.05a0.63,0.63,0,0,0,.2.31c-0.24-.39.15,0,0.14-0.08-0.21-.29,0-0.18,0-0.33a0.8,0.8,0,0,0,.38.12l0,0c-0.21-.3-0.11-0.29-0.12-0.39a1.27,1.27,0,0,1,.22.34l0,0a0.42,0.42,0,0,1-.09-0.21l0.16,0.22c0-.06-0.09-0.34.09-0.26a2.9,2.9,0,0,1-.55-0.69,2,2,0,0,1,.26.34s-0.05-.11,0-0.07l0.12,0.2c0.1,0.05-.11-0.16-0.07-0.17,0.13,0.15.11,0.09,0.21,0.22s-0.07,0,0,0a0.58,0.58,0,0,1,.27.17,0.71,0.71,0,0,1-.17-0.24,0.76,0.76,0,0,1,.27.22,0.5,0.5,0,0,0-.14-0.26,0.65,0.65,0,0,1,.17.14c-0.06-.12.11-0.14-0.13-0.35h0c-0.11-.29.3,0,0.31-0.21l0.07,0.07a0.5,0.5,0,0,0,0-.35,0.62,0.62,0,0,1,.23.19c0-.09-0.09-0.18.08-0.12s0.12,0.1,0,.13c0.11,0,.23.11,0.09-0.14,0.16,0.2.26,0.19,0.23,0.11L232.7,108a0.07,0.07,0,0,1,.08-0.07l0.22,0.25c0.39,0.17-.31-0.67.26-0.28-0.14-.19-0.17-0.05-0.35-0.27a3.5,3.5,0,0,1,.49.24c0.2,0.06-.3-0.39-0.14-0.38a1.23,1.23,0,0,1-.37-0.4,1.09,1.09,0,0,1,.47.37s0,0-.07,0a0.28,0.28,0,0,0,.15.17l-0.08-.09a0.47,0.47,0,0,1,.3.13,0.25,0.25,0,0,0-.2-0.16c0.19,0.05.1-.1,0.25-0.08a0.55,0.55,0,0,1-.16-0.12c0.2,0-.13-0.19-0.12-0.29,0.17,0.08.32,0.29,0.26,0.13a0.75,0.75,0,0,1,.31.27c-0.12-.21.21,0,0.27,0l0,0.1a0.07,0.07,0,0,1,0-.09l-0.2-.13a0.17,0.17,0,0,1,.14.05,5.64,5.64,0,0,1-.45-0.41c0.11,0.05,0-.16.21,0a0.92,0.92,0,0,0,.24.29s0-.05,0,0a0.18,0.18,0,0,1,.06.06c0.28,0.1-.25-0.26-0.18-0.34a0.38,0.38,0,0,0,.26.15,0.79,0.79,0,0,1-.33-0.28c0.15,0,0-.12,0-0.14H234a0.22,0.22,0,0,1-.11-0.2c0.11,0.08,0,.09.11,0.12-0.22-.23.33,0.11,0.21-0.08,0.12,0,.27.2,0.35,0.23-0.13-.2.25,0.08,0.15-0.11a0.68,0.68,0,0,1-.31-0.27l0,0.21-0.22-.28a0.51,0.51,0,0,1,0,.16,0.6,0.6,0,0,0-.25-0.22c0.32,0.17-.1-0.21.14-0.12l0.47,0.35c0.28,0.08-.13-0.32.07-0.34l-0.11,0c-0.18-.15,0-0.08,0-0.17a1.69,1.69,0,0,0,.34.19,0.79,0.79,0,0,0-.25-0.31l0.25,0.1a4.41,4.41,0,0,0-.29-0.46,2,2,0,0,1,.39.33s0.07,0,0-.11c0.11,0.05-.17-0.23,0-0.15a0.6,0.6,0,0,1-.2-0.2l0.08,0.05a0.94,0.94,0,0,0-.28-0.22c0.57,0.25.12-.26,0.61,0a0.59,0.59,0,0,1,0-.27s0.08,0.05.06,0.05c0.21,0-.45-0.34-0.22-0.32a0.63,0.63,0,0,1,.24.17c0.56,0.32,0-.15.35,0l0,0c0.22,0.07-.15-0.24-0.07-0.29l0.08,0a0.94,0.94,0,0,1-.34-0.49,1.26,1.26,0,0,0,.33.21,2.6,2.6,0,0,1-.39-0.3,2.59,2.59,0,0,1,.51.19l0,0.07c0.33,0.14,0-.09.11-0.09l0.13,0.08a1.75,1.75,0,0,1-.25-0.4l-0.11,0c-0.31-.24.22,0.06,0-0.13l0.36,0.17a2.32,2.32,0,0,1-.3-0.41,2.77,2.77,0,0,1,.46.45s0-.14-0.12-0.25c0,0,.1.1,0,0.08-0.25-.19-0.35-0.32-0.31-0.39,0.67,0.36.28-.1,0.83,0.12-0.19-.26.23-0.21,0.27-0.39a2.74,2.74,0,0,1-.55-0.31c0-.05,0-0.06,0,0l0.38,0a0.83,0.83,0,0,1,.23.15,1.13,1.13,0,0,1,.42.09c-0.2-.08-0.27-0.16-0.17-0.17l-0.29-.05c-0.24-.25.51,0.12,0.27-0.13l0.16,0.12a0.49,0.49,0,0,0-.32-0.47,0.68,0.68,0,0,1,.26.12c0.14-.11-0.34-0.52,0-0.51l0.13,0.07s-0.24-.15-0.09-0.13a0.51,0.51,0,0,0,.15.06s-0.21-.17-0.12-0.17l0.14,0.09c0.24-.06-0.29-0.37-0.34-0.52a0.89,0.89,0,0,0,.67.08l0.06,0a1,1,0,0,0-.33-0.61c0.49,0.08.3-.24,0.6-0.3a0.92,0.92,0,0,1-.35-0.16c0.1,0-.25-0.2.12-0.06h0c0.38,0.11.31,0,.34-0.06l-0.5-.18c0.78,0.1-.14-0.47.55-0.34-0.11-.08-0.1-0.12-0.21-0.2l0.27,0.09a0.22,0.22,0,0,0,.12-0.26l0.19,0.09c0-.07-0.75-0.33-0.75-0.4L238.26,99c0-.12.42-0.14,0.09-0.37a0.56,0.56,0,0,1,.19.08c0-.05.34-0.14-0.22-0.28,0.36,0.1.07-.12-0.07-0.23l0.27,0.09A1.17,1.17,0,0,1,238,98s0.22,0,.14,0a1,1,0,0,1-.08-0.15L238.24,98c0-.06-0.06-0.08-0.25-0.17s0.1-.1.34,0c-0.15,0-.34-0.13-0.26-0.15a0.59,0.59,0,0,1,.17.06c0.21-.06-0.27-0.24,0-0.24l0.16,0a0.18,0.18,0,0,1-.08.13,2.47,2.47,0,0,1,.64.15c-0.17-.1-0.56-0.3-0.42-0.34h0.11s0,0,0-.05a0.14,0.14,0,0,0,.09,0c0.21,0,.13-0.05.15-0.08a1.83,1.83,0,0,0-.45-0.11,0,0,0,0,1,0,0l0,0h0a0.43,0.43,0,0,1,0,.09c-0.13-.06-0.24-0.12-0.08-0.12L238,97.05c0.39,0,.62,0,0.86.05a0.78,0.78,0,0,0-.55-0.45c-0.06,0,.16,0,0.24,0a0.36,0.36,0,0,0,.11.07,0.49,0.49,0,0,0-.37-0.28c0.18,0,.32.12,0.29,0l0.11,0c0.62-.08-0.85-0.52-0.06-0.59h-0.13c0.38-.19-0.21-0.58.36-0.73,0.12-.05-0.11-0.1-0.28-0.18l0.3,0-0.33-.13c-0.23-.14.76-0.07,0.31-0.28h-0.2s-0.1-.17.13-0.13c0,0-.21,0-0.1,0l0.16,0-0.25-.16a2.39,2.39,0,0,0,.67,0,1.26,1.26,0,0,0-.55-0.2,0.39,0.39,0,0,1-.26,0L238.33,94a5.11,5.11,0,0,0-1.27-.08l0.27,0.1h-0.23V94c-0.21,0,0,.05.09,0.09h-0.25l0.43,0.13a1.71,1.71,0,0,0-.46,0,3.84,3.84,0,0,1,.54.1c-0.21,0-.38,0-0.21,0a0.76,0.76,0,0,1-.24-0.05,0.7,0.7,0,0,0,.29.16c-0.26,0,0,.13-0.39.06a1,1,0,0,1,.34.15,3.45,3.45,0,0,0-.61,0c0.46,0.12.18,0.2,0.43,0.32a0.14,0.14,0,0,1-.08,0,0.87,0.87,0,0,1-.28,0,3,3,0,0,1,.69.24,5.86,5.86,0,0,1-.81-0.17c0.31,0.05.29,0.15,0.56,0.18a1.92,1.92,0,0,1-.44,0,0.71,0.71,0,0,1,.36.15c-0.25,0-.45-0.07-0.32,0A0.71,0.71,0,0,1,236.42,95.27ZM236.89,97h0v0Zm0,0.14a0.09,0.09,0,0,0,0-.06,0.4,0.4,0,0,1,.18.06A0.61,0.61,0,0,0,236.86,97.17Zm2,0.18s0,0-.08,0l0,0h0Z" transform="translate(-22.39 -18.51)" fill="#20b5b0"/><path d="M238.48,97.23h-0.08l0.08,0h0Z" transform="translate(-22.39 -18.51)" fill="#20b5b0"/><path d="M231.87,108.47h0l0,0Z" transform="translate(-22.39 -18.51)" fill="#20b5b0"/><polygon points="213.42 80.33 213.49 80.35 213.44 80.32 213.42 80.33" fill="#20b5b0"/><path d="M230.65,108.23l-0.05-.05Z" transform="translate(-22.39 -18.51)" fill="#20b5b0"/><path d="M230.37,108.39l-0.09-.05Z" transform="translate(-22.39 -18.51)" fill="#20b5b0"/><path d="M230.08,108.41l0.07,0.1h0Z" transform="translate(-22.39 -18.51)" fill="#20b5b0"/><path d="M232.62,105.48v0C232.58,105.42,232.59,105.44,232.62,105.48Z" transform="translate(-22.39 -18.51)" fill="#20b5b0"/><path d="M232.36,106.8l-0.07-.12S232.24,106.69,232.36,106.8Z" transform="translate(-22.39 -18.51)" fill="#20b5b0"/><polygon points="210.7 85.75 210.71 85.75 210.71 85.74 210.7 85.75" fill="#20b5b0"/><path d="M232.33,106.65c-0.06,0-.06,0,0,0S232.35,106.69,232.33,106.65Z" transform="translate(-22.39 -18.51)" fill="#20b5b0"/><path d="M229.13,108.88h0l0,0v0Z" transform="translate(-22.39 -18.51)" fill="#20b5b0"/><path d="M229.14,108.91v0S229.15,108.94,229.14,108.91Z" transform="translate(-22.39 -18.51)" fill="#20b5b0"/><path d="M229.15,109V109S229.12,109,229.15,109Z" transform="translate(-22.39 -18.51)" fill="#20b5b0"/><path d="M229.47,108.81l-0.05-.09Z" transform="translate(-22.39 -18.51)" fill="#20b5b0"/><path d="M229.53,108.74s-0.17-.15-0.16-0.08l0,0.07C229.35,108.59,229.61,108.89,229.53,108.74Z" transform="translate(-22.39 -18.51)" fill="#20b5b0"/><path d="M230.59,109.55l-0.12,0a0.44,0.44,0,0,1,.15.23C230.91,110,230.47,109.58,230.59,109.55Z" transform="translate(-22.39 -18.51)" fill="#20b5b0"/><path d="M230.92,109.52a0.35,0.35,0,0,0,.13.18A0.25,0.25,0,0,0,230.92,109.52Z" transform="translate(-22.39 -18.51)" fill="#20b5b0"/><path d="M232.49,108.21l0.17,0.19A0.54,0.54,0,0,0,232.49,108.21Z" transform="translate(-22.39 -18.51)" fill="#20b5b0"/><polygon points="209.43 88.49 209.29 88.4 209.45 88.58 209.43 88.49" fill="#20b5b0"/><polygon points="210.9 89.59 210.91 89.63 210.89 89.52 210.9 89.59" fill="#20b5b0"/><path d="M235.36,105.29l-0.27-.16C235.13,105.18,235.42,105.37,235.36,105.29Z" transform="translate(-22.39 -18.51)" fill="#20b5b0"/><path d="M235.84,103.85c0.15,0.06.26,0.07,0.13,0S235.82,103.81,235.84,103.85Z" transform="translate(-22.39 -18.51)" fill="#20b5b0"/><polygon points="215.69 81.49 215.78 81.55 215.72 81.47 215.69 81.49" fill="#20b5b0"/><path d="M206.54,124.65a0.36,0.36,0,0,0,0-.24l-0.08.32Z" transform="translate(-22.39 -18.51)" fill="#20b5b0"/><path d="M206.48,124a3,3,0,0,0-.18.73c0.08-.31.07-0.18,0.17-0.55,0,0,0,.11,0,0.23,0-.08,0,0.08.08-0.13s0-.27-0.11-0.07A1.32,1.32,0,0,1,206.48,124Z" transform="translate(-22.39 -18.51)" fill="#20b5b0"/><path d="M203.82,123.33l0,0A0.07,0.07,0,0,0,203.82,123.33Z" transform="translate(-22.39 -18.51)" fill="#20b5b0"/><path d="M202.11,123.29a0.1,0.1,0,0,0,0-.07A0.11,0.11,0,0,0,202.11,123.29Z" transform="translate(-22.39 -18.51)" fill="#20b5b0"/><path d="M201.76,123l0,0S201.76,122.94,201.76,123Z" transform="translate(-22.39 -18.51)" fill="#20b5b0"/><path d="M203.82,123.33l0-.1C203.77,123.33,203.8,123.31,203.82,123.33Z" transform="translate(-22.39 -18.51)" fill="#20b5b0"/><path d="M206,124.77a0.33,0.33,0,0,0,0-.08l0,0v0.05Z" transform="translate(-22.39 -18.51)" fill="#20b5b0"/><path d="M204.58,123.06h0l0-.13Z" transform="translate(-22.39 -18.51)" fill="#20b5b0"/><path d="M205.17,123a2.88,2.88,0,0,0,0,.39,0.6,0.6,0,0,1,0-.19V123Z" transform="translate(-22.39 -18.51)" fill="#20b5b0"/><path d="M206,123.63l0,0Z" transform="translate(-22.39 -18.51)" fill="#20b5b0"/><path d="M204.16,123v0Z" transform="translate(-22.39 -18.51)" fill="#20b5b0"/><path d="M191,130.9l0,0Z" transform="translate(-22.39 -18.51)" fill="#20b5b0"/><polygon points="167.23 111.78 167.22 111.76 167.12 111.64 167.23 111.78" fill="#20b5b0"/><path d="M201.15,122.72h0S201.16,122.7,201.15,122.72Z" transform="translate(-22.39 -18.51)" fill="#20b5b0"/><path d="M196.45,124.47a4.27,4.27,0,0,0,.24.55A2,2,0,0,0,196.45,124.47Z" transform="translate(-22.39 -18.51)" fill="#20b5b0"/><path d="M206,124.73h0S206,124.75,206,124.73Z" transform="translate(-22.39 -18.51)" fill="#20b5b0"/><polygon points="174.3 106.51 174.3 106.51 174.32 106.53 174.3 106.51" fill="#20b5b0"/><path d="M199.95,123.16l0,0.12Z" transform="translate(-22.39 -18.51)" fill="#20b5b0"/><path d="M201,123.34l0,0Z" transform="translate(-22.39 -18.51)" fill="#20b5b0"/><path d="M199.59,123.68s0-.05,0,0v0S199.56,123.64,199.59,123.68Z" transform="translate(-22.39 -18.51)" fill="#20b5b0"/><path d="M199.11,123.82l0,0.05v0Z" transform="translate(-22.39 -18.51)" fill="#20b5b0"/><path d="M192,129.92l-0.17-.19C192,129.88,191.95,130,192,129.92Z" transform="translate(-22.39 -18.51)" fill="#20b5b0"/><path d="M206,124.62a0.44,0.44,0,0,1,0,.12h0A0.78,0.78,0,0,0,206,124.62Z" transform="translate(-22.39 -18.51)" fill="#20b5b0"/><path d="M200.19,125.81l-0.08,0A0.09,0.09,0,0,0,200.19,125.81Z" transform="translate(-22.39 -18.51)" fill="#20b5b0"/><path d="M194.69,128v0S194.7,128,194.69,128Z" transform="translate(-22.39 -18.51)" fill="#20b5b0"/><path d="M199.92,125.89a0.91,0.91,0,0,0-.1-0.17v0.07Z" transform="translate(-22.39 -18.51)" fill="#20b5b0"/><path d="M191.82,129.73h0Z" transform="translate(-22.39 -18.51)" fill="#20b5b0"/><path d="M191.87,130.55a1.45,1.45,0,0,0-.32-0.48c0-.13.2,0.19,0.34,0.32a2.94,2.94,0,0,1-.16-0.41,0.71,0.71,0,0,1,.1.12,2.39,2.39,0,0,0-.06-0.44l0.06,0.07c-0.12-.14-0.24-0.29-0.32-0.39s-0.1-.22.06,0a0.33,0.33,0,0,0,.08.15l0-.1a1.17,1.17,0,0,1,.2.32c0-.13-0.13-0.4,0-0.35a1.14,1.14,0,0,0,.21.36l-0.14-.06c0.37,0.39-.06,0,0.33.42,0.14,0,0-.2.12-0.19-0.1-.16-0.18-0.22-0.27-0.38-0.09-.36.6,0.61,0.41,0.19-0.11-.2-0.36-0.55-0.17-0.41l0.21,0.32c0.1,0-.29-0.48-0.05-0.33,0.07,0.13,0,.15.05,0.18,0.23,0.2-.09-0.2-0.05-0.23l0.21,0.27c0.05-.1,0-0.37.06-0.48a1,1,0,0,0,.18.25c0-.22.27-0.14,0.5-0.06l-0.12-.27a0.41,0.41,0,0,1,.12.15c0.11,0.06-.1-0.15-0.15-0.26a0.35,0.35,0,0,1,.16.2c-0.07-.26-0.08-0.59.18-0.39l0,0.08c0.13,0.06-.26-0.55,0-0.36l0,0.05c0.21,0,.22-0.32.57,0-0.21-.37.24,0.07-0.07-0.44a2.05,2.05,0,0,0,.49.39s-0.15-.34-0.14-0.42l0.16,0.26-0.12-.31,0.22,0.3V128a0.58,0.58,0,0,1-.15-0.18c0-.15.25,0.1,0.33,0.24v-0.3a0.82,0.82,0,0,1,.08.24c-0.09-.31.18,0.27,0.1,0a1.66,1.66,0,0,1-.12-0.21c0.13,0.14.2,0.1,0.22,0l0.1,0.19a1.1,1.1,0,0,0,.27-0.27,1,1,0,0,1-.25-0.44l0.17,0.28a1.84,1.84,0,0,1-.17-0.33,1,1,0,0,1,.24.41v-0.13c0.05,0.08.06,0.13,0.12,0.24-0.08-.19.25,0.24,0.11-0.08l0.05,0.08a1.23,1.23,0,0,0,.19-0.25,1.76,1.76,0,0,1-.15-0.43,0.58,0.58,0,0,0,.36.13,1.45,1.45,0,0,0-.15-0.38,1.29,1.29,0,0,1,.24.35,0.48,0.48,0,0,0,.13-0.36,0.84,0.84,0,0,1-.13-0.2s0.1,0.07.15,0.18v0c0-.42.66,0.51,0.54,0v-0.28a2.1,2.1,0,0,1,.16.31c-0.05-.45.23,0,0.21-0.34,0.39,0.65.27-.18,0.57,0.21l-0.08-.16c0-.17.07,0.08,0.11,0.11a1.08,1.08,0,0,1-.11-0.23c0.16-.31.61,0,0.91,0.09,0.11,0-.28-0.88,0-0.53l0.08,0.32c0-.44.38-0.13,0.45-0.52a0.46,0.46,0,0,1,0,.17c0.12,0.21.15,0,.09-0.22a1.32,1.32,0,0,1,.11.25c0.08,0.12,0-.32.1-0.1a0.22,0.22,0,0,1,0,.1c0-.12.13,0,0-0.26,0.11,0.11.1-.16,0.2,0-0.05-.31.16,0.11,0-0.32,0.13,0.43.23,0.31,0.21,0.1,0,0.14.08,0.12,0.11,0.31,0,0,.07-0.12,0-0.34,0.24,0.49.07-.48,0.31,0.18a1.56,1.56,0,0,1,.3-0.6,4.69,4.69,0,0,0,0,.53c0.08-.21.07-0.6,0.22-0.52a0.58,0.58,0,0,1,0,.27,1,1,0,0,0,.32-0.28,0.41,0.41,0,0,1,0,.12s0.07,0.05,0-.15v0.06a3.25,3.25,0,0,1-.06-0.78,7.39,7.39,0,0,1,.23.86,0.8,0.8,0,0,0,0-.27,0.48,0.48,0,0,1,.06.27,1.06,1.06,0,0,1,.07-0.35c0,0.1,0,.14,0,0.25,0-.2,0-0.4.08-0.33a0.26,0.26,0,0,1,0,.14c0.1-.05.1-0.55,0.25-0.39a2,2,0,0,0,.13.5l0-.12-0.05-.18c0.06,0,.07-0.27.14-0.16l0,0.16,0.1-.08-0.08-.13c0-.2-0.07-0.47,0-0.37a0.55,0.55,0,0,1,.12.21h0c0-.12,0-0.25.08-0.16s0,0.41.06,0.49c0-.31.12-0.1,0.12-0.43a2.18,2.18,0,0,0,0,.31v-0.25a0.65,0.65,0,0,1,.06.27c0.08,0-.08-0.47,0-0.28a0.73,0.73,0,0,1,0,.1,1.51,1.51,0,0,1,.27-0.07c0.06,0.37-.07.1,0,0.41a0.85,0.85,0,0,1,.35-0.4l0,0c0-.53.11,0.25,0.16,0a1.31,1.31,0,0,0,0,.23c0.09,0.09.16-.13,0.29-0.3v0.14a0.36,0.36,0,0,0,.19.13,0.81,0.81,0,0,0,0-.31c0.17,0.78.32-.42,0.46,0.23a0.17,0.17,0,0,0,0,.12l0.13-.13a1.42,1.42,0,0,0,0-.32,0.34,0.34,0,0,1,.09-0.24,1,1,0,0,0,0,.5v-0.22c0.05,0.41,0-.46.11-0.19v0.12a0.31,0.31,0,0,1,.11-0.19,1.83,1.83,0,0,1-.05.34c0.05,0,.13-0.51.16-0.24,0,0.07-.06.08-0.08,0.15,0,0.31,0,.23.08,0.28h0l0.08,0.14,0-.09a1,1,0,0,1,.26-0.56,1.36,1.36,0,0,0-.06.55,0.8,0.8,0,0,1,0,.27c0.06-.24,0,0.2.13-0.15a0.6,0.6,0,0,1,0,.26,0.63,0.63,0,0,0,0-.29c0.11-.32.14,0.43,0.31,0,0.12-.17.18-0.5,0.3-0.65a0.88,0.88,0,0,1-.07.35c0,0.15.07,0.13,0.14,0a1,1,0,0,0,0,.27s0.08-.35.11-0.2-0.06.28-.1,0.38c0.06-.08.13-0.26,0.19-0.34a1.34,1.34,0,0,1-.1.36,0.7,0.7,0,0,0,.22-0.4l0-.1a0.79,0.79,0,0,1-.05.28c-0.08.2,0-.1,0-0.2l0-.06c0.06-.57-0.15.07-0.21,0l0.09-.41-0.12.33a1.07,1.07,0,0,1,.07-0.4c0-.21-0.06.14-0.08-0.09a0.17,0.17,0,0,1,0-.07l-0.07.12a0.42,0.42,0,0,1,.05-0.23c-0.06-.25-0.18.29-0.18,0v0a2.09,2.09,0,0,0-.18.65l0-.76,0,0.3a0.17,0.17,0,0,1,0-.16,1.86,1.86,0,0,0-.05.33c0-.28-0.18.11-0.15-0.38a0.85,0.85,0,0,1,0,.34c0-.52-0.08.08-0.12-0.17a0.63,0.63,0,0,0,0-.36c-0.07.45-.1-0.11-0.16,0,0,0.36-.11.14-0.2,0.26a0.8,0.8,0,0,0-.21-0.33v-0.06c0,0.37-.1.3-0.16,0.37a1.27,1.27,0,0,1,.05-0.4H204.6a0.42,0.42,0,0,1-.07.22l0-.27c-0.07,0-.15.32-0.24,0.14a2.9,2.9,0,0,1,0,.88,2,2,0,0,1,0-.43s0,0.11,0,.06l0-.23c0-.1,0,0.19-0.05.17,0-.2,0-0.14,0-0.3s0,0.08,0,0a0.58,0.58,0,0,1-.1-0.3,0.71,0.71,0,0,1,0,.29,0.76,0.76,0,0,1-.07-0.34,0.5,0.5,0,0,0-.06.29,0.65,0.65,0,0,1,0-.22c0,0.13-.17,0-0.12.35v0h0c-0.11.29-.25-0.17-0.37,0v-0.1a0.5,0.5,0,0,0-.19.29,0.62,0.62,0,0,1-.06-0.29c0,0.08,0,.19-0.14,0s0-.15,0-0.13c-0.08-.08-0.11-0.23-0.16,0,0-.25-0.08-0.31-0.11-0.23l0.07,0.17a0.07,0.07,0,0,1-.11,0v-0.33c-0.19-.39-0.19.71-0.38,0.05,0,0.24.1,0.15,0.09,0.43a3.51,3.51,0,0,1-.22-0.5c-0.12-.17,0,0.49-0.14.38a1.23,1.23,0,0,1,0,.55,1.09,1.09,0,0,1-.12-0.58s0,0,0,.06a0.28,0.28,0,0,0,0-.22v0.12a0.47,0.47,0,0,1-.15-0.29,0.25,0.25,0,0,0,.05.25c-0.11-.16-0.14,0-0.24-0.09a0.55,0.55,0,0,1,0,.2c-0.15-.13,0,0.23-0.1.3-0.08-.17-0.05-0.43-0.12-0.26a0.75,0.75,0,0,1-.06-0.41c0,0.24-.18-0.12-0.23-0.15l0-.1a0.07,0.07,0,0,1-.06.07l0.07,0.23a0.17,0.17,0,0,1-.07-0.13,5.65,5.65,0,0,1,.08.6c-0.05-.11-0.07.15-0.15-0.16a0.92,0.92,0,0,0,0-.38s0,0-.06,0a0.18,0.18,0,0,1,0-.08c-0.15-.26,0,0.36-0.08.37a0.38,0.38,0,0,0-.1-0.28,0.79,0.79,0,0,1,.07.43c-0.09-.12-0.05.12-0.09,0.11L201,123.4a0.22,0.22,0,0,1,0,.22c0-.13,0-0.1,0-0.16,0,0.32-.18-0.29-0.21-0.07-0.06-.11-0.08-0.32-0.12-0.4,0,0.24-.14-0.22-0.18,0a0.69,0.69,0,0,1,.06.41l0.1-.19v0.36a0.51,0.51,0,0,1,.09-0.13,0.61,0.61,0,0,0,.06.33c-0.14-.34-0.06.23-0.18,0l-0.13-.57c-0.16-.23-0.1.33-0.27,0.21l0.07,0.09c0,0.23-.07,0-0.09.15a1.68,1.68,0,0,0-.14-0.37,0.79,0.79,0,0,0,0,.4l-0.12-.23a4.41,4.41,0,0,0-.08.54,2,2,0,0,1-.09-0.5s-0.07,0,0,.11c-0.05-.11,0,0.28-0.1.11a0.6,0.6,0,0,1,0,.28,0.69,0.69,0,0,1,0-.09,0.94,0.94,0,0,0,.07.34c-0.27-.56-0.26.12-0.5-0.36a0.59,0.59,0,0,1-.17.2c0-.06,0-0.09,0-0.08-0.14-.15.12,0.55,0,0.39a0.63,0.63,0,0,1-.07-0.28c-0.22-.61-0.09.12-0.28-0.22v0c-0.12-.19,0,0.28-0.14.27a0.74,0.74,0,0,0,0-.09,0.94,0.94,0,0,1-.05.59,1.26,1.26,0,0,0-.12-0.38,2.61,2.61,0,0,1,.11.48,2.59,2.59,0,0,1-.27-0.47l0.06,0c-0.16-.32-0.08,0-0.14,0l-0.05-.15a1.75,1.75,0,0,1-.06.47l0.05,0.11c0.08,0.38-.13-0.18-0.08.11l-0.16-.36a2.32,2.32,0,0,1,0,.5,2.77,2.77,0,0,1-.06-0.64s-0.12.08-.07,0.27c0,0,0-.14,0-0.09,0.07,0.31.07,0.47,0,.49-0.28-.71-0.27-0.1-0.56-0.62,0,0.32-.31,0-0.45.13a2.75,2.75,0,0,1,.22.59c0,0.05,0,0-.06,0l-0.26-.28a0.83,0.83,0,0,1-.08-0.26,1.13,1.13,0,0,1-.26-0.34c0.1,0.19.1,0.3,0,.24l0.18,0.23c0,0.35-.31-0.42-0.29-0.08l0-.19a0.49,0.49,0,0,0-.06.56,0.67,0.67,0,0,1-.12-0.25c-0.17,0-.07.61-0.31,0.4l-0.06-.14c0,0.05.08,0.27,0,.16a0.51,0.51,0,0,0-.07-0.14c0,0.05.05,0.27,0,.21l0-.16c-0.22-.1,0,0.47-0.07.62a0.89,0.89,0,0,0-.46-0.5l0-.06a1,1,0,0,0-.14.68c-0.32-.37-0.39,0-0.66-0.16a0.92,0.92,0,0,1,.17.35c-0.08-.06.07,0.32-0.13,0h0c-0.23-.33-0.24-0.2-0.3-0.17l0.26,0.46c-0.53-.58-0.2.45-0.63-0.09,0,0.13,0,.15,0,0.29l-0.15-.24a0.22,0.22,0,0,0-.26.12l-0.09-.19c-0.07,0,.36.74,0.32,0.79l-0.25-.34c-0.1.07-.41-0.16-0.31,0.22a0.56,0.56,0,0,1-.09-0.18c-0.06,0-.35-0.11,0,0.36-0.21-.31-0.13,0-0.09.22l-0.15-.24a1.17,1.17,0,0,1,.2.53s-0.14-.17-0.08-0.13a1,1,0,0,1,0,.17l-0.08-.16c-0.07,0,0,.1.08,0.29s-0.14,0-.29-0.19c0.08,0.13.17,0.32,0.1,0.28a0.59,0.59,0,0,1-.09-0.16c-0.2-.09.06,0.36-0.16,0.18l-0.11-.13a0.18,0.18,0,0,1,.15-0.05,2.47,2.47,0,0,1-.39-0.53c0.07,0.19.23,0.59,0.11,0.53l-0.06-.07v0s0,0,0,.06a0.14,0.14,0,0,0-.09,0c-0.13-.17-0.13,0-0.17,0a1.83,1.83,0,0,0,.28.38,0,0,0,0,1,0-.05,0.07,0.07,0,0,0,0,0v0l0.06-.07c0.06,0.13.11,0.25,0,.14l0.23,0.39c-0.27-.29-0.47-0.41-0.62-0.59a0.78,0.78,0,0,0,.13.7c0,0.07-.12-0.1-0.18-0.16a0.36,0.36,0,0,0,0-.13,0.49,0.49,0,0,0,.1.45c-0.16-.09-0.17-0.3-0.22-0.18l-0.06-.1c-0.53-.34.31,0.94-0.33,0.49a0.38,0.38,0,0,1,.1.08c-0.41-.1-0.21.57-0.75,0.33-0.12,0,0,.15.1,0.32l-0.21-.22,0.17,0.31c0.09,0.26-.63-0.44-0.41,0l0.15,0.14c-0.06,0,0,.19-0.19,0,0,0,.13.17,0,0.1l-0.11-.12,0.09,0.28a2.39,2.39,0,0,0-.54-0.4,1.26,1.26,0,0,0,.29.5,0.39,0.39,0,0,1,.22.15l0,0.09a5.11,5.11,0,0,0,.92.88l-0.14-.25,0.17,0.15,0,0c0.17,0.14.06,0,0-.13a1.17,1.17,0,0,0,.19.16l-0.25-.38a1.71,1.71,0,0,0,.32.33,3.84,3.84,0,0,1-.35-0.42c0.17,0.13.27,0.27,0.18,0.11a0.76,0.76,0,0,1,.15.2,0.7,0.7,0,0,0-.12-0.31c0.2,0.17.05-.13,0.34,0.2a1,1,0,0,1-.16-0.34,3.45,3.45,0,0,0,.47.38c-0.27-.39,0-0.27-0.12-0.52a0.14,0.14,0,0,1,0,.08,0.87,0.87,0,0,1,.24.15,3,3,0,0,1-.37-0.63,5.86,5.86,0,0,1,.51.65c-0.2-.24-0.13-0.31-0.31-0.5a1.92,1.92,0,0,1,.32.3,0.71,0.71,0,0,1-.18-0.35c0.2,0.15.3,0.35,0.26,0.19A0.71,0.71,0,0,1,191.87,130.55Zm0.78-1.66h0l0,0Zm0.11-.08-0.06,0a0.4,0.4,0,0,1-.1-0.16A0.61,0.61,0,0,0,192.75,128.81Zm-1.38-1.41s0,0,.07,0a0.12,0.12,0,0,0,0,.05l0,0Z" transform="translate(-22.39 -18.51)" fill="#20b5b0"/><path d="M191.55,127.73v0l0,0,0-.08h0Z" transform="translate(-22.39 -18.51)" fill="#20b5b0"/><path d="M203.85,123.38h0v0Z" transform="translate(-22.39 -18.51)" fill="#20b5b0"/><polygon points="172.24 109.7 172.2 109.64 172.22 109.7 172.24 109.7" fill="#20b5b0"/><path d="M204.62,124.34a0.38,0.38,0,0,0,0,.07v-0.07Z" transform="translate(-22.39 -18.51)" fill="#20b5b0"/><path d="M204.94,124.41l0,0.1A0.37,0.37,0,0,0,204.94,124.41Z" transform="translate(-22.39 -18.51)" fill="#20b5b0"/><path d="M205.18,124.57v-0.12h0v0.12Z" transform="translate(-22.39 -18.51)" fill="#20b5b0"/><path d="M201.35,125.18h0C201.34,125.25,201.35,125.23,201.35,125.18Z" transform="translate(-22.39 -18.51)" fill="#20b5b0"/><path d="M202.4,124.33a1.1,1.1,0,0,1,0,.14S202.42,124.49,202.4,124.33Z" transform="translate(-22.39 -18.51)" fill="#20b5b0"/><polygon points="177.81 107.31 177.81 107.3 177.8 107.31 177.81 107.31" fill="#20b5b0"/><path d="M202.32,124.47c0,0.05,0,0,.06,0S202.33,124.43,202.32,124.47Z" transform="translate(-22.39 -18.51)" fill="#20b5b0"/><path d="M206.21,124.83h0v0Z" transform="translate(-22.39 -18.51)" fill="#20b5b0"/><path d="M206.23,124.79l0,0S206.23,124.76,206.23,124.79Z" transform="translate(-22.39 -18.51)" fill="#20b5b0"/><path d="M206.28,124.7l0,0.07S206.26,124.77,206.28,124.7Z" transform="translate(-22.39 -18.51)" fill="#20b5b0"/><path d="M205.91,124.66l0,0.1Z" transform="translate(-22.39 -18.51)" fill="#20b5b0"/><path d="M205.81,124.67s0,0.22.07,0.16v-0.08C205.85,124.91,205.85,124.51,205.81,124.67Z" transform="translate(-22.39 -18.51)" fill="#20b5b0"/><path d="M205.52,123.37l0.08,0.09a0.43,0.43,0,0,1,0-.28C205.55,122.85,205.63,123.43,205.52,123.37Z" transform="translate(-22.39 -18.51)" fill="#20b5b0"/><path d="M205.25,123.18a0.35,0.35,0,0,0,0-.22A0.25,0.25,0,0,0,205.25,123.18Z" transform="translate(-22.39 -18.51)" fill="#20b5b0"/><path d="M203.2,123.18v-0.26A0.54,0.54,0,0,0,203.2,123.18Z" transform="translate(-22.39 -18.51)" fill="#20b5b0"/><polygon points="180.55 106.03 180.59 106.18 180.59 105.95 180.55 106.03" fill="#20b5b0"/><polygon points="180.14 104.24 180.15 104.2 180.1 104.3 180.14 104.24" fill="#20b5b0"/><path d="M199.12,123.56l0.1,0.3C199.24,123.8,199.14,123.46,199.12,123.56Z" transform="translate(-22.39 -18.51)" fill="#20b5b0"/><path d="M197.83,124.35c-0.07-.14-0.15-0.22-0.12-0.07S197.83,124.4,197.83,124.35Z" transform="translate(-22.39 -18.51)" fill="#20b5b0"/><polygon points="171.25 107.35 171.22 107.25 171.22 107.35 171.25 107.35" fill="#20b5b0"/><rect x="61.82" y="115.66" width="83.32" height="29.35" rx="0.57" ry="0.57" transform="translate(-75.46 55.39) rotate(-31.73)"/><path d="M74.71,155.36a0.91,0.91,0,0,0,1,0c0.43-.27.5-0.64,0.12-1.26l-1.73-2.8,0.51-.32,1.76,2.85A1.28,1.28,0,0,1,76,155.8a1.38,1.38,0,0,1-1.51,0Z" transform="translate(-22.39 -18.51)" fill="#fff"/><path d="M78.62,151.47a0.73,0.73,0,0,0-1.08-.37,1.9,1.9,0,0,0-.69.87l-0.42-.23a2.6,2.6,0,0,1,.94-1.11,1.21,1.21,0,0,1,1.8.59l1.13,1.83-0.42.26L79.62,153h0a1.91,1.91,0,0,1-.72,1,1,1,0,0,1-1.41-.31C77.07,153.07,77.44,152.4,78.62,151.47Zm0.15,2.07a1.43,1.43,0,0,0,.57-0.9l-0.51-.83c-0.93.74-1.11,1.2-.88,1.58A0.54,0.54,0,0,0,78.77,153.54Z" transform="translate(-22.39 -18.51)" fill="#fff"/><path d="M79,149.74l0.52-.32,1.62,1.35c0.27,0.24.55,0.48,0.82,0.71l0,0c-0.09-.34-0.18-0.7-0.27-1l-0.48-2,0.5-.31,0.79,3.64-0.59.37Z" transform="translate(-22.39 -18.51)" fill="#fff"/><path d="M84.52,147.82a0.74,0.74,0,0,0-1.08-.37,1.9,1.9,0,0,0-.69.87l-0.42-.22a2.61,2.61,0,0,1,.94-1.11,1.21,1.21,0,0,1,1.8.59l1.13,1.83-0.42.26-0.26-.33h0a1.91,1.91,0,0,1-.72,1,1,1,0,0,1-1.4-.31C83,149.43,83.34,148.75,84.52,147.82Zm0.15,2.07a1.44,1.44,0,0,0,.57-0.91l-0.51-.83c-0.93.74-1.11,1.2-.88,1.58A0.54,0.54,0,0,0,84.67,149.89Z" transform="translate(-22.39 -18.51)" fill="#fff"/><path d="M86.66,147.9a1.84,1.84,0,0,0,1.42-.18,0.84,0.84,0,0,0,.44-1.18,1,1,0,0,0-1.12-.29l-0.73.11a1.27,1.27,0,0,1-.85-2.39,1.93,1.93,0,0,1,1.49-.24l-0.07.5a1.52,1.52,0,0,0-1.15.18,0.76,0.76,0,0,0-.39,1.06,1,1,0,0,0,1.09.26l0.73-.11a1.32,1.32,0,0,1,1.5.56,1.44,1.44,0,0,1-.67,2,2.28,2.28,0,0,1-1.78.27Z" transform="translate(-22.39 -18.51)" fill="#fff"/><path d="M89.73,143a1.45,1.45,0,0,1,1.09-.18l0,0.48a1.06,1.06,0,0,0-.77.11,1.2,1.2,0,0,0-.22,1.74,1.17,1.17,0,0,0,1.63.57,1.25,1.25,0,0,0,.52-0.74l0.43,0.19a1.75,1.75,0,0,1-.73,1,1.65,1.65,0,0,1-2.37-.7A1.7,1.7,0,0,1,89.73,143Z" transform="translate(-22.39 -18.51)" fill="#fff"/><path d="M91.37,142.08l0.42-.26,0.38,0.51h0a1.2,1.2,0,0,1,.47-1.14A0.86,0.86,0,0,1,93,141l0.18,0.5a1,1,0,0,0-.32.13,1.06,1.06,0,0,0-.33,1.16l1.19,1.92-0.51.31Z" transform="translate(-22.39 -18.51)" fill="#fff"/><path d="M92.83,139.87a0.41,0.41,0,0,1,.7-0.43A0.41,0.41,0,0,1,92.83,139.87Zm0.67,0.88,0.5-.31,1.85,3-0.51.31Z" transform="translate(-22.39 -18.51)" fill="#fff"/><path d="M97.52,142.75l0.62,1-0.51.31L95,139.82l0.42-.26,0.26,0.32h0a1.82,1.82,0,0,1,.7-1c0.77-.48,1.55-0.13,2.12.79a1.67,1.67,0,0,1-.29,2.41,1.63,1.63,0,0,1-1,.17Zm0.36-1.06A1.18,1.18,0,0,0,98,140c-0.41-.66-0.9-1-1.47-0.61a1.48,1.48,0,0,0-.55.9l1,1.57A1.39,1.39,0,0,0,97.88,141.7Z" transform="translate(-22.39 -18.51)" fill="#fff"/><path d="M98.77,138.07l-0.44.27L98.09,138l0.45-.32-0.46-.88,0.42-.26L99,137.34l0.81-.5,0.25,0.41-0.8.5,1,1.66c0.23,0.37.47,0.51,0.82,0.29a1.29,1.29,0,0,0,.29-0.29l0.33,0.32a2.18,2.18,0,0,1-.49.45,1,1,0,0,1-1.47-.47Z" transform="translate(-22.39 -18.51)" fill="#fff"/><path d="M103.11,137.73a1.84,1.84,0,0,0,1.42-.18,0.84,0.84,0,0,0,.44-1.18,1,1,0,0,0-1.12-.29l-0.73.1a1.27,1.27,0,0,1-.85-2.39,1.93,1.93,0,0,1,1.49-.24l-0.07.5a1.52,1.52,0,0,0-1.15.19,0.76,0.76,0,0,0-.39,1.06,1,1,0,0,0,1.09.26l0.73-.11a1.32,1.32,0,0,1,1.5.56,1.44,1.44,0,0,1-.67,2,2.28,2.28,0,0,1-1.78.27Z" transform="translate(-22.39 -18.51)" fill="#fff"/><path d="M104.39,132.58l1-.62a2.07,2.07,0,0,1,3.14.82,2.09,2.09,0,0,1-.62,3.2l-1,.64Zm3.21,3c0.95-.59,1-1.47.41-2.49a1.58,1.58,0,0,0-2.39-.71l-0.46.28,2,3.2Z" transform="translate(-22.39 -18.51)" fill="#fff"/><path d="M108.16,130.25l0.52-.32,1.25,2h0l0.43-3.06,0.58-.36-0.32,2.32,3,1.6-0.57.35-2.5-1.35-0.18,1.24,0.79,1.28-0.52.32Z" transform="translate(-22.39 -18.51)" fill="#fff"/><path d="M78.71,138.81a0.38,0.38,0,0,1-.6.39l-1.76-1.31a0.63,0.63,0,0,0-.66,0l-1,.63a0.21,0.21,0,0,0-.12.15L74.16,141s0,0.24-.08.16l-0.17-.24-0.76-1.23a0.38,0.38,0,0,0-.41,0l-0.6.37c-0.11.07-.08,0.14,0,0.23l2.23,3.61c0.06,0.1.13,0.24,0.23,0.18l0.73-.45a0.23,0.23,0,0,0,.06-0.36l-0.2-.32a5.88,5.88,0,0,1-.37-0.57l0.13-.76a0.22,0.22,0,0,1,.31-0.15l1.84,0.91a0.25,0.25,0,0,0,.23,0L78,142a0.23,0.23,0,0,0,0-.4l-2.64-1.17a0.2,0.2,0,0,1-.14-0.21l0.18-1.08,0-.12a0.27,0.27,0,0,1,.38-0.23l3.27,2.3a0.26,0.26,0,0,1,.09.13l0.06,0.24a1.06,1.06,0,0,1-.44,1.24l-0.14.07a0.23,0.23,0,0,0-.14.27l0.15,0.46a0.21,0.21,0,0,0,.28.12,2.28,2.28,0,0,0,.4-0.2c1-.59,1.06-1.44.86-2.58L79.19,136c0-.14-0.17-0.16-0.3-0.08l-0.58.36a0.19,0.19,0,0,0-.13.19l0.06,0.27ZM84,137.48c-0.1-.15-0.21-0.13-0.36,0-1.44.9-1.48,0.94-1.71,0.58l-1.71-2.75c-0.06-.1-0.09-0.17-0.19-0.1l-0.64.4a0.18,0.18,0,0,0-.07.26l2,3.21c0.48,0.8.36,0.73,1.41,0.08,0.15-.09,1.39-0.85,1.48-0.93a0.23,0.23,0,0,0,0-.3l-0.25-.4h0Zm-12.92,4.6-1,.18c-0.59.11-1.14,0.23-1.4-.19a0.88,0.88,0,0,1,.52-1.2,2.26,2.26,0,0,1,1.34-.34,0.24,0.24,0,0,0,.24-0.19l0.09-.53a0.2,0.2,0,0,0-.18-0.23,3.2,3.2,0,0,0-2,.46c-1.13.7-1.61,1.91-1.08,2.76a1.91,1.91,0,0,0,2.12.67l1-.17c0.66-.13,1.09-0.2,1.37.25a0.93,0.93,0,0,1-.56,1.3,2.72,2.72,0,0,1-1.45.37,0.56,0.56,0,0,0-.54.44h0a0.49,0.49,0,0,0,.47.6,3.71,3.71,0,0,0,2-.56c1.31-.81,1.65-2,1.11-2.9A1.78,1.78,0,0,0,71.11,142.08Zm22.48-10.15-2.64-1.17a0.2,0.2,0,0,1-.12-0.22l0.39-1.92c0-.18-0.14-0.26-0.3-0.16l-0.62.38a0.21,0.21,0,0,0-.12.15l-0.47,2.75h0l-1.14-1.85a0.22,0.22,0,0,0-.34-0.08l-0.83.51c-0.26.18-.23,0.16,0,0.26a2.15,2.15,0,0,1,.68.78l1.9,3.07a0.13,0.13,0,0,0,.19,0l0.72-.44c0.19-.14.19-0.14,0.07-0.37L90.49,133a0.62,0.62,0,0,1-.07-0.39l0-.24a0.54,0.54,0,0,1,.76-0.38l1.49,0.73a0.27,0.27,0,0,0,.24,0l0.66-.41A0.23,0.23,0,0,0,93.58,131.93Zm-10.42,1.52a0.25,0.25,0,0,0-.33,0l-0.6.37c-0.11.07-.06,0.1,0,0.2l2.32,3.76c0.06,0.1,0,.12.15,0.05l0.6-.37c0.18-.11.2-0.22,0.14-0.31Zm1.44-.71-0.17-.2c-0.07-.08-0.13,0-0.23.06l-0.53.33c-0.11.07-.21,0.11-0.15,0.21l2.32,3.75c0.12,0.2.08,0.19,0.29,0.07l0.71-.44a0.26,0.26,0,0,0,0-.34l-1.52-2.45a0.48,0.48,0,0,1-.05-0.4,1.38,1.38,0,0,1,.59-0.9c0.48-.3.8-0.15,1.21,0.51l1.38,2.24a0.28,0.28,0,0,0,.43.06l0.64-.4c0.11-.07,0-0.16-0.1-0.26L88,132.21c-0.63-1-1.36-1.46-2.3-.88a3,3,0,0,0-1,1.39c0,0.08-.11,0-0.11,0h0Z" transform="translate(-22.39 -18.51)" fill="#fff"/><path d="M92.35,128.29a0.52,0.52,0,0,0,.54,0c0.22-.13.26-0.32,0-0.67l-1.07-1.73,0.6-.37,1.1,1.78a1,1,0,0,1-.28,1.46,1.06,1.06,0,0,1-1.16,0Z" transform="translate(-22.39 -18.51)" fill="#fff"/><path d="M94.43,127a1.25,1.25,0,0,0,.83-0.13c0.25-.15.31-0.33,0.21-0.49s-0.29-.13-0.58-0.08l-0.43.06a0.91,0.91,0,0,1-1-.39,1,1,0,0,1,.46-1.38A1.45,1.45,0,0,1,95,124.4l-0.07.57a1,1,0,0,0-.69.13,0.33,0.33,0,0,0-.19.45,0.55,0.55,0,0,0,.6.06l0.43-.07a0.86,0.86,0,0,1,1,.4,1,1,0,0,1-.49,1.45,1.73,1.73,0,0,1-1.23.23Z" transform="translate(-22.39 -18.51)" fill="#fff"/><rect x="251.11" y="49.75" width="68.07" height="23.98" rx="0.57" ry="0.57" transform="translate(54.81 -161.41) rotate(32.32)"/><path d="M256.51,49.52a1.51,1.51,0,0,0,.64,1,0.68,0.68,0,0,0,1-.1,0.78,0.78,0,0,0-.18-0.93l-0.34-.5a1,1,0,0,1,1.45-1.48,1.58,1.58,0,0,1,.71,1l-0.39.13a1.24,1.24,0,0,0-.55-0.78,0.62,0.62,0,0,0-.92.09,0.79,0.79,0,0,0,.2.89l0.34,0.5a1.08,1.08,0,0,1,.12,1.3,1.18,1.18,0,0,1-1.71.23,1.86,1.86,0,0,1-.84-1.21Z" transform="translate(-22.39 -18.51)" fill="#fff"/><path d="M260.76,48.62l0.82,0.52a1.69,1.69,0,0,1,.52,2.6,1.71,1.71,0,0,1-2.57.68l-0.84-.53Zm-1.07,3.43a1.31,1.31,0,0,0,2-.59,1.29,1.29,0,0,0-.34-2L261,49.23l-1.64,2.6Z" transform="translate(-22.39 -18.51)" fill="#fff"/><path d="M263.82,50.56l0.42,0.27-1,1.64h0l2.4-.78,0.47,0.3-1.82.6-0.1,2.77-0.46-.29,0.1-2.32-1,.31-0.66,1-0.42-.27Z" transform="translate(-22.39 -18.51)" fill="#fff"/><path d="M268.72,53.74a0.81,0.81,0,0,0-.24-0.23c-0.23-.15-0.44-0.05-0.64.25l-0.24.38,0.51,0.32-0.21.33-0.51-.33-1.32,2.09-0.41-.26L267,54.22,266.66,54l0.2-.31,0.35,0.18,0.24-.38a0.81,0.81,0,0,1,1.22-.35,1.27,1.27,0,0,1,.35.34Z" transform="translate(-22.39 -18.51)" fill="#fff"/><path d="M269.52,55.27a1.52,1.52,0,1,1-1.93.57A1.37,1.37,0,0,1,269.52,55.27Zm-1.4,2.21a1.15,1.15,0,0,0,1.18-1.87,1,1,0,0,0-1.29.5A0.94,0.94,0,0,0,268.12,57.48Z" transform="translate(-22.39 -18.51)" fill="#fff"/><path d="M271.25,56.45l0.34,0.21-0.24.46h0a1,1,0,0,1,1-.06,0.72,0.72,0,0,1,.23.21l-0.31.31a0.8,0.8,0,0,0-.21-0.19,0.86,0.86,0,0,0-1,.17l-1,1.56-0.41-.26Z" transform="translate(-22.39 -18.51)" fill="#fff"/><path d="M274,58.18l0.41,0.26-1.54,2.43-0.41-.26Zm0.41-.81a0.34,0.34,0,1,1,.12.45A0.32,0.32,0,0,1,274.39,57.37Z" transform="translate(-22.39 -18.51)" fill="#fff"/><path d="M274.56,59.63a1.68,1.68,0,1,1,2.8,1.77A1.69,1.69,0,1,1,274.56,59.63Zm2.37,1.5A1.2,1.2,0,1,0,275,59.9c-0.52.82-.47,1.59,0.12,2S276.41,61.95,276.93,61.13Z" transform="translate(-22.39 -18.51)" fill="#fff"/><path d="M277.46,62.78a1.5,1.5,0,0,0,.64,1,0.68,0.68,0,0,0,1-.1,0.78,0.78,0,0,0-.18-0.93l-0.34-.5a1,1,0,0,1,1.45-1.48,1.58,1.58,0,0,1,.71,1l-0.39.13a1.25,1.25,0,0,0-.55-0.78,0.62,0.62,0,0,0-.92.09,0.79,0.79,0,0,0,.2.89l0.34,0.5a1.08,1.08,0,0,1,.12,1.3,1.17,1.17,0,0,1-1.71.23,1.86,1.86,0,0,1-.84-1.21Z" transform="translate(-22.39 -18.51)" fill="#fff"/><path d="M282.72,62.52L283.54,63a1.69,1.69,0,0,1,.52,2.6,1.71,1.71,0,0,1-2.57.69l-0.84-.53ZM281.65,66a1.31,1.31,0,0,0,2-.59,1.29,1.29,0,0,0-.34-2l-0.37-.23-1.64,2.6Z" transform="translate(-22.39 -18.51)" fill="#fff"/><path d="M286.16,65.8a1.16,1.16,0,0,1,.25,1.75,1.7,1.7,0,0,1-.16.22l-1.64-1a1,1,0,0,0,.27,1.36,1.29,1.29,0,0,0,.72.19l0,0.36a1.71,1.71,0,0,1-1-.26A1.52,1.52,0,0,1,286.16,65.8Zm-0.08,1.48a0.75,0.75,0,0,0-.11-1.15,0.89,0.89,0,0,0-1.18.33Z" transform="translate(-22.39 -18.51)" fill="#fff"/><path d="M287.37,66.65l0.42,0.27-0.41,1.67c-0.08.28-.16,0.58-0.23,0.86h0l0.67-.58,1.33-1.09,0.4,0.25-2.39,1.88-0.48-.3Z" transform="translate(-22.39 -18.51)" fill="#fff"/><path d="M290.05,68.34l0.41,0.26L288.93,71l-0.41-.26Zm0.41-.81a0.34,0.34,0,0,1,.57.36A0.34,0.34,0,0,1,290.46,67.53Z" transform="translate(-22.39 -18.51)" fill="#fff"/><path d="M292.3,69.69a1.18,1.18,0,0,1,.53.74l-0.37.13a0.87,0.87,0,0,0-.35-0.52,1,1,0,0,0-1.35.46,1,1,0,0,0,.16,1.4,1,1,0,0,0,.72.12V72.4a1.42,1.42,0,0,1-1-.19,1.35,1.35,0,0,1-.34-2A1.39,1.39,0,0,1,292.3,69.69Z" transform="translate(-22.39 -18.51)" fill="#fff"/><path d="M294.4,71a1.16,1.16,0,0,1,.25,1.75,1.69,1.69,0,0,1-.16.21l-1.64-1a1,1,0,0,0,.27,1.36,1.29,1.29,0,0,0,.72.19l0,0.36a1.71,1.71,0,0,1-1-.26A1.52,1.52,0,0,1,294.4,71Zm-0.08,1.48a0.75,0.75,0,0,0-.11-1.15,0.89,0.89,0,0,0-1.18.33Z" transform="translate(-22.39 -18.51)" fill="#fff"/><path d="M294.68,73.9a1.29,1.29,0,0,0,.53.74,0.48,0.48,0,0,0,.72-0.08,0.78,0.78,0,0,0-.26-0.81,1,1,0,0,1-.28-1.16,0.86,0.86,0,0,1,1.27-.16,1.43,1.43,0,0,1,.58.75l-0.36.14a1.06,1.06,0,0,0-.42-0.56,0.45,0.45,0,0,0-.67.07,0.75,0.75,0,0,0,.27.76,1,1,0,0,1,.27,1.2A0.92,0.92,0,0,1,295,75,1.73,1.73,0,0,1,294.3,74Z" transform="translate(-22.39 -18.51)" fill="#fff"/><path d="M270.06,46.57a0.31,0.31,0,0,1-.5-0.3l0.33-1.76a0.52,0.52,0,0,0-.21-0.49l-0.83-.53a0.17,0.17,0,0,0-.15,0l-1.85.54s-0.18.06-.15,0l0.11-.21,0.63-1a0.31,0.31,0,0,0-.17-0.29l-0.48-.31c-0.09-.05-0.13,0-0.18.07l-1.86,2.93c-0.05.08-.13,0.18,0,0.23l0.6,0.38a0.19,0.19,0,0,0,.29-0.08l0.17-.26A4.8,4.8,0,0,1,266,45l0.61-.18a0.18,0.18,0,0,1,.23.17v1.68a0.21,0.21,0,0,0,.07.17l0.53,0.34a0.19,0.19,0,0,0,.29-0.16l-0.08-2.36a0.17,0.17,0,0,1,.1-0.18l0.85-.25,0.09,0a0.22,0.22,0,0,1,.3.2l-0.52,3.22a0.21,0.21,0,0,1-.06.11l-0.16.13a0.87,0.87,0,0,1-1.07.12l-0.1-.08a0.18,0.18,0,0,0-.25,0l-0.29.27a0.17,0.17,0,0,0,0,.25,1.86,1.86,0,0,0,.29.22,1.78,1.78,0,0,0,2.2-.29l3.24-2.43c0.09-.07.06-0.18-0.05-0.25l-0.47-.3a0.16,0.16,0,0,0-.19,0l-0.18.14ZM272.95,50c0.08-.13,0-0.2-0.1-0.28-1.17-.74-1.22-0.75-1-1l1.41-2.24c0.05-.08.09-0.12,0-0.18l-0.52-.33a0.14,0.14,0,0,0-.22,0l-1.65,2.6c-0.42.64-.41,0.52,0.45,1.06,0.12,0.07,1.12.72,1.21,0.75a0.19,0.19,0,0,0,.24-0.07L273,50h0Zm-8-7.85-0.48-.65a1,1,0,0,1-.36-1.09,0.72,0.72,0,0,1,1.06,0,1.84,1.84,0,0,1,.73.86,0.2,0.2,0,0,0,.23.11l0.42-.12a0.16,0.16,0,0,0,.11-0.21,2.61,2.61,0,0,0-1.06-1.32,1.72,1.72,0,0,0-2.42.2,1.56,1.56,0,0,0,.27,1.8l0.48,0.67a0.92,0.92,0,0,1,.31,1.09,0.76,0.76,0,0,1-1.16.06,2.23,2.23,0,0,1-.79-0.93,0.46,0.46,0,0,0-.51-0.24h0a0.4,0.4,0,0,0-.27.56,3,3,0,0,0,1.13,1.28c1.06,0.67,2.07.49,2.52-.22A1.46,1.46,0,0,0,264.95,42.16ZM280.44,55l-0.08-2.36a0.16,0.16,0,0,1,.12-0.17l1.55-.4c0.14,0,.14-0.19,0-0.28l-0.5-.32a0.17,0.17,0,0,0-.15,0l-2.19.64h0l0.95-1.5a0.18,0.18,0,0,0-.07-0.28l-0.68-.43c-0.23-.13-0.2-0.11-0.21.06a1.76,1.76,0,0,1-.33.78l-1.57,2.49a0.11,0.11,0,0,0,0,.15l0.58,0.38c0.17,0.09.17,0.09,0.29-.08l0.35-.55a0.51,0.51,0,0,1,.26-0.19l0.19-.05a0.44,0.44,0,0,1,.55.43v1.36a0.22,0.22,0,0,0,.07.18l0.53,0.34A0.19,0.19,0,0,0,280.44,55Zm-4.84-7.11a0.21,0.21,0,0,0-.12-0.24L275,47.38c-0.09-.05-0.09,0-0.14.07l-1.93,3c-0.05.08-.07,0.08,0,0.13l0.49,0.31c0.14,0.09.23,0.07,0.28,0Zm1,0.8,0.08-.19c0-.08,0-0.09-0.13-0.14l-0.43-.27c-0.09-.05-0.15-0.11-0.21,0l-1.92,3c-0.11.16-.11,0.12,0.05,0.23l0.57,0.36a0.21,0.21,0,0,0,.26-0.1l1.26-2a0.39,0.39,0,0,1,.27-0.18,1.12,1.12,0,0,1,.87.11c0.39,0.25.4,0.53,0.06,1.07l-1.15,1.82a0.23,0.23,0,0,0,.11.33l0.52,0.33c0.09,0.05.1-.09,0.15-0.17L278.23,51c0.52-.83.58-1.52-0.18-2a2.48,2.48,0,0,0-1.37-.22c-0.07,0,0-.08,0-0.08h0Z" transform="translate(-22.39 -18.51)" fill="#fff"/><path d="M282.69,52.83a1,1,0,0,0,.39.56c0.2,0.13.35,0.11,0.43,0s0-.26-0.15-0.46l-0.2-.29a0.74,0.74,0,0,1-.06-0.87,0.83,0.83,0,0,1,1.18-.16,1.19,1.19,0,0,1,.52.72l-0.44.15A0.85,0.85,0,0,0,284,52a0.27,0.27,0,0,0-.4,0,0.45,0.45,0,0,0,.17.46L284,52.8a0.71,0.71,0,0,1,.06.86,0.85,0.85,0,0,1-1.23.16,1.42,1.42,0,0,1-.61-0.82Z" transform="translate(-22.39 -18.51)" fill="#fff"/><path d="M285.37,52.35L286,52.74a1.28,1.28,0,0,1-1.34,2.18L284,54.51Zm-0.53,2.13a0.68,0.68,0,0,0,1.05-.31,0.67,0.67,0,0,0-.19-1.06l-0.09-.06-0.87,1.37Z" transform="translate(-22.39 -18.51)" fill="#fff"/><path d="M287.47,53.68L288,54l-0.56.88h0l1.21-.48,0.53,0.34-1.2.45,0,1.79-0.54-.34,0.05-1.24-0.46.17-0.37.58-0.49-.31Z" transform="translate(-22.39 -18.51)" fill="#fff"/></svg>